GoogleSansCode-Italic.glyphspackage
{
color = 4;
glyphname = exclam;
kernLeft = exclam_left;
kernRight = exclam_right;
layers = (
{
background = {
shapes = (
{
closed = 1;
nodes = (
(701,550,l),
(895,1492,l),
(645,1492,l),
(507,550,l)
);
},
{
closed = 1;
nodes = (
(594,-29,o),
(679,44,o),
(695,135,cs),
(711,226,o),
(652,299,o),
(560,299,cs),
(468,299,o),
(383,226,o),
(367,135,cs),
(351,44,o),
(410,-29,o),
(502,-29,cs)
);
}
);
};
layerId = m006;
shapes = (
{
closed = 1;
nodes = (
(695,550,l),
(901,1492,l),
(651,1492,l),
(501,550,l)
);
},
{
closed = 1;
nodes = (
(623,-29,o),
(695,44,o),
(695,135,cs),
(695,226,o),
(623,299,o),
(531,299,cs),
(439,299,o),
(367,226,o),
(367,135,cs),
(367,44,o),
(439,-29,o),
(531,-29,cs)
);
}
);
width = 1200;
},
{
background = {
shapes = (
{
closed = 1;
nodes = (
(762,597,l),
(958,1494,l),
(584,1494,l),
(464,597,l)
);
},
{
closed = 1;
nodes = (
(617,-34,o),
(723,57,o),
(744,172,cs),
(764,287,o),
(690,378,o),
(574,378,cs),
(458,378,o),
(352,287,o),
(332,172,cs),
(311,57,o),
(385,-34,o),
(501,-34,cs)
);
}
);
};
layerId = "90828D4A-10F7-4870-818F-40FC947ECC22";
shapes = (
{
closed = 1;
nodes = (
(756,597,l),
(964,1494,l),
(590,1494,l),
(458,597,l)
);
},
{
closed = 1;
nodes = (
(653,-34,o),
(744,57,o),
(744,172,cs),
(744,287,o),
(654,377,o),
(538,377,cs),
(423,377,o),
(332,287,o),
(332,172,cs),
(332,57,o),
(423,-34,o),
(538,-34,cs)
);
}
);
width = 1200;
},
{
background = {
shapes = (
{
closed = 1;
nodes = (
(671,509,l),
(868,1492,l),
(674,1492,l),
(525,509,l)
);
},
{
closed = 1;
nodes = (
(587,-30,o),
(665,37,o),
(679,120,cs),
(694,203,o),
(640,270,o),
(556,270,cs),
(472,270,o),
(394,203,o),
(379,120,cs),
(365,37,o),
(419,-30,o),
(503,-30,cs)
);
}
);
};
layerId = "87470510-D880-4621-BF85-70AEEA552FBA";
shapes = (
{
closed = 1;
nodes = (
(665,509,l),
(874,1492,l),
(680,1492,l),
(519,509,l)
);
},
{
closed = 1;
nodes = (
(612,-30,o),
(677,37,o),
(677,120,cs),
(677,203,o),
(612,270,o),
(529,270,cs),
(446,270,o),
(381,203,o),
(381,120,cs),
(381,37,o),
(446,-30,o),
(529,-30,cs)
);
}
);
width = 1200;
},
{
background = {
shapes = (
{
closed = 1;
nodes = (
(784,625,l),
(983,1494,l),
(559,1494,l),
(452,625,l)
);
},
{
closed = 1;
nodes = (
(624,-35,o),
(738,62,o),
(760,185,cs),
(782,308,o),
(703,404,o),
(579,404,cs),
(456,404,o),
(342,308,o),
(320,185,cs),
(298,62,o),
(378,-35,o),
(501,-35,cs)
);
}
);
};
layerId = "00586AEE-0022-45ED-9612-7F804652F2C7";
shapes = (
{
closed = 1;
nodes = (
(778,625,l),
(989,1494,l),
(565,1494,l),
(446,625,l)
);
},
{
closed = 1;
nodes = (
(663,-35,o),
(760,62,o),
(760,185,cs),
(760,308,o),
(664,404,o),
(540,404,cs),
(417,404,o),
(320,308,o),
(320,185,cs),
(320,62,o),
(417,-35,o),
(540,-35,cs)
);
}
);
width = 1200;
},
{
background = {
shapes = (
{
closed = 1;
nodes = (
(416,509,l),
(613,1492,l),
(419,1492,l),
(270,509,l)
);
},
{
closed = 1;
nodes = (
(332,-30,o),
(410,37,o),
(424,120,cs),
(439,203,o),
(385,270,o),
(301,270,cs),
(217,270,o),
(139,203,o),
(124,120,cs),
(110,37,o),
(164,-30,o),
(248,-30,cs)
);
}
);
};
layerId = m005;
shapes = (
{
closed = 1;
nodes = (
(410,509,l),
(619,1492,l),
(425,1492,l),
(264,509,l)
);
},
{
closed = 1;
nodes = (
(357,-30,o),
(422,37,o),
(422,120,cs),
(422,203,o),
(357,270,o),
(274,270,cs),
(191,270,o),
(126,203,o),
(126,120,cs),
(126,37,o),
(191,-30,o),
(274,-30,cs)
);
}
);
width = 690;
},
{
layerId = m007;
shapes = (
{
closed = 1;
nodes = (
(448,550,l),
(654,1492,l),
(404,1492,l),
(254,550,l)
);
},
{
closed = 1;
nodes = (
(376,-29,o),
(448,44,o),
(448,135,cs),
(448,226,o),
(376,299,o),
(284,299,cs),
(192,299,o),
(120,226,o),
(120,135,cs),
(120,44,o),
(192,-29,o),
(284,-29,cs)
);
}
);
width = 705;
},
{
layerId = m008;
shapes = (
{
closed = 1;
nodes = (
(527,606,l),
(736,1494,l),
(356,1494,l),
(229,606,l)
);
},
{
closed = 1;
nodes = (
(422,-33,o),
(513,58,o),
(513,173,cs),
(513,288,o),
(423,378,o),
(307,378,cs),
(192,378,o),
(101,288,o),
(101,173,cs),
(101,58,o),
(192,-33,o),
(307,-33,cs)
);
}
);
width = 739;
},
{
layerId = m009;
shapes = (
{
closed = 1;
nodes = (
(461,625,l),
(672,1494,l),
(248,1494,l),
(129,625,l)
);
},
{
closed = 1;
nodes = (
(346,-35,o),
(443,62,o),
(443,185,cs),
(443,308,o),
(347,404,o),
(223,404,cs),
(100,404,o),
(3,308,o),
(3,185,cs),
(3,62,o),
(100,-35,o),
(223,-35,cs)
);
}
);
width = 567;
}
);
unicode = 33;
}
{
color = 4;
glyphname = numbersign;
kernLeft = numbersign_left;
kernRight = numbersign_right;
layers = (
{
layerId = m006;
shapes = (
{
closed = 1;
nodes = (
(693,-17,l),
(1155,1449,l),
(997,1449,l),
(535,-17,l)
);
},
{
closed = 1;
nodes = (
(271,-17,l),
(733,1449,l),
(575,1449,l),
(113,-17,l)
);
},
{
closed = 1;
nodes = (
(1061,366,l),
(1088,517,l),
(42,517,l),
(16,366,l)
);
},
{
closed = 1;
nodes = (
(1226,916,l),
(1252,1066,l),
(209,1066,l),
(182,916,l)
);
}
);
width = 1200;
},
{
layerId = "90828D4A-10F7-4870-818F-40FC947ECC22";
shapes = (
{
closed = 1;
nodes = (
(749,-17,l),
(1204,1450,l),
(969,1450,l),
(514,-17,l)
);
},
{
closed = 1;
nodes = (
(300,-17,l),
(754,1450,l),
(519,1450,l),
(64,-17,l)
);
},
{
closed = 1;
nodes = (
(1075,339,l),
(1116,570,l),
(31,570,l),
(-9,339,l)
);
},
{
closed = 1;
nodes = (
(1236,863,l),
(1276,1094,l),
(192,1094,l),
(151,863,l)
);
}
);
width = 1200;
},
{
background = {
shapes = (
{
closed = 1;
nodes = (
(664,-17,l),
(1133,1449,l),
(1005,1449,l),
(536,-17,l)
);
},
{
closed = 1;
nodes = (
(263,-17,l),
(732,1449,l),
(604,1449,l),
(135,-17,l)
);
},
{
closed = 1;
nodes = (
(1047,375,l),
(1069,499,l),
(46,499,l),
(24,375,l)
);
},
{
closed = 1;
nodes = (
(1222,933,l),
(1244,1057,l),
(217,1057,l),
(195,933,l)
);
}
);
};
layerId = "87470510-D880-4621-BF85-70AEEA552FBA";
shapes = (
{
closed = 1;
nodes = (
(668,-17,l),
(1133,1449,l),
(1001,1449,l),
(536,-17,l)
);
},
{
closed = 1;
nodes = (
(267,-17,l),
(732,1449,l),
(599,1449,l),
(135,-17,l)
);
},
{
closed = 1;
nodes = (
(1050,375,l),
(1072,499,l),
(46,499,l),
(24,375,l)
);
},
{
closed = 1;
nodes = (
(1222,933,l),
(1244,1057,l),
(218,1057,l),
(196,933,l)
);
}
);
width = 1200;
},
{
background = {
shapes = (
{
closed = 1;
nodes = (
(754,-17,l),
(1213,1450,l),
(958,1450,l),
(499,-17,l)
);
},
{
closed = 1;
nodes = (
(309,-17,l),
(767,1450,l),
(512,1450,l),
(54,-17,l)
);
},
{
closed = 1;
nodes = (
(1077,330,l),
(1122,588,l),
(26,588,l),
(-19,330,l)
);
},
{
closed = 1;
nodes = (
(1241,845,l),
(1286,1103,l),
(190,1103,l),
(145,845,l)
);
}
);
};
layerId = "00586AEE-0022-45ED-9612-7F804652F2C7";
shapes = (
{
closed = 1;
nodes = (
(765,-17,l),
(1218,1450,l),
(957,1450,l),
(504,-17,l)
);
},
{
closed = 1;
nodes = (
(309,-17,l),
(761,1450,l),
(500,1450,l),
(48,-17,l)
);
},
{
closed = 1;
nodes = (
(1083,330,l),
(1128,588,l),
(27,588,l),
(-18,330,l)
);
},
{
closed = 1;
nodes = (
(1240,845,l),
(1285,1103,l),
(184,1103,l),
(139,845,l)
);
}
);
width = 1200;
},
{
background = {
shapes = (
{
closed = 1;
nodes = (
(704,-17,l),
(1173,1449,l),
(1045,1449,l),
(576,-17,l)
);
},
{
closed = 1;
nodes = (
(303,-17,l),
(772,1449,l),
(644,1449,l),
(175,-17,l)
);
},
{
closed = 1;
nodes = (
(1087,375,l),
(1109,499,l),
(86,499,l),
(64,375,l)
);
},
{
closed = 1;
nodes = (
(1262,933,l),
(1284,1057,l),
(257,1057,l),
(235,933,l)
);
}
);
};
layerId = m005;
shapes = (
{
closed = 1;
nodes = (
(708,-17,l),
(1173,1449,l),
(1041,1449,l),
(576,-17,l)
);
},
{
closed = 1;
nodes = (
(307,-17,l),
(772,1449,l),
(639,1449,l),
(175,-17,l)
);
},
{
closed = 1;
nodes = (
(1090,375,l),
(1112,499,l),
(86,499,l),
(64,375,l)
);
},
{
closed = 1;
nodes = (
(1262,933,l),
(1284,1057,l),
(258,1057,l),
(236,933,l)
);
}
);
width = 1240;
},
{
layerId = m007;
shapes = (
{
closed = 1;
nodes = (
(740,-17,l),
(1202,1449,l),
(1044,1449,l),
(582,-17,l)
);
},
{
closed = 1;
nodes = (
(318,-17,l),
(780,1449,l),
(622,1449,l),
(160,-17,l)
);
},
{
closed = 1;
nodes = (
(1108,366,l),
(1135,517,l),
(89,517,l),
(63,366,l)
);
},
{
closed = 1;
nodes = (
(1273,916,l),
(1299,1066,l),
(256,1066,l),
(229,916,l)
);
}
);
width = 1252;
},
{
layerId = m008;
shapes = (
{
closed = 1;
nodes = (
(815,-17,l),
(1270,1450,l),
(1035,1450,l),
(580,-17,l)
);
},
{
closed = 1;
nodes = (
(368,-17,l),
(822,1450,l),
(587,1450,l),
(132,-17,l)
);
},
{
closed = 1;
nodes = (
(1146,339,l),
(1186,570,l),
(99,570,l),
(59,339,l)
);
},
{
closed = 1;
nodes = (
(1305,863,l),
(1345,1094,l),
(258,1094,l),
(218,863,l)
);
}
);
width = 1288;
},
{
layerId = m009;
shapes = (
{
closed = 1;
nodes = (
(789,-17,l),
(1242,1450,l),
(981,1450,l),
(528,-17,l)
);
},
{
closed = 1;
nodes = (
(333,-17,l),
(785,1450,l),
(524,1450,l),
(72,-17,l)
);
},
{
closed = 1;
nodes = (
(1107,330,l),
(1152,588,l),
(51,588,l),
(6,330,l)
);
},
{
closed = 1;
nodes = (
(1264,845,l),
(1309,1103,l),
(208,1103,l),
(163,845,l)
);
}
);
width = 1248;
}
);
unicode = 35;
}
{
glyphname = dollar;
kernLeft = dollar_left;
kernRight = dollar_right;
layers = (
{
guides = (
{
angle = 157.7379;
pos = (482,745);
}
);
layerId = "87470510-D880-4621-BF85-70AEEA552FBA";
name = "Light Italic";
shapes = (
{
closed = 1;
nodes = (
(850,0,o),
(1016,158,o),
(1016,397,cs),
(1016,574,o),
(932,699,o),
(745,787,cs),
(593,859,ls),
(490,908,o),
(445,970,o),
(445,1064,cs),
(445,1213,o),
(548,1302,o),
(718,1302,cs),
(867,1302,o),
(962,1236,o),
(1000,1104,c),
(1134,1143,l),
(1077,1333,o),
(936,1432,o),
(721,1432,cs),
(470,1432,o),
(305,1285,o),
(305,1057,cs),
(305,917,o),
(388,805,o),
(543,732,cs),
(695,660,ls),
(823,599,o),
(876,518,o),
(876,391,cs),
(876,231,o),
(769,130,o),
(598,130,cs),
(398,130,o),
(287,217,o),
(256,399,c),
(118,373,l),
(162,133,o),
(332,0,o),
(598,0,cs)
);
},
{
closed = 1;
nodes = (
(533,-226,l),
(584,61,l),
(583,94,l),
(700,755,l),
(598,751,l),
(482,94,l),
(474,61,l),
(423,-226,l)
);
},
{
closed = 1;
nodes = (
(701,762,l),
(806,1356,l),
(817,1387,l),
(865,1658,l),
(755,1658,l),
(707,1387,l),
(705,1356,l),
(599,758,l)
);
}
);
width = 1200;
},
{
associatedMasterId = "87470510-D880-4621-BF85-70AEEA552FBA";
guides = (
{
angle = 157.7379;
pos = (482,745);
}
);
layerId = "A829A4AF-BD6B-47E1-B3BB-BBC47D0F60B9";
name = intermediate_Q;
shapes = (
{
closed = 1;
nodes = (
(850,0,o),
(1016,158,o),
(1016,397,cs),
(1016,574,o),
(932,699,o),
(745,787,cs),
(593,859,ls),
(490,908,o),
(445,970,o),
(445,1064,cs),
(445,1213,o),
(548,1302,o),
(718,1302,cs),
(867,1302,o),
(962,1236,o),
(1000,1104,c),
(1134,1143,l),
(1077,1333,o),
(936,1432,o),
(721,1432,cs),
(470,1432,o),
(305,1285,o),
(305,1057,cs),
(305,917,o),
(388,805,o),
(543,732,cs),
(695,660,ls),
(823,599,o),
(876,518,o),
(876,391,cs),
(876,231,o),
(769,130,o),
(598,130,cs),
(398,130,o),
(287,217,o),
(256,399,c),
(118,373,l),
(162,133,o),
(332,0,o),
(598,0,cs)
);
},
{
closed = 1;
nodes = (
(533,-226,l),
(586,76,l),
(476,76,l),
(423,-226,l)
);
},
{
closed = 1;
nodes = (
(817,1389,l),
(865,1658,l),
(755,1658,l),
(707,1389,l)
);
}
);
width = 1200;
},
{
background = {
shapes = (
{
closed = 1;
nodes = (
(797,0,o),
(997,145,o),
(1039,379,cs),
(1041,394,ls),
(1074,581,o),
(1003,704,o),
(795,790,cs),
(607,868,ls),
(479,921,o),
(438,977,o),
(456,1078,cs),
(457,1087,ls),
(479,1208,o),
(581,1278,o),
(740,1278,cs),
(877,1278,o),
(950,1218,o),
(979,1083,c),
(1154,1150,l),
(1119,1336,o),
(989,1432,o),
(768,1432,cs),
(509,1432,o),
(315,1295,o),
(278,1084,cs),
(275,1068,ls),
(247,906,o),
(327,790,o),
(510,714,cs),
(698,636,ls),
(837,578,o),
(879,509,o),
(857,388,cs),
(855,377,ls),
(831,237,o),
(720,154,o),
(556,154,cs),
(382,154,o),
(291,242,o),
(278,421,c),
(100,366,l),
(117,134,o),
(270,0,o),
(525,0,cs)
);
},
{
closed = 1;
nodes = (
(550,-236,l),
(603,62,l),
(603,99,l),
(716,736,l),
(586,736,l),
(473,99,l),
(461,62,l),
(408,-236,l)
);
},
{
closed = 1;
nodes = (
(720,759,l),
(822,1339,l),
(835,1381,l),
(886,1668,l),
(744,1668,l),
(693,1381,l),
(692,1339,l),
(590,759,l)
);
}
);
};
guides = (
{
angle = 157.7379;
pos = (474,730);
}
);
layerId = m006;
shapes = (
{
closed = 1;
nodes = (
(862,0,o),
(1037,171,o),
(1037,424,cs),
(1037,594,o),
(951,710,o),
(764,796,cs),
(608,868,ls),
(509,914,o),
(465,975,o),
(465,1064,cs),
(465,1198,o),
(557,1278,o),
(714,1278,cs),
(859,1278,o),
(953,1210,o),
(994,1073,c),
(1154,1133,l),
(1088,1330,o),
(940,1432,o),
(716,1432,cs),
(455,1432,o),
(285,1282,o),
(285,1053,cs),
(285,906,o),
(372,787,o),
(534,713,cs),
(690,642,ls),
(805,590,o),
(852,520,o),
(852,414,cs),
(852,254,o),
(753,154,o),
(594,154,cs),
(412,154,o),
(304,242,o),
(263,424,c),
(101,371,l),
(159,132,o),
(333,0,o),
(594,0,cs)
);
},
{
closed = 1;
nodes = (
(550,-236,l),
(603,64,l),
(605,99,l),
(721,749,l),
(589,749,l),
(474,99,l),
(461,64,l),
(408,-236,l)
);
},
{
closed = 1;
nodes = (
(721,750,l),
(825,1339,l),
(835,1380,l),
(886,1668,l),
(744,1668,l),
(693,1380,l),
(693,1339,l),
(589,750,l)
);
}
);
width = 1200;
},
{
associatedMasterId = m006;
attr = {
coordinates = (
599.99,
0
);
};
background = {
shapes = (
{
closed = 1;
nodes = (
(818,0,o),
(1039,158,o),
(1082,402,cs),
(1084,414,ls),
(1118,608,o),
(1037,731,o),
(823,817,cs),
(638,891,ls),
(528,935,o),
(490,979,o),
(504,1057,cs),
(505,1062,ls),
(521,1153,o),
(601,1209,o),
(721,1209,cs),
(838,1209,o),
(899,1153,o),
(918,1042,c),
(1183,1127,l),
(1155,1323,o),
(1015,1432,o),
(779,1432,cs),
(491,1432,o),
(280,1285,o),
(240,1057,cs),
(238,1044,ls),
(208,874,o),
(292,752,o),
(499,670,cs),
(683,597,ls),
(794,553,o),
(833,498,o),
(816,405,cs),
(815,397,ls),
(796,289,o),
(707,225,o),
(579,225,cs),
(433,225,o),
(346,305,o),
(335,465,c),
(69,385,l),
(85,139,o),
(255,0,o),
(526,0,cs)
);
},
{
closed = 1;
nodes = (
(575,-236,l),
(633,91,l),
(635,137,l),
(738,719,l),
(555,719,l),
(452,137,l),
(438,91,l),
(380,-236,l)
);
},
{
closed = 1;
nodes = (
(748,776,l),
(840,1302,l),
(855,1352,l),
(911,1668,l),
(716,1668,l),
(660,1352,l),
(657,1302,l),
(565,776,l)
);
}
);
};
guides = (
{
angle = 157.7379;
pos = (474,730);
}
);
layerId = "EF6745B5-4254-460B-A4C7-660A36366D1C";
name = "{599}";
shapes = (
{
closed = 1;
nodes = (
(893,0,o),
(1083,174,o),
(1083,439,cs),
(1083,614,o),
(993,734,o),
(796,819,cs),
(633,889,ls),
(545,927,o),
(506,979,o),
(506,1051,cs),
(506,1150,o),
(577,1209,o),
(701,1209,cs),
(828,1209,o),
(914,1144,o),
(959,1012,c),
(1187,1112,l),
(1105,1325,o),
(942,1432,o),
(699,1432,cs),
(424,1432,o),
(238,1271,o),
(238,1033,cs),
(238,875,o),
(334,746,o),
(509,671,cs),
(673,601,ls),
(772,559,o),
(813,503,o),
(813,419,cs),
(813,299,o),
(731,225,o),
(601,225,cs),
(449,225,o),
(345,306,o),
(285,474,c),
(61,366,l),
(148,129,o),
(338,0,o),
(599,0,cs)
);
},
{
closed = 1;
nodes = (
(575,-236,l),
(631,79,l),
(635,137,l),
(738,719,l),
(555,719,l),
(452,137,l),
(436,79,l),
(380,-236,l)
);
},
{
closed = 1;
nodes = (
(748,776,l),
(845,1323,l),
(856,1353,l),
(911,1668,l),
(716,1668,l),
(660,1353,l),
(662,1323,l),
(565,776,l)
);
}
);
width = 1200;
},
{
associatedMasterId = m006;
attr = {
coordinates = (
600,
0
);
};
guides = (
{
angle = 157.7379;
pos = (474,730);
}
);
layerId = "048FFCCF-4EB1-42AA-AF15-409DBA64AA89";
name = "{600}";
shapes = (
{
closed = 1;
nodes = (
(893,0,o),
(1083,174,o),
(1083,439,cs),
(1083,614,o),
(993,734,o),
(796,819,cs),
(633,889,ls),
(545,927,o),
(506,979,o),
(506,1051,cs),
(506,1150,o),
(577,1209,o),
(701,1209,cs),
(828,1209,o),
(914,1144,o),
(959,1012,c),
(1187,1112,l),
(1105,1325,o),
(942,1432,o),
(699,1432,cs),
(424,1432,o),
(238,1271,o),
(238,1033,cs),
(238,875,o),
(334,746,o),
(509,671,cs),
(673,601,ls),
(772,559,o),
(813,503,o),
(813,419,cs),
(813,299,o),
(731,225,o),
(601,225,cs),
(449,225,o),
(345,306,o),
(285,474,c),
(61,366,l),
(148,129,o),
(338,0,o),
(599,0,cs)
);
},
{
closed = 1;
nodes = (
(575,-236,l),
(631,79,l),
(636,116,l),
(649,188,l),
(458,188,l),
(445,116,l),
(436,79,l),
(380,-236,l)
);
},
{
closed = 1;
nodes = (
(841,1274,l),
(850,1323,l),
(856,1353,l),
(911,1668,l),
(716,1668,l),
(660,1353,l),
(658,1323,l),
(649,1274,l)
);
}
);
width = 1200;
},
{
background = {
shapes = (
{
closed = 1;
nodes = (
(829,0,o),
(1059,165,o),
(1103,413,cs),
(1105,424,ls),
(1139,621,o),
(1054,745,o),
(836,831,cs),
(654,903,ls),
(552,943,o),
(517,980,o),
(528,1046,cs),
(529,1049,ls),
(542,1126,o),
(611,1174,o),
(711,1174,cs),
(818,1174,o),
(873,1121,o),
(888,1021,c),
(1198,1115,l),
(1173,1317,o),
(1028,1432,o),
(785,1432,cs),
(482,1432,o),
(262,1280,o),
(221,1043,cs),
(219,1032,ls),
(188,858,o),
(275,733,o),
(493,648,cs),
(675,577,ls),
(773,539,o),
(810,492,o),
(796,414,cs),
(795,407,ls),
(778,315,o),
(702,260,o),
(591,260,cs),
(459,260,o),
(373,336,o),
(363,487,c),
(53,394,l),
(70,141,o),
(247,0,o),
(526,0,cs)
);
},
{
closed = 1;
nodes = (
(613,-236,l),
(673,104,l),
(678,134,l),
(687,181,l),
(445,181,l),
(436,134,l),
(431,104,l),
(371,-236,l)
);
},
{
closed = 1;
nodes = (
(874,1243,l),
(887,1315,l),
(894,1355,l),
(949,1668,l),
(707,1668,l),
(652,1355,l),
(645,1315,l),
(632,1243,l)
);
}
);
};
guides = (
{
angle = 157.7379;
pos = (455,658);
}
);
layerId = "90828D4A-10F7-4870-818F-40FC947ECC22";
name = "Bold Italic";
shapes = (
{
closed = 1;
nodes = (
(909,0,o),
(1106,175,o),
(1106,446,cs),
(1106,624,o),
(1014,745,o),
(812,830,cs),
(645,900,ls),
(563,934,o),
(526,981,o),
(526,1044,cs),
(526,1126,o),
(587,1174,o),
(694,1174,cs),
(813,1174,o),
(895,1111,o),
(942,981,c),
(1204,1101,l),
(1113,1322,o),
(943,1432,o),
(690,1432,cs),
(408,1432,o),
(214,1265,o),
(214,1023,cs),
(214,860,o),
(315,726,o),
(497,650,cs),
(664,580,ls),
(755,542,o),
(794,495,o),
(794,421,cs),
(794,322,o),
(720,260,o),
(604,260,cs),
(468,260,o),
(366,338,o),
(296,499,c),
(41,363,l),
(143,128,o),
(340,0,o),
(601,0,cs)
);
},
{
closed = 1;
nodes = (
(613,-236,l),
(670,86,l),
(677,125,l),
(684,165,l),
(442,165,l),
(435,125,l),
(428,86,l),
(371,-236,l)
);
},
{
closed = 1;
nodes = (
(880,1278,l),
(887,1315,l),
(891,1340,l),
(949,1668,l),
(707,1668,l),
(649,1340,l),
(645,1315,l),
(638,1278,l)
);
}
);
width = 1200;
},
{
associatedMasterId = "90828D4A-10F7-4870-818F-40FC947ECC22";
guides = (
{
angle = 157.7379;
pos = (455,658);
}
);
layerId = "030CED7F-AC3C-4801-817C-6436A5802033";
name = "2 Dec 24, 10:45";
shapes = (
{
closed = 1;
nodes = (
(909,0,o),
(1106,175,o),
(1106,446,cs),
(1106,624,o),
(1014,745,o),
(812,830,cs),
(645,900,ls),
(563,934,o),
(526,981,o),
(526,1044,cs),
(526,1126,o),
(587,1174,o),
(694,1174,cs),
(813,1174,o),
(895,1111,o),
(942,981,c),
(1204,1101,l),
(1113,1322,o),
(943,1432,o),
(690,1432,cs),
(408,1432,o),
(214,1265,o),
(214,1023,cs),
(214,860,o),
(315,726,o),
(497,650,cs),
(664,580,ls),
(755,542,o),
(794,495,o),
(794,421,cs),
(794,322,o),
(720,260,o),
(604,260,cs),
(468,260,o),
(366,338,o),
(296,499,c),
(41,363,l),
(143,128,o),
(340,0,o),
(601,0,cs)
);
},
{
closed = 1;
nodes = (
(603,-236,l),
(662,100,l),
(673,174,l),
(773,744,l),
(551,744,l),
(452,180,l),
(441,104,l),
(381,-236,l)
);
},
{
closed = 1;
nodes = (
(771,726,l),
(867,1270,l),
(878,1322,l),
(939,1668,l),
(717,1668,l),
(657,1329,l),
(646,1274,l),
(549,726,l)
);
}
);
width = 1200;
},
{
background = {
shapes = (
{
closed = 1;
nodes = (
(839,0,o),
(1078,172,o),
(1123,424,cs),
(1124,434,ls),
(1160,634,o),
(1071,759,o),
(849,845,cs),
(669,915,ls),
(576,951,o),
(542,981,o),
(551,1035,cs),
(551,1036,ls),
(563,1099,o),
(620,1139,o),
(700,1139,cs),
(797,1139,o),
(847,1089,o),
(856,1000,c),
(1212,1103,l),
(1190,1311,o),
(1040,1432,o),
(790,1432,cs),
(472,1432,o),
(244,1275,o),
(200,1029,cs),
(199,1020,ls),
(167,842,o),
(257,714,o),
(486,626,cs),
(667,557,ls),
(750,525,o),
(785,486,o),
(774,423,cs),
(773,417,ls),
(760,341,o),
(695,295,o),
(601,295,cs),
(483,295,o),
(399,367,o),
(390,509,c),
(37,403,l),
(53,143,o),
(238,0,o),
(525,0,cs)
);
},
{
closed = 1;
nodes = (
(641,-236,l),
(698,88,l),
(704,119,l),
(710,156,l),
(418,156,l),
(412,119,l),
(406,88,l),
(349,-236,l)
);
},
{
closed = 1;
nodes = (
(912,1302,l),
(921,1349,l),
(927,1383,l),
(977,1668,l),
(685,1668,l),
(635,1383,l),
(629,1349,l),
(620,1302,l)
);
}
);
};
guides = (
{
angle = -22.2367;
pos = (816,837);
},
{
angle = 157.7379;
pos = (463,629);
}
);
layerId = "00586AEE-0022-45ED-9612-7F804652F2C7";
name = "ExtraBold Italic";
shapes = (
{
closed = 1;
nodes = (
(924,0,o),
(1127,178,o),
(1127,456,cs),
(1127,636,o),
(1033,758,o),
(831,841,cs),
(660,911,ls),
(584,942,o),
(549,981,o),
(549,1034,cs),
(549,1101,o),
(600,1139,o),
(690,1139,cs),
(800,1139,o),
(878,1078,o),
(928,950,c),
(1223,1090,l),
(1124,1319,o),
(947,1432,o),
(684,1432,cs),
(395,1432,o),
(193,1258,o),
(193,1010,cs),
(193,843,o),
(299,706,o),
(487,629,cs),
(658,559,ls),
(738,526,o),
(771,488,o),
(771,426,cs),
(771,346,o),
(708,295,o),
(610,295,cs),
(489,295,o),
(390,370,o),
(310,524,c),
(24,360,l),
(140,127,o),
(345,0,o),
(606,0,cs)
);
},
{
closed = 1;
nodes = (
(641,-236,l),
(699,96,l),
(707,138,l),
(714,176,l),
(422,176,l),
(415,138,l),
(408,96,l),
(349,-236,l)
);
},
{
closed = 1;
nodes = (
(908,1276,l),
(917,1325,l),
(921,1350,l),
(977,1668,l),
(685,1668,l),
(629,1350,l),
(625,1325,l),
(616,1276,l)
);
}
);
width = 1200;
},
{
associatedMasterId = "00586AEE-0022-45ED-9612-7F804652F2C7";
background = {
shapes = (
{
closed = 1;
nodes = (
(839,0,o),
(1078,172,o),
(1123,424,cs),
(1124,434,ls),
(1160,634,o),
(1071,759,o),
(849,845,cs),
(669,915,ls),
(576,951,o),
(542,981,o),
(551,1035,cs),
(551,1036,ls),
(563,1099,o),
(620,1139,o),
(700,1139,cs),
(797,1139,o),
(847,1089,o),
(856,1000,c),
(1212,1103,l),
(1190,1311,o),
(1040,1432,o),
(790,1432,cs),
(472,1432,o),
(244,1275,o),
(200,1029,cs),
(199,1020,ls),
(167,842,o),
(257,714,o),
(486,626,cs),
(667,557,ls),
(750,525,o),
(785,486,o),
(774,423,cs),
(773,417,ls),
(760,341,o),
(695,295,o),
(601,295,cs),
(483,295,o),
(399,367,o),
(390,509,c),
(37,403,l),
(53,143,o),
(238,0,o),
(525,0,cs)
);
},
{
closed = 1;
nodes = (
(621,-236,l),
(685,128,l),
(704,233,l),
(785,696,l),
(533,696,l),
(452,233,l),
(433,128,l),
(369,-236,l)
);
},
{
closed = 1;
nodes = (
(796,754,l),
(882,1243,l),
(897,1326,l),
(957,1668,l),
(705,1668,l),
(645,1326,l),
(630,1243,l),
(544,754,l)
);
}
);
};
guides = (
{
angle = -22.2367;
pos = (816,837);
},
{
angle = 157.7379;
pos = (463,629);
}
);
layerId = "FE51FD3B-C062-4248-BDD4-279DD9211EF8";
name = "2 Dec 24, 10:45";
shapes = (
{
closed = 1;
nodes = (
(924,0,o),
(1127,178,o),
(1127,456,cs),
(1127,636,o),
(1033,758,o),
(831,841,cs),
(660,911,ls),
(584,942,o),
(549,981,o),
(549,1034,cs),
(549,1101,o),
(600,1139,o),
(690,1139,cs),
(800,1139,o),
(878,1078,o),
(928,950,c),
(1223,1090,l),
(1124,1319,o),
(947,1432,o),
(684,1432,cs),
(395,1432,o),
(193,1258,o),
(193,1010,cs),
(193,843,o),
(299,706,o),
(487,629,cs),
(658,559,ls),
(738,526,o),
(771,488,o),
(771,426,cs),
(771,346,o),
(708,295,o),
(610,295,cs),
(489,295,o),
(390,370,o),
(310,524,c),
(24,360,l),
(140,127,o),
(345,0,o),
(606,0,cs)
);
},
{
closed = 1;
nodes = (
(621,-236,l),
(683,117,l),
(697,199,l),
(793,742,l),
(541,742,l),
(445,197,l),
(432,123,l),
(369,-236,l)
);
},
{
closed = 1;
nodes = (
(790,718,l),
(882,1240,l),
(896,1323,l),
(957,1668,l),
(705,1668,l),
(644,1323,l),
(632,1252,l),
(538,718,l)
);
}
);
width = 1200;
},
{
layerId = m005;
name = "Light Italic";
shapes = (
{
closed = 1;
nodes = (
(796,0,o),
(962,158,o),
(962,397,cs),
(962,574,o),
(878,699,o),
(691,787,cs),
(539,859,ls),
(436,908,o),
(391,970,o),
(391,1064,cs),
(391,1213,o),
(494,1302,o),
(664,1302,cs),
(813,1302,o),
(908,1236,o),
(946,1104,c),
(1080,1143,l),
(1023,1333,o),
(882,1432,o),
(667,1432,cs),
(416,1432,o),
(251,1285,o),
(251,1057,cs),
(251,917,o),
(334,805,o),
(489,732,cs),
(641,660,ls),
(769,599,o),
(822,518,o),
(822,391,cs),
(822,231,o),
(715,130,o),
(544,130,cs),
(344,130,o),
(233,217,o),
(202,399,c),
(64,373,l),
(108,133,o),
(278,0,o),
(544,0,cs)
);
},
{
closed = 1;
nodes = (
(479,-226,l),
(530,61,l),
(529,94,l),
(646,755,l),
(544,751,l),
(428,94,l),
(420,61,l),
(369,-226,l)
);
},
{
closed = 1;
nodes = (
(647,762,l),
(752,1356,l),
(763,1387,l),
(811,1658,l),
(701,1658,l),
(653,1387,l),
(651,1356,l),
(545,758,l)
);
}
);
width = 1092;
},
{
layerId = m007;
shapes = (
{
closed = 1;
nodes = (
(824,0,o),
(999,171,o),
(999,424,cs),
(999,594,o),
(913,710,o),
(726,796,cs),
(570,868,ls),
(471,914,o),
(427,975,o),
(427,1064,cs),
(427,1198,o),
(519,1278,o),
(676,1278,cs),
(821,1278,o),
(915,1210,o),
(956,1073,c),
(1116,1133,l),
(1050,1330,o),
(902,1432,o),
(678,1432,cs),
(417,1432,o),
(247,1282,o),
(247,1053,cs),
(247,906,o),
(334,787,o),
(496,713,cs),
(652,642,ls),
(767,590,o),
(814,520,o),
(814,414,cs),
(814,254,o),
(715,154,o),
(556,154,cs),
(374,154,o),
(266,242,o),
(225,424,c),
(63,371,l),
(121,132,o),
(295,0,o),
(556,0,cs)
);
},
{
closed = 1;
nodes = (
(512,-236,l),
(565,64,l),
(567,99,l),
(683,749,l),
(551,749,l),
(436,99,l),
(423,64,l),
(370,-236,l)
);
},
{
closed = 1;
nodes = (
(683,750,l),
(787,1339,l),
(797,1380,l),
(848,1668,l),
(706,1668,l),
(655,1380,l),
(655,1339,l),
(551,750,l)
);
}
);
width = 1123;
},
{
associatedMasterId = m007;
attr = {
coordinates = (
599,
1
);
};
background = {
shapes = (
{
closed = 1;
nodes = (
(877,0,o),
(1067,174,o),
(1067,439,cs),
(1067,614,o),
(977,734,o),
(780,819,cs),
(617,889,ls),
(529,927,o),
(490,979,o),
(490,1051,cs),
(490,1150,o),
(561,1209,o),
(685,1209,cs),
(812,1209,o),
(898,1144,o),
(943,1012,c),
(1171,1112,l),
(1089,1325,o),
(926,1432,o),
(683,1432,cs),
(408,1432,o),
(222,1271,o),
(222,1033,cs),
(222,875,o),
(318,746,o),
(493,671,cs),
(657,601,ls),
(756,559,o),
(797,503,o),
(797,419,cs),
(797,299,o),
(715,225,o),
(585,225,cs),
(433,225,o),
(329,306,o),
(269,474,c),
(45,366,l),
(132,129,o),
(322,0,o),
(583,0,cs)
);
},
{
closed = 1;
nodes = (
(559,-236,l),
(615,79,l),
(619,137,l),
(722,719,l),
(539,719,l),
(436,137,l),
(420,79,l),
(364,-236,l)
);
},
{
closed = 1;
nodes = (
(732,776,l),
(829,1323,l),
(840,1353,l),
(895,1668,l),
(700,1668,l),
(644,1353,l),
(646,1323,l),
(549,776,l)
);
}
);
};
layerId = "70EAB7FA-37B7-40F0-9624-FB0918E78A42";
name = "{599}";
shapes = (
{
closed = 1;
nodes = (
(877,0,o),
(1067,174,o),
(1067,439,cs),
(1067,614,o),
(976,734,o),
(780,819,cs),
(617,889,ls),
(529,927,o),
(490,979,o),
(490,1051,cs),
(490,1150,o),
(561,1209,o),
(685,1209,cs),
(812,1209,o),
(898,1144,o),
(943,1012,c),
(1171,1112,l),
(1089,1324,o),
(926,1432,o),
(683,1432,cs),
(408,1432,o),
(222,1271,o),
(222,1033,cs),
(222,875,o),
(318,746,o),
(493,671,cs),
(657,601,ls),
(756,558,o),
(797,503,o),
(797,419,cs),
(797,299,o),
(715,225,o),
(585,225,cs),
(433,225,o),
(329,307,o),
(269,474,c),
(45,366,l),
(132,130,o),
(322,0,o),
(583,0,cs)
);
},
{
closed = 1;
nodes = (
(576,-236,l),
(632,79,l),
(627,116,l),
(733,719,l),
(538,719,l),
(432,116,l),
(423,79,l),
(367,-236,l)
);
},
{
closed = 1;
nodes = (
(743,774,l),
(840,1323,l),
(856,1353,l),
(912,1668,l),
(703,1668,l),
(648,1353,l),
(645,1323,l),
(548,774,l)
);
}
);
width = 1171;
},
{
associatedMasterId = m007;
attr = {
coordinates = (
600,
1
);
};
background = {
shapes = (
{
closed = 1;
nodes = (
(877,0,o),
(1067,174,o),
(1067,439,cs),
(1067,614,o),
(977,734,o),
(780,819,cs),
(617,889,ls),
(529,927,o),
(490,979,o),
(490,1051,cs),
(490,1150,o),
(561,1209,o),
(685,1209,cs),
(812,1209,o),
(898,1144,o),
(943,1012,c),
(1171,1112,l),
(1089,1325,o),
(926,1432,o),
(683,1432,cs),
(408,1432,o),
(222,1271,o),
(222,1033,cs),
(222,875,o),
(318,746,o),
(493,671,cs),
(657,601,ls),
(756,559,o),
(797,503,o),
(797,419,cs),
(797,299,o),
(715,225,o),
(585,225,cs),
(433,225,o),
(329,306,o),
(269,474,c),
(45,366,l),
(132,129,o),
(322,0,o),
(583,0,cs)
);
},
{
closed = 1;
nodes = (
(559,-236,l),
(615,79,l),
(620,116,l),
(633,188,l),
(442,188,l),
(429,116,l),
(420,79,l),
(364,-236,l)
);
},
{
closed = 1;
nodes = (
(825,1274,l),
(834,1323,l),
(840,1353,l),
(895,1668,l),
(700,1668,l),
(644,1353,l),
(642,1323,l),
(633,1274,l)
);
}
);
};
layerId = "48C2DCAD-FD26-47D5-AB52-0228A99A870A";
name = "{600}";
shapes = (
{
closed = 1;
nodes = (
(877,0,o),
(1067,174,o),
(1067,439,cs),
(1067,614,o),
(976,734,o),
(780,819,cs),
(617,889,ls),
(529,927,o),
(490,979,o),
(490,1051,cs),
(490,1150,o),
(561,1209,o),
(685,1209,cs),
(812,1209,o),
(898,1144,o),
(943,1012,c),
(1171,1112,l),
(1089,1324,o),
(926,1432,o),
(683,1432,cs),
(408,1432,o),
(222,1271,o),
(222,1033,cs),
(222,875,o),
(318,746,o),
(493,671,cs),
(657,601,ls),
(756,558,o),
(797,503,o),
(797,419,cs),
(797,299,o),
(715,225,o),
(585,225,cs),
(433,225,o),
(329,307,o),
(269,474,c),
(45,366,l),
(132,130,o),
(322,0,o),
(583,0,cs)
);
},
{
closed = 1;
nodes = (
(576,-236,l),
(632,79,l),
(637,116,l),
(651,195,l),
(446,195,l),
(432,116,l),
(423,79,l),
(367,-236,l)
);
},
{
closed = 1;
nodes = (
(837,1249,l),
(850,1323,l),
(856,1353,l),
(912,1668,l),
(703,1668,l),
(648,1353,l),
(645,1323,l),
(632,1249,l)
);
}
);
width = 1171;
},
{
layerId = m008;
name = "Bold Italic";
shapes = (
{
closed = 1;
nodes = (
(904,0,o),
(1101,175,o),
(1101,446,cs),
(1101,624,o),
(1009,745,o),
(807,830,cs),
(640,900,ls),
(558,934,o),
(521,981,o),
(521,1044,cs),
(521,1126,o),
(582,1174,o),
(689,1174,cs),
(808,1174,o),
(890,1111,o),
(937,981,c),
(1199,1101,l),
(1108,1322,o),
(938,1432,o),
(685,1432,cs),
(403,1432,o),
(209,1265,o),
(209,1023,cs),
(209,860,o),
(310,726,o),
(492,650,cs),
(659,580,ls),
(750,542,o),
(789,495,o),
(789,421,cs),
(789,322,o),
(715,260,o),
(599,260,cs),
(463,260,o),
(361,338,o),
(291,499,c),
(36,363,l),
(138,128,o),
(335,0,o),
(596,0,cs)
);
},
{
closed = 1;
nodes = (
(608,-236,l),
(665,86,l),
(672,125,l),
(679,165,l),
(437,165,l),
(430,125,l),
(423,86,l),
(366,-236,l)
);
},
{
closed = 1;
nodes = (
(875,1278,l),
(882,1315,l),
(886,1340,l),
(944,1668,l),
(702,1668,l),
(644,1340,l),
(640,1315,l),
(633,1278,l)
);
}
);
width = 1195;
},
{
layerId = m009;
name = "ExtraBold Italic";
shapes = (
{
closed = 1;
nodes = (
(911,0,o),
(1114,178,o),
(1114,456,cs),
(1114,636,o),
(1020,758,o),
(818,841,cs),
(647,911,ls),
(571,942,o),
(536,981,o),
(536,1034,cs),
(536,1101,o),
(587,1139,o),
(677,1139,cs),
(787,1139,o),
(865,1078,o),
(915,950,c),
(1210,1090,l),
(1111,1319,o),
(934,1432,o),
(671,1432,cs),
(382,1432,o),
(180,1258,o),
(180,1010,cs),
(180,843,o),
(286,706,o),
(474,629,cs),
(645,559,ls),
(725,526,o),
(758,488,o),
(758,426,cs),
(758,346,o),
(695,295,o),
(597,295,cs),
(476,295,o),
(377,370,o),
(297,524,c),
(11,360,l),
(127,127,o),
(332,0,o),
(593,0,cs)
);
},
{
closed = 1;
nodes = (
(628,-236,l),
(686,96,l),
(694,138,l),
(701,176,l),
(409,176,l),
(402,138,l),
(395,96,l),
(336,-236,l)
);
},
{
closed = 1;
nodes = (
(895,1276,l),
(904,1325,l),
(908,1350,l),
(964,1668,l),
(672,1668,l),
(616,1350,l),
(612,1325,l),
(603,1276,l)
);
}
);
width = 1185;
}
);
unicode = 36;
}
{
glyphname = percent;
layers = (
{
layerId = m006;
shapes = (
{
closed = 1;
nodes = (
(1253,1027,l),
(1168,1162,l),
(9,403,l),
(94,268,l)
);
},
{
closed = 1;
nodes = (
(1000,-32,o),
(1127,133,o),
(1127,312,cs),
(1127,475,o),
(1013,595,o),
(847,595,cs),
(652,595,o),
(525,431,o),
(525,251,cs),
(525,88,o),
(639,-32,o),
(805,-32,cs)
);
},
{
closed = 1;
nodes = (
(730,115,o),
(680,173,o),
(680,261,cs),
(680,364,o),
(739,448,o),
(840,448,cs),
(920,448,o),
(972,390,o),
(972,303,cs),
(972,200,o),
(912,115,o),
(812,115,cs)
);
},
{
closed = 1;
nodes = (
(617,837,o),
(744,1002,o),
(744,1181,cs),
(744,1344,o),
(630,1464,o),
(464,1464,cs),
(270,1464,o),
(142,1300,o),
(142,1120,cs),
(142,957,o),
(257,837,o),
(423,837,cs)
);
},
{
closed = 1;
nodes = (
(347,984,o),
(297,1042,o),
(297,1130,cs),
(297,1233,o),
(357,1317,o),
(457,1317,cs),
(537,1317,o),
(589,1259,o),
(589,1172,cs),
(589,1069,o),
(529,984,o),
(429,984,cs)
);
}
);
width = 1200;
},
{
layerId = "90828D4A-10F7-4870-818F-40FC947ECC22";
shapes = (
{
closed = 1;
nodes = (
(1267,969,l),
(1154,1157,l),
(0,462,l),
(113,275,l)
);
},
{
closed = 1;
nodes = (
(995,-34,o),
(1138,123,o),
(1138,321,cs),
(1138,493,o),
(1017,613,o),
(839,613,cs),
(641,613,o),
(497,457,o),
(497,258,cs),
(497,86,o),
(619,-34,o),
(797,-34,cs)
);
},
{
closed = 1;
nodes = (
(739,151,o),
(697,197,o),
(697,271,cs),
(697,359,o),
(752,428,o),
(830,428,cs),
(896,428,o),
(938,382,o),
(938,308,cs),
(938,220,o),
(884,151,o),
(806,151,cs)
);
},
{
closed = 1;
nodes = (
(628,820,o),
(771,977,o),
(771,1175,cs),
(771,1347,o),
(650,1467,o),
(472,1467,cs),
(274,1467,o),
(130,1311,o),
(130,1112,cs),
(130,940,o),
(252,820,o),
(430,820,cs)
);
},
{
closed = 1;
nodes = (
(372,1005,o),
(330,1051,o),
(330,1125,cs),
(330,1213,o),
(385,1282,o),
(462,1282,cs),
(529,1282,o),
(571,1236,o),
(571,1162,cs),
(571,1074,o),
(516,1005,o),
(439,1005,cs)
);
}
);
width = 1200;
},
{
associatedMasterId = m006;
layerId = "D879CCAD-384E-49A5-A36B-16FC8E166938";
name = "18 Mar 24, 20:54";
shapes = (
{
closed = 1;
nodes = (
(595,605,l),
(1165,1231,l),
(1043,1334,l),
(606,828,l),
(35,202,l),
(157,99,l)
);
},
{
closed = 1;
nodes = (
(1036,-32,o),
(1166,102,o),
(1166,277,cs),
(1166,285,ls),
(1166,460,o),
(1036,595,o),
(868,595,cs),
(700,595,o),
(570,460,o),
(570,285,cs),
(570,277,ls),
(570,102,o),
(700,-32,o),
(868,-32,cs)
);
},
{
closed = 1;
nodes = (
(783,112,o),
(724,181,o),
(724,279,cs),
(724,283,ls),
(724,382,o),
(784,451,o),
(868,451,cs),
(952,451,o),
(1012,382,o),
(1012,283,cs),
(1012,279,ls),
(1012,181,o),
(953,112,o),
(868,112,cs)
);
},
{
closed = 1;
nodes = (
(502,811,o),
(630,948,o),
(630,1131,cs),
(630,1139,ls),
(630,1321,o),
(501,1458,o),
(332,1458,cs),
(162,1458,o),
(34,1321,o),
(34,1139,cs),
(34,1131,ls),
(34,948,o),
(162,811,o),
(332,811,cs)
);
},
{
closed = 1;
nodes = (
(248,955,o),
(188,1027,o),
(188,1130,cs),
(188,1139,ls),
(188,1243,o),
(247,1314,o),
(332,1314,cs),
(417,1314,o),
(477,1243,o),
(477,1139,cs),
(477,1130,ls),
(477,1027,o),
(416,955,o),
(332,955,cs)
);
}
);
width = 1200;
},
{
associatedMasterId = "90828D4A-10F7-4870-818F-40FC947ECC22";
layerId = "5733585F-E0CC-4E05-9449-64C20EBFAB44";
name = "18 Mar 24, 20:57";
shapes = (
{
closed = 1;
nodes = (
(572,584,l),
(1175,1185,l),
(988,1346,l),
(631,849,l),
(25,248,l),
(213,86,l)
);
},
{
closed = 1;
nodes = (
(1043,-28,o),
(1170,117,o),
(1170,311,cs),
(1170,319,ls),
(1170,514,o),
(1043,658,o),
(852,658,cs),
(660,658,o),
(533,514,o),
(533,319,cs),
(533,311,ls),
(533,117,o),
(660,-28,o),
(852,-28,cs)
);
},
{
closed = 1;
nodes = (
(780,159,o),
(733,216,o),
(733,301,cs),
(733,329,ls),
(733,414,o),
(780,471,o),
(852,471,cs),
(923,471,o),
(970,414,o),
(970,329,cs),
(970,301,ls),
(970,216,o),
(923,159,o),
(852,159,cs)
);
},
{
closed = 1;
nodes = (
(539,774,o),
(666,919,o),
(666,1113,cs),
(666,1121,ls),
(666,1316,o),
(539,1460,o),
(347,1460,cs),
(156,1460,o),
(29,1316,o),
(29,1121,cs),
(29,1113,ls),
(29,919,o),
(156,774,o),
(347,774,cs)
);
},
{
closed = 1;
nodes = (
(277,961,o),
(228,1019,o),
(228,1103,cs),
(228,1131,ls),
(228,1215,o),
(277,1273,o),
(347,1273,cs),
(418,1273,o),
(466,1215,o),
(466,1131,cs),
(466,1103,ls),
(466,1019,o),
(418,961,o),
(347,961,cs)
);
}
);
width = 1200;
},
{
background = {
shapes = (
{
closed = 1;
nodes = (
(1260,1058,l),
(1190,1170,l),
(8,373,l),
(80,262,l)
);
},
{
closed = 1;
nodes = (
(936,-31,o),
(1091,102,o),
(1121,274,cs),
(1122,282,ls),
(1153,455,o),
(1046,589,o),
(885,589,cs),
(725,589,o),
(570,455,o),
(539,282,cs),
(538,274,ls),
(508,102,o),
(615,-31,o),
(775,-31,cs)
);
},
{
closed = 1;
nodes = (
(710,104,o),
(660,175,o),
(677,276,cs),
(678,280,ls),
(696,381,o),
(773,454,o),
(861,454,cs),
(950,454,o),
(1001,381,o),
(983,280,cs),
(982,276,ls),
(965,175,o),
(889,104,o),
(799,104,cs)
);
},
{
closed = 1;
nodes = (
(543,843,o),
(698,976,o),
(728,1148,cs),
(730,1156,ls),
(760,1329,o),
(653,1463,o),
(492,1463,cs),
(332,1463,o),
(177,1329,o),
(147,1156,cs),
(145,1148,ls),
(115,976,o),
(222,843,o),
(382,843,cs)
);
},
{
closed = 1;
nodes = (
(317,978,o),
(267,1049,o),
(285,1150,cs),
(285,1154,ls),
(303,1255,o),
(379,1328,o),
(468,1328,cs),
(558,1328,o),
(608,1255,o),
(590,1154,cs),
(590,1150,ls),
(572,1049,o),
(496,978,o),
(406,978,cs)
);
}
);
};
layerId = "87470510-D880-4621-BF85-70AEEA552FBA";
shapes = (
{
closed = 1;
nodes = (
(1248,1046,l),
(1172,1163,l),
(14,383,l),
(90,266,l)
);
},
{
closed = 1;
nodes = (
(1001,-31,o),
(1123,136,o),
(1123,309,cs),
(1123,469,o),
(1011,589,o),
(849,589,cs),
(656,589,o),
(534,422,o),
(534,249,cs),
(534,89,o),
(646,-31,o),
(808,-31,cs)
);
},
{
closed = 1;
nodes = (
(727,103,o),
(674,165,o),
(674,257,cs),
(674,365,o),
(735,455,o),
(843,455,cs),
(928,455,o),
(983,393,o),
(983,301,cs),
(983,193,o),
(921,103,o),
(814,103,cs)
);
},
{
closed = 1;
nodes = (
(613,843,o),
(735,1010,o),
(735,1183,cs),
(735,1343,o),
(623,1463,o),
(461,1463,cs),
(268,1463,o),
(146,1296,o),
(146,1123,cs),
(146,963,o),
(258,843,o),
(420,843,cs)
);
},
{
closed = 1;
nodes = (
(339,977,o),
(286,1039,o),
(286,1131,cs),
(286,1239,o),
(347,1329,o),
(455,1329,cs),
(540,1329,o),
(595,1267,o),
(595,1175,cs),
(595,1067,o),
(533,977,o),
(426,977,cs)
);
}
);
width = 1200;
},
{
background = {
shapes = (
{
closed = 1;
nodes = (
(1283,1012,l),
(1163,1211,l),
(-16,422,l),
(103,222,l)
);
},
{
closed = 1;
nodes = (
(947,-35,o),
(1097,103,o),
(1130,288,cs),
(1131,296,ls),
(1164,481,o),
(1062,618,o),
(864,618,cs),
(664,618,o),
(514,481,o),
(481,296,cs),
(480,288,ls),
(447,103,o),
(549,-35,o),
(749,-35,cs)
);
},
{
closed = 1;
nodes = (
(716,164,o),
(681,214,o),
(695,290,cs),
(696,294,ls),
(709,370,o),
(761,419,o),
(829,419,cs),
(895,419,o),
(929,370,o),
(916,294,cs),
(915,290,ls),
(901,214,o),
(850,164,o),
(784,164,cs)
);
},
{
closed = 1;
nodes = (
(604,814,o),
(755,952,o),
(787,1137,cs),
(789,1145,ls),
(821,1330,o),
(719,1467,o),
(521,1467,cs),
(321,1467,o),
(171,1330,o),
(139,1145,cs),
(137,1137,ls),
(105,952,o),
(206,814,o),
(406,814,cs)
);
},
{
closed = 1;
nodes = (
(373,1013,o),
(339,1063,o),
(353,1139,cs),
(353,1143,ls),
(367,1219,o),
(418,1268,o),
(486,1268,cs),
(552,1268,o),
(587,1219,o),
(573,1143,cs),
(573,1139,ls),
(559,1063,o),
(507,1013,o),
(441,1013,cs)
);
}
);
};
layerId = "00586AEE-0022-45ED-9612-7F804652F2C7";
shapes = (
{
closed = 1;
nodes = (
(1271,950,l),
(1149,1155,l),
(-4,482,l),
(118,277,l)
);
},
{
closed = 1;
nodes = (
(993,-35,o),
(1142,119,o),
(1142,324,cs),
(1142,499,o),
(1018,619,o),
(836,619,cs),
(637,619,o),
(488,465,o),
(488,260,cs),
(488,85,o),
(612,-35,o),
(794,-35,cs)
);
},
{
closed = 1;
nodes = (
(742,163,o),
(703,205,o),
(703,274,cs),
(703,357,o),
(756,421,o),
(826,421,cs),
(888,421,o),
(927,379,o),
(927,310,cs),
(927,227,o),
(874,163,o),
(804,163,cs)
);
},
{
closed = 1;
nodes = (
(631,814,o),
(780,968,o),
(780,1173,cs),
(780,1348,o),
(656,1468,o),
(474,1468,cs),
(275,1468,o),
(126,1314,o),
(126,1109,cs),
(126,934,o),
(250,814,o),
(432,814,cs)
);
},
{
closed = 1;
nodes = (
(380,1012,o),
(341,1054,o),
(341,1123,cs),
(341,1206,o),
(394,1270,o),
(464,1270,cs),
(526,1270,o),
(565,1228,o),
(565,1159,cs),
(565,1076,o),
(512,1012,o),
(442,1012,cs)
);
}
);
width = 1200;
},
{
associatedMasterId = "87470510-D880-4621-BF85-70AEEA552FBA";
background = {
shapes = (
{
closed = 1;
nodes = (
(1260,1058,l),
(1190,1170,l),
(8,373,l),
(80,262,l)
);
},
{
closed = 1;
nodes = (
(936,-31,o),
(1091,102,o),
(1121,274,cs),
(1122,282,ls),
(1153,455,o),
(1046,589,o),
(885,589,cs),
(725,589,o),
(570,455,o),
(539,282,cs),
(538,274,ls),
(508,102,o),
(615,-31,o),
(775,-31,cs)
);
},
{
closed = 1;
nodes = (
(710,104,o),
(660,175,o),
(677,276,cs),
(678,280,ls),
(696,381,o),
(773,454,o),
(861,454,cs),
(950,454,o),
(1001,381,o),
(983,280,cs),
(982,276,ls),
(965,175,o),
(889,104,o),
(799,104,cs)
);
},
{
closed = 1;
nodes = (
(543,843,o),
(698,976,o),
(728,1148,cs),
(730,1156,ls),
(760,1329,o),
(653,1463,o),
(492,1463,cs),
(332,1463,o),
(177,1329,o),
(147,1156,cs),
(145,1148,ls),
(115,976,o),
(222,843,o),
(382,843,cs)
);
},
{
closed = 1;
nodes = (
(317,978,o),
(267,1049,o),
(285,1150,cs),
(285,1154,ls),
(303,1255,o),
(379,1328,o),
(468,1328,cs),
(558,1328,o),
(608,1255,o),
(590,1154,cs),
(590,1150,ls),
(572,1049,o),
(496,978,o),
(406,978,cs)
);
}
);
};
layerId = "41A5A5B9-63BC-4125-BF81-C6D1FBB78D03";
name = "30 Sep 24, 00:26";
shapes = (
{
closed = 1;
nodes = (
(1260,1058,l),
(1190,1170,l),
(8,373,l),
(80,262,l)
);
},
{
closed = 1;
nodes = (
(1034,-31,o),
(1165,102,o),
(1165,274,cs),
(1165,282,ls),
(1165,455,o),
(1034,589,o),
(873,589,cs),
(713,589,o),
(582,455,o),
(582,282,cs),
(582,274,ls),
(582,102,o),
(713,-31,o),
(873,-31,cs)
);
},
{
closed = 1;
nodes = (
(784,104,o),
(721,175,o),
(721,276,cs),
(721,280,ls),
(721,381,o),
(785,454,o),
(873,454,cs),
(962,454,o),
(1026,381,o),
(1026,280,cs),
(1026,276,ls),
(1026,175,o),
(963,104,o),
(873,104,cs)
);
},
{
closed = 1;
nodes = (
(570,843,o),
(707,958,o),
(726,1113,cs),
(727,1121,ls),
(730,1141,o),
(731,1160,o),
(731,1179,cs),
(731,1339,o),
(621,1463,o),
(465,1463,cs),
(305,1463,o),
(168,1346,o),
(149,1191,cs),
(148,1183,ls),
(146,1164,o),
(144,1145,o),
(144,1126,cs),
(144,966,o),
(254,843,o),
(410,843,cs)
);
},
{
closed = 1;
nodes = (
(337,978,o),
(282,1043,o),
(282,1135,cs),
(282,1147,o),
(283,1161,o),
(285,1173,cs),
(287,1185,ls),
(302,1273,o),
(363,1328,o),
(453,1328,cs),
(538,1328,o),
(593,1263,o),
(593,1171,cs),
(593,1158,o),
(592,1146,o),
(589,1132,cs),
(588,1127,ls),
(571,1040,o),
(512,978,o),
(422,978,cs)
);
}
);
width = 1200;
}
);
unicode = 37;
}
{
glyphname = ampersand;
kernLeft = ampersand_left;
kernRight = ampersand_right;
layers = (
{
background = {
shapes = (
{
closed = 1;
nodes = (
(1103,74,l),
(554,797,ls),
(449,934,o),
(419,1015,o),
(434,1099,cs),
(436,1109,ls),
(455,1219,o),
(543,1288,o),
(663,1288,cs),
(776,1288,o),
(840,1234,o),
(885,1100,c),
(1062,1186,l),
(998,1380,o),
(887,1464,o),
(698,1464,cs),
(469,1464,o),
(285,1319,o),
(248,1111,cs),
(248,1109,ls),
(224,976,o),
(263,866,o),
(410,670,cs),
(954,-50,l)
);
},
{
closed = 1;
nodes = (
(680,-32,o),
(945,253,o),
(1148,794,c),
(972,826,l),
(791,328,o),
(640,140,o),
(421,140,cs),
(262,140,o),
(185,230,o),
(212,383,cs),
(217,411,ls),
(244,568,o),
(343,669,o),
(518,720,c),
(427,843,l),
(197,755,o),
(66,609,o),
(29,398,cs),
(25,380,ls),
(-18,134,o),
(125,-32,o),
(380,-32,cs)
);
}
);
};
layerId = m006;
shapes = (
{
closed = 1;
nodes = (
(1100,59,l),
(557,791,ls),
(466,914,o),
(431,991,o),
(431,1077,cs),
(431,1205,o),
(518,1288,o),
(653,1288,cs),
(771,1288,o),
(845,1226,o),
(881,1097,c),
(1059,1150,l),
(1004,1354,o),
(863,1463,o),
(656,1463,cs),
(408,1463,o),
(243,1309,o),
(243,1084,cs),
(243,958,o),
(290,847,o),
(415,678,cs),
(953,-50,l)
);
},
{
closed = 1;
nodes = (
(744,-31,o),
(978,238,o),
(1139,780,c),
(954,830,l),
(818,340,o),
(685,141,o),
(460,141,cs),
(308,141,o),
(217,232,o),
(217,383,cs),
(217,554,o),
(303,660,o),
(496,709,c),
(439,843,l),
(170,776,o),
(31,609,o),
(31,368,cs),
(31,134,o),
(205,-31,o),
(453,-31,cs)
);
}
);
width = 1200;
},
{
layerId = "90828D4A-10F7-4870-818F-40FC947ECC22";
name = "opsz6-wdth25-wght400-Ital0-Rond0-Grad0";
shapes = (
{
closed = 1;
nodes = (
(1120,109,l),
(593,855,ls),
(538,932,o),
(515,987,o),
(515,1046,cs),
(515,1131,o),
(573,1187,o),
(660,1187,cs),
(745,1187,o),
(795,1138,o),
(811,1037,c),
(1089,1082,l),
(1054,1331,o),
(900,1466,o),
(655,1466,cs),
(391,1466,o),
(213,1302,o),
(213,1060,cs),
(213,940,o),
(262,835,o),
(367,685,cs),
(884,-58,l)
);
},
{
closed = 1;
nodes = (
(764,-34,o),
(1039,288,o),
(1170,803,c),
(883,863,l),
(802,410,o),
(710,234,o),
(504,234,cs),
(384,234,o),
(310,306,o),
(310,422,cs),
(310,553,o),
(373,632,o),
(509,671,c),
(449,856,l),
(162,792,o),
(10,630,o),
(10,385,cs),
(10,139,o),
(193,-34,o),
(455,-34,cs)
);
}
);
width = 1200;
},
{
background = {
shapes = (
{
closed = 1;
nodes = (
(1093,53,l),
(542,776,ls),
(421,934,o),
(389,1016,o),
(406,1108,cs),
(408,1119,ls),
(430,1245,o),
(529,1322,o),
(659,1322,cs),
(783,1322,o),
(854,1265,o),
(909,1120,c),
(1052,1208,l),
(975,1390,o),
(872,1462,o),
(693,1462,cs),
(474,1462,o),
(293,1318,o),
(256,1112,cs),
(256,1110,ls),
(232,975,o),
(280,860,o),
(426,669,cs),
(973,-48,l)
);
},
{
closed = 1;
nodes = (
(673,-30,o),
(924,246,o),
(1134,785,c),
(991,815,l),
(793,309,o),
(633,110,o),
(403,110,cs),
(232,110,o),
(151,210,o),
(181,378,cs),
(186,409,ls),
(216,577,o),
(327,683,o),
(521,736,c),
(429,841,l),
(212,757,o),
(75,616,o),
(37,402,cs),
(34,384,ls),
(-9,141,o),
(120,-30,o),
(376,-30,cs)
);
}
);
};
layerId = "87470510-D880-4621-BF85-70AEEA552FBA";
shapes = (
{
closed = 1;
nodes = (
(1091,42,l),
(545,769,ls),
(441,907,o),
(403,992,o),
(403,1087,cs),
(403,1229,o),
(502,1322,o),
(652,1322,cs),
(779,1322,o),
(862,1255,o),
(904,1117,c),
(1049,1172,l),
(987,1361,o),
(851,1462,o),
(658,1462,cs),
(417,1462,o),
(253,1312,o),
(253,1090,cs),
(253,960,o),
(300,850,o),
(431,675,cs),
(974,-48,l)
);
},
{
closed = 1;
nodes = (
(741,-30,o),
(958,227,o),
(1129,772,c),
(978,819,l),
(826,305,o),
(683,110,o),
(458,110,cs),
(289,110,o),
(187,209,o),
(187,373,cs),
(187,555,o),
(284,667,o),
(491,724,c),
(435,838,l),
(177,768,o),
(39,603,o),
(39,365,cs),
(39,133,o),
(210,-30,o),
(454,-30,cs)
);
}
);
width = 1200;
},
{
background = {
shapes = (
{
closed = 1;
nodes = (
(1134,155,l),
(600,881,ls),
(553,946,o),
(535,996,o),
(543,1042,cs),
(544,1047,ls),
(555,1111,o),
(606,1153,o),
(675,1153,cs),
(745,1153,o),
(781,1110,o),
(787,1017,c),
(1103,1099,l),
(1083,1338,o),
(947,1467,o),
(716,1467,cs),
(454,1467,o),
(251,1313,o),
(210,1084,cs),
(210,1082,ls),
(187,951,o),
(226,838,o),
(343,673,cs),
(866,-61,l)
);
},
{
closed = 1;
nodes = (
(717,-35,o),
(1030,284,o),
(1202,829,c),
(892,870,l),
(781,410,o),
(673,265,o),
(495,265,cs),
(377,265,o),
(322,334,o),
(343,453,cs),
(346,468,ls),
(362,562,o),
(414,622,o),
(507,657,c),
(420,850,l),
(188,773,o),
(36,627,o),
(-2,413,cs),
(-5,395,ls),
(-50,142,o),
(125,-35,o),
(402,-35,cs)
);
}
);
};
layerId = "00586AEE-0022-45ED-9612-7F804652F2C7";
shapes = (
{
closed = 1;
nodes = (
(1129,125,l),
(605,876,ls),
(561,938,o),
(543,985,o),
(543,1035,cs),
(543,1106,o),
(591,1153,o),
(662,1153,cs),
(736,1153,o),
(778,1108,o),
(787,1017,c),
(1099,1059,l),
(1070,1323,o),
(911,1467,o),
(651,1467,cs),
(383,1467,o),
(203,1308,o),
(203,1070,cs),
(203,956,o),
(249,836,o),
(351,687,cs),
(864,-61,l)
);
},
{
closed = 1;
nodes = (
(789,-35,o),
(1059,281,o),
(1180,811,c),
(859,874,l),
(796,436,o),
(700,265,o),
(515,265,cs),
(408,265,o),
(340,330,o),
(340,434,cs),
(340,552,o),
(395,623,o),
(513,657,c),
(452,860,l),
(156,797,o),
(2,636,o),
(2,390,cs),
(2,140,o),
(189,-35,o),
(455,-35,cs)
);
}
);
width = 1200;
},
{
associatedMasterId = "87470510-D880-4621-BF85-70AEEA552FBA";
background = {
shapes = (
{
closed = 1;
nodes = (
(1093,53,l),
(542,776,ls),
(421,934,o),
(389,1016,o),
(406,1108,cs),
(408,1119,ls),
(430,1245,o),
(529,1322,o),
(659,1322,cs),
(783,1322,o),
(854,1265,o),
(909,1120,c),
(1052,1208,l),
(975,1390,o),
(872,1462,o),
(693,1462,cs),
(474,1462,o),
(293,1318,o),
(256,1112,cs),
(256,1110,ls),
(232,975,o),
(280,860,o),
(426,669,cs),
(973,-48,l)
);
},
{
closed = 1;
nodes = (
(673,-30,o),
(924,246,o),
(1134,785,c),
(991,815,l),
(793,309,o),
(633,110,o),
(403,110,cs),
(232,110,o),
(151,210,o),
(181,378,cs),
(186,409,ls),
(216,577,o),
(327,683,o),
(521,736,c),
(429,841,l),
(212,757,o),
(75,616,o),
(37,402,cs),
(34,384,ls),
(-9,141,o),
(120,-30,o),
(376,-30,cs)
);
}
);
};
layerId = "81B5B92E-190C-47D7-89B7-A42FD19E5644";
name = "20 Oct 24, 09:23";
shapes = (
{
closed = 1;
nodes = (
(1092,44,l),
(543,771,ls),
(442,904,o),
(403,993,o),
(403,1090,cs),
(403,1112,o),
(404,1127,o),
(407,1141,cs),
(409,1152,ls),
(427,1251,o),
(523,1322,o),
(640,1322,cs),
(776,1322,o),
(859,1257,o),
(904,1117,c),
(1049,1172,l),
(985,1363,o),
(848,1462,o),
(648,1462,cs),
(414,1462,o),
(253,1306,o),
(253,1079,cs),
(253,954,o),
(300,849,o),
(433,673,cs),
(977,-48,l)
);
},
{
closed = 1;
nodes = (
(730,-30,o),
(953,228,o),
(1129,772,c),
(978,819,l),
(820,308,o),
(668,110,o),
(434,110,cs),
(276,110,o),
(182,200,o),
(182,352,cs),
(182,371,o),
(184,392,o),
(188,415,cs),
(193,443,ls),
(222,603,o),
(325,700,o),
(491,724,c),
(435,838,l),
(220,793,o),
(81,658,o),
(46,457,cs),
(42,434,ls),
(36,400,o),
(34,373,o),
(34,344,cs),
(34,125,o),
(200,-30,o),
(434,-30,cs)
);
}
);
width = 1200;
},
{
associatedMasterId = m006;
background = {
shapes = (
{
closed = 1;
nodes = (
(1103,74,l),
(554,797,ls),
(449,934,o),
(419,1015,o),
(434,1099,cs),
(436,1109,ls),
(455,1219,o),
(543,1288,o),
(663,1288,cs),
(776,1288,o),
(840,1234,o),
(885,1100,c),
(1062,1186,l),
(998,1380,o),
(887,1464,o),
(698,1464,cs),
(469,1464,o),
(285,1319,o),
(248,1111,cs),
(248,1109,ls),
(224,976,o),
(263,866,o),
(410,670,cs),
(954,-50,l)
);
},
{
closed = 1;
nodes = (
(680,-32,o),
(945,253,o),
(1148,794,c),
(972,826,l),
(791,328,o),
(640,140,o),
(421,140,cs),
(262,140,o),
(185,230,o),
(212,383,cs),
(217,411,ls),
(244,568,o),
(343,669,o),
(518,720,c),
(427,843,l),
(197,755,o),
(66,609,o),
(29,398,cs),
(25,380,ls),
(-18,134,o),
(125,-32,o),
(380,-32,cs)
);
}
);
};
layerId = "F047B337-ED3D-434A-A6E6-54C9729D6E31";
name = "20 Oct 24, 09:23";
shapes = (
{
closed = 1;
nodes = (
(1100,60,l),
(556,792,ls),
(467,912,o),
(431,991,o),
(431,1077,cs),
(431,1094,o),
(432,1108,o),
(435,1125,cs),
(437,1136,ls),
(453,1226,o),
(540,1288,o),
(645,1288,cs),
(768,1288,o),
(843,1227,o),
(881,1097,c),
(1059,1150,l),
(1003,1356,o),
(863,1463,o),
(652,1463,cs),
(410,1463,o),
(243,1303,o),
(243,1072,cs),
(243,952,o),
(289,848,o),
(417,676,cs),
(955,-50,l)
);
},
{
closed = 1;
nodes = (
(742,-31,o),
(975,240,o),
(1139,780,c),
(954,830,l),
(816,336,o),
(674,141,o),
(452,141,cs),
(304,141,o),
(215,226,o),
(215,369,cs),
(215,388,o),
(216,408,o),
(220,430,cs),
(224,453,ls),
(249,598,o),
(343,687,o),
(496,711,c),
(439,843,l),
(221,801,o),
(77,667,o),
(40,464,cs),
(36,442,ls),
(30,409,o),
(28,383,o),
(28,355,cs),
(28,126,o),
(199,-31,o),
(441,-31,cs)
);
}
);
width = 1200;
},
{
associatedMasterId = "90828D4A-10F7-4870-818F-40FC947ECC22";
layerId = "0B32D644-AD55-4FDB-90DE-3A9372F06B80";
name = "20 Oct 24, 09:23";
shapes = (
{
closed = 1;
nodes = (
(1120,109,l),
(593,855,ls),
(538,933,o),
(515,984,o),
(515,1039,cs),
(515,1054,o),
(517,1066,o),
(519,1077,cs),
(521,1086,ls),
(534,1146,o),
(590,1187,o),
(658,1187,cs),
(745,1187,o),
(794,1138,o),
(811,1037,c),
(1089,1082,l),
(1055,1333,o),
(907,1466,o),
(663,1466,cs),
(397,1466,o),
(213,1297,o),
(213,1050,cs),
(213,945,o),
(255,847,o),
(368,684,cs),
(885,-58,l)
);
},
{
closed = 1;
nodes = (
(765,-34,o),
(1037,277,o),
(1170,803,c),
(883,863,l),
(806,411,o),
(705,234,o),
(511,234,cs),
(386,234,o),
(309,301,o),
(309,410,cs),
(309,428,o),
(310,445,o),
(313,463,cs),
(316,480,ls),
(334,582,o),
(398,646,o),
(509,671,c),
(449,856,l),
(193,804,o),
(52,672,o),
(17,474,cs),
(14,457,ls),
(9,428,o),
(7,400,o),
(7,371,cs),
(7,134,o),
(184,-34,o),
(441,-34,cs)
);
}
);
width = 1200;
},
{
associatedMasterId = "00586AEE-0022-45ED-9612-7F804652F2C7";
background = {
shapes = (
{
closed = 1;
nodes = (
(1134,155,l),
(600,881,ls),
(553,946,o),
(535,996,o),
(543,1042,cs),
(544,1047,ls),
(555,1111,o),
(606,1153,o),
(675,1153,cs),
(745,1153,o),
(781,1110,o),
(787,1017,c),
(1103,1099,l),
(1083,1338,o),
(947,1467,o),
(716,1467,cs),
(454,1467,o),
(251,1313,o),
(210,1084,cs),
(210,1082,ls),
(187,951,o),
(226,838,o),
(343,673,cs),
(866,-61,l)
);
},
{
closed = 1;
nodes = (
(717,-35,o),
(1030,284,o),
(1202,829,c),
(892,870,l),
(781,410,o),
(673,265,o),
(495,265,cs),
(377,265,o),
(322,334,o),
(343,453,cs),
(346,468,ls),
(362,562,o),
(414,622,o),
(507,657,c),
(420,850,l),
(188,773,o),
(36,627,o),
(-2,413,cs),
(-5,395,ls),
(-50,142,o),
(125,-35,o),
(402,-35,cs)
);
}
);
};
layerId = "136552C6-32BC-46B5-8B51-F6DB0130B29D";
name = "20 Oct 24, 09:23";
shapes = (
{
closed = 1;
nodes = (
(1129,125,l),
(605,876,ls),
(561,939,o),
(543,982,o),
(543,1026,cs),
(543,1039,o),
(544,1050,o),
(547,1061,cs),
(549,1069,ls),
(562,1120,o),
(607,1153,o),
(662,1153,cs),
(737,1153,o),
(778,1108,o),
(787,1017,c),
(1099,1059,l),
(1072,1325,o),
(921,1467,o),
(666,1467,cs),
(392,1467,o),
(203,1294,o),
(203,1043,cs),
(203,943,o),
(245,841,o),
(351,687,cs),
(864,-61,l)
);
},
{
closed = 1;
nodes = (
(790,-35,o),
(1063,289,o),
(1180,811,c),
(859,874,l),
(799,449,o),
(698,265,o),
(523,265,cs),
(411,265,o),
(340,331,o),
(340,437,cs),
(340,455,o),
(341,471,o),
(344,487,cs),
(347,504,ls),
(361,582,o),
(415,632,o),
(513,657,c),
(452,860,l),
(190,805,o),
(46,684,o),
(12,492,cs),
(9,475,ls),
(4,450,o),
(2,424,o),
(2,397,cs),
(2,142,o),
(193,-35,o),
(467,-35,cs)
);
}
);
width = 1200;
},
{
layerId = m005;
shapes = (
{
closed = 1;
nodes = (
(1143,42,l),
(597,769,ls),
(493,907,o),
(455,992,o),
(455,1087,cs),
(455,1229,o),
(554,1322,o),
(704,1322,cs),
(831,1322,o),
(914,1255,o),
(956,1117,c),
(1101,1172,l),
(1039,1361,o),
(903,1462,o),
(710,1462,cs),
(469,1462,o),
(305,1312,o),
(305,1090,cs),
(305,960,o),
(352,850,o),
(483,675,cs),
(1026,-48,l)
);
},
{
closed = 1;
nodes = (
(793,-30,o),
(1010,227,o),
(1181,772,c),
(1030,819,l),
(878,305,o),
(735,110,o),
(510,110,cs),
(341,110,o),
(239,209,o),
(239,373,cs),
(239,555,o),
(336,667,o),
(543,724,c),
(487,838,l),
(229,768,o),
(91,603,o),
(91,365,cs),
(91,133,o),
(262,-30,o),
(506,-30,cs)
);
}
);
width = 1248;
},
{
layerId = m007;
shapes = (
{
closed = 1;
nodes = (
(1151,59,l),
(610,791,ls),
(518,913,o),
(484,991,o),
(484,1077,cs),
(484,1205,o),
(573,1288,o),
(707,1288,cs),
(823,1288,o),
(898,1225,o),
(933,1097,c),
(1112,1150,l),
(1056,1355,o),
(916,1463,o),
(709,1463,cs),
(463,1463,o),
(296,1311,o),
(296,1086,cs),
(296,959,o),
(343,847,o),
(468,678,cs),
(1005,-50,l)
);
},
{
closed = 1;
nodes = (
(803,-31,o),
(1031,238,o),
(1192,780,c),
(1007,830,l),
(873,332,o),
(739,141,o),
(522,141,cs),
(366,141,o),
(270,233,o),
(270,385,cs),
(270,555,o),
(358,658,o),
(548,711,c),
(491,843,l),
(224,774,o),
(84,610,o),
(84,370,cs),
(84,135,o),
(259,-31,o),
(507,-31,cs)
);
}
);
width = 1251;
},
{
layerId = m008;
name = "opsz6-wdth25-wght400-Ital0-Rond0-Grad0";
shapes = (
{
closed = 1;
nodes = (
(1174,109,l),
(646,855,ls),
(590,932,o),
(568,987,o),
(568,1046,cs),
(568,1131,o),
(626,1187,o),
(713,1187,cs),
(797,1187,o),
(847,1138,o),
(863,1037,c),
(1142,1082,l),
(1106,1332,o),
(952,1466,o),
(705,1466,cs),
(442,1466,o),
(266,1309,o),
(266,1074,cs),
(266,957,o),
(312,839,o),
(420,685,cs),
(939,-58,l)
);
},
{
closed = 1;
nodes = (
(832,-34,o),
(1091,270,o),
(1222,803,c),
(935,863,l),
(854,409,o),
(749,234,o),
(556,234,cs),
(437,234,o),
(362,306,o),
(362,422,cs),
(362,553,o),
(424,632,o),
(561,671,c),
(501,856,l),
(211,791,o),
(62,630,o),
(62,385,cs),
(62,139,o),
(246,-34,o),
(507,-34,cs)
);
}
);
width = 1259;
},
{
layerId = m009;
shapes = (
{
closed = 1;
nodes = (
(1181,125,l),
(657,876,ls),
(613,938,o),
(595,985,o),
(595,1035,cs),
(595,1106,o),
(643,1153,o),
(714,1153,cs),
(788,1153,o),
(830,1108,o),
(839,1017,c),
(1151,1059,l),
(1122,1323,o),
(963,1467,o),
(703,1467,cs),
(435,1467,o),
(255,1308,o),
(255,1070,cs),
(255,956,o),
(301,836,o),
(403,687,cs),
(916,-61,l)
);
},
{
closed = 1;
nodes = (
(841,-35,o),
(1111,281,o),
(1232,811,c),
(911,874,l),
(848,436,o),
(752,265,o),
(567,265,cs),
(460,265,o),
(392,330,o),
(392,434,cs),
(392,552,o),
(447,623,o),
(565,657,c),
(504,860,l),
(208,797,o),
(54,636,o),
(54,390,cs),
(54,140,o),
(241,-35,o),
(507,-35,cs)
);
}
);
width = 1262;
}
);
unicode = 38;
}
{
color = 4;
glyphname = quotesingle;
kernLeft = quotesingle_left;
kernRight = quotesingle_right;
layers = (
{
layerId = m006;
shapes = (
{
closed = 1;
nodes = (
(779,904,l),
(877,1460,l),
(653,1460,l),
(555,904,l)
);
}
);
width = 1200;
},
{
background = {
shapes = (
{
closed = 1;
nodes = (
(763,906,l),
(859,1460,l),
(671,1460,l),
(575,906,l)
);
}
);
};
layerId = "87470510-D880-4621-BF85-70AEEA552FBA";
shapes = (
{
closed = 1;
nodes = (
(762,906,l),
(859,1460,l),
(671,1460,l),
(574,906,l)
);
}
);
width = 1200;
},
{
layerId = "90828D4A-10F7-4870-818F-40FC947ECC22";
shapes = (
{
closed = 1;
nodes = (
(831,899,l),
(930,1460,l),
(600,1460,l),
(501,899,l)
);
}
);
width = 1200;
},
{
background = {
shapes = (
{
closed = 1;
nodes = (
(850,897,l),
(948,1460,l),
(582,1460,l),
(484,897,l)
);
}
);
};
layerId = "00586AEE-0022-45ED-9612-7F804652F2C7";
shapes = (
{
closed = 1;
nodes = (
(849,897,l),
(948,1460,l),
(582,1460,l),
(483,897,l)
);
}
);
width = 1200;
},
{
background = {
shapes = (
{
closed = 1;
nodes = (
(417,906,l),
(513,1460,l),
(325,1460,l),
(229,906,l)
);
}
);
};
layerId = m005;
shapes = (
{
closed = 1;
nodes = (
(416,906,l),
(513,1460,l),
(325,1460,l),
(228,906,l)
);
}
);
width = 508;
},
{
layerId = m007;
shapes = (
{
closed = 1;
nodes = (
(779,904,l),
(877,1460,l),
(653,1460,l),
(555,904,l)
);
}
);
width = 1200;
},
{
layerId = m008;
shapes = (
{
closed = 1;
nodes = (
(831,899,l),
(930,1460,l),
(600,1460,l),
(501,899,l)
);
}
);
width = 1200;
},
{
background = {
shapes = (
{
closed = 1;
nodes = (
(503,897,l),
(601,1460,l),
(235,1460,l),
(137,897,l)
);
}
);
};
layerId = m009;
shapes = (
{
closed = 1;
nodes = (
(502,897,l),
(601,1460,l),
(235,1460,l),
(136,897,l)
);
}
);
width = 507;
}
);
unicode = 39;
}
{
glyphname = parenright;
kernLeft = parenright_left;
kernRight = parenright_right;
layers = (
{
layerId = m006;
shapes = (
{
closed = 1;
nodes = (
(690,-22,o),
(936,346,o),
(936,809,cs),
(936,1121,o),
(797,1414,o),
(544,1640,c),
(419,1508,l),
(638,1312,o),
(747,1078,o),
(747,809,cs),
(747,407,o),
(540,103,o),
(114,-151,c),
(206,-308,l)
);
}
);
width = 1200;
},
{
layerId = "90828D4A-10F7-4870-818F-40FC947ECC22";
shapes = (
{
closed = 1;
nodes = (
(720,-69,o),
(971,320,o),
(971,799,cs),
(971,1119,o),
(823,1443,o),
(561,1680,c),
(370,1477,l),
(568,1298,o),
(667,1070,o),
(667,799,cs),
(667,410,o),
(479,120,o),
(89,-102,c),
(229,-342,l)
);
}
);
width = 1200;
},
{
background = {
shapes = (
{
closed = 1;
nodes = (
(534,-45,o),
(778,261,o),
(849,665,cs),
(920,1069,o),
(784,1375,o),
(485,1627,c),
(373,1507,l),
(655,1274,o),
(763,1020,o),
(700,665,cs),
(637,310,o),
(441,56,o),
(77,-177,c),
(145,-297,l)
);
}
);
};
layerId = "87470510-D880-4621-BF85-70AEEA552FBA";
shapes = (
{
closed = 1;
nodes = (
(680,-7,o),
(924,354,o),
(924,812,cs),
(924,1122,o),
(788,1404,o),
(538,1627,c),
(435,1518,l),
(661,1316,o),
(774,1081,o),
(774,812,cs),
(774,406,o),
(560,97,o),
(122,-168,c),
(198,-297,l)
);
}
);
width = 1200;
},
{
background = {
shapes = (
{
closed = 1;
nodes = (
(619,-54,o),
(849,256,o),
(922,670,cs),
(995,1084,o),
(875,1394,o),
(518,1693,c),
(287,1447,l),
(542,1229,o),
(635,985,o),
(579,670,cs),
(523,355,o),
(344,111,o),
(13,-107,c),
(158,-353,l)
);
}
);
};
layerId = "00586AEE-0022-45ED-9612-7F804652F2C7";
shapes = (
{
closed = 1;
nodes = (
(730,-85,o),
(983,311,o),
(983,795,cs),
(983,1118,o),
(832,1453,o),
(566,1693,c),
(354,1467,l),
(544,1293,o),
(640,1067,o),
(640,795,cs),
(640,411,o),
(459,126,o),
(80,-86,c),
(237,-353,l)
);
}
);
width = 1200;
},
{
layerId = m005;
shapes = (
{
closed = 1;
nodes = (
(396,2,o),
(620,347,o),
(620,812,cs),
(620,1122,o),
(488,1400,o),
(234,1627,c),
(131,1518,l),
(359,1314,o),
(470,1083,o),
(470,812,cs),
(470,400,o),
(277,103,o),
(-182,-168,c),
(-108,-296,l)
);
}
);
width = 719;
},
{
layerId = m007;
shapes = (
{
closed = 1;
nodes = (
(424,-16,o),
(655,339,o),
(655,809,cs),
(655,1122,o),
(519,1411,o),
(263,1640,c),
(138,1508,l),
(358,1310,o),
(466,1080,o),
(466,809,cs),
(466,402,o),
(276,108,o),
(-167,-151,c),
(-76,-307,l)
);
}
);
width = 745;
},
{
layerId = m008;
shapes = (
{
closed = 1;
nodes = (
(510,-69,o),
(760,316,o),
(760,799,cs),
(760,1123,o),
(609,1446,o),
(349,1680,c),
(159,1477,l),
(356,1297,o),
(455,1070,o),
(455,799,cs),
(455,409,o),
(272,122,o),
(-123,-102,c),
(18,-341,l)
);
}
);
width = 822;
},
{
layerId = m009;
shapes = (
{
closed = 1;
nodes = (
(539,-87,o),
(795,308,o),
(795,795,cs),
(795,1123,o),
(640,1457,o),
(378,1693,c),
(166,1467,l),
(355,1293,o),
(451,1067,o),
(451,795,cs),
(451,411,o),
(270,126,o),
(-108,-86,c),
(49,-353,l)
);
}
);
width = 848;
}
);
unicode = 41;
}
{
glyphname = asterisk;
kernLeft = asterisk_left;
kernRight = asterisk_right;
layers = (
{
layerId = m006;
shapes = (
{
closed = 1;
nodes = (
(668,714,l),
(1191,967,l),
(1117,1103,l),
(620,831,l),
(98,582,l),
(172,446,l)
);
},
{
closed = 1;
nodes = (
(1142,544,l),
(681,824,l),
(237,1135,l),
(147,1004,l),
(607,721,l),
(1052,413,l)
);
},
{
closed = 1;
nodes = (
(623,216,l),
(820,1332,l),
(665,1332,l),
(468,216,l)
);
}
);
width = 1200;
},
{
layerId = "90828D4A-10F7-4870-818F-40FC947ECC22";
shapes = (
{
closed = 1;
nodes = (
(672,691,l),
(1203,926,l),
(1103,1123,l),
(619,858,l),
(84,623,l),
(184,426,l)
);
},
{
closed = 1;
nodes = (
(1159,588,l),
(694,849,l),
(260,1160,l),
(129,960,l),
(594,699,l),
(1028,388,l)
);
},
{
closed = 1;
nodes = (
(657,208,l),
(856,1340,l),
(631,1340,l),
(432,208,l)
);
}
);
width = 1200;
},
{
background = {
shapes = (
{
closed = 1;
nodes = (
(664,724,l),
(1197,996,l),
(1152,1111,l),
(623,819,l),
(91,552,l),
(136,437,l)
);
},
{
closed = 1;
nodes = (
(1119,552,l),
(681,819,l),
(254,1111,l),
(169,996,l),
(606,724,l),
(1034,437,l)
);
},
{
closed = 1;
nodes = (
(612,219,l),
(808,1329,l),
(676,1329,l),
(480,219,l)
);
}
);
};
layerId = "87470510-D880-4621-BF85-70AEEA552FBA";
shapes = (
{
closed = 1;
nodes = (
(667,721,l),
(1186,980,l),
(1126,1092,l),
(620,822,l),
(103,568,l),
(163,456,l)
);
},
{
closed = 1;
nodes = (
(1125,539,l),
(677,816,l),
(240,1118,l),
(164,1010,l),
(611,728,l),
(1049,431,l)
);
},
{
closed = 1;
nodes = (
(612,219,l),
(808,1329,l),
(676,1329,l),
(480,219,l)
);
}
);
width = 1200;
},
{
background = {
shapes = (
{
closed = 1;
nodes = (
(666,685,l),
(1219,931,l),
(1131,1151,l),
(622,863,l),
(68,617,l),
(157,397,l)
);
},
{
closed = 1;
nodes = (
(1164,617,l),
(698,863,l),
(289,1151,l),
(124,931,l),
(590,685,l),
(999,397,l)
);
},
{
closed = 1;
nodes = (
(668,205,l),
(868,1343,l),
(620,1343,l),
(420,205,l)
);
}
);
};
layerId = "00586AEE-0022-45ED-9612-7F804652F2C7";
shapes = (
{
closed = 1;
nodes = (
(673,683,l),
(1208,912,l),
(1098,1130,l),
(618,867,l),
(79,636,l),
(189,418,l)
);
},
{
closed = 1;
nodes = (
(1169,600,l),
(698,857,l),
(263,1168,l),
(118,948,l),
(590,691,l),
(1024,380,l)
);
},
{
closed = 1;
nodes = (
(668,205,l),
(868,1343,l),
(620,1343,l),
(420,205,l)
);
}
);
width = 1200;
},
{
associatedMasterId = "87470510-D880-4621-BF85-70AEEA552FBA";
layerId = "B0F091CD-921C-482E-85FB-966EDFA82E7D";
name = "19 Sep 24, 20:23";
shapes = (
{
closed = 1;
nodes = (
(599,696,l),
(601,696,l),
(872,285,l),
(1015,385,l),
(745,760,l),
(747,763,l),
(1147,896,l),
(1089,1057,l),
(674,891,l),
(673,893,l),
(688,1349,l),
(513,1349,l),
(528,894,l),
(526,892,l),
(111,1058,l),
(53,895,l),
(456,764,l),
(457,759,l),
(186,385,l),
(329,285,l)
);
}
);
width = 1200;
},
{
associatedMasterId = "00586AEE-0022-45ED-9612-7F804652F2C7";
layerId = "370B0A88-59E1-4BE7-9C08-EA8FA73B0F90";
name = "19 Sep 24, 20:56";
shapes = (
{
closed = 1;
nodes = (
(595,617,l),
(605,617,l),
(792,245,l),
(1074,444,l),
(791,726,l),
(793,737,l),
(1181,802,l),
(1059,1132,l),
(728,957,l),
(718,963,l),
(773,1364,l),
(428,1364,l),
(483,964,l),
(472,958,l),
(141,1132,l),
(19,804,l),
(407,738,l),
(408,728,l),
(126,444,l),
(409,245,l)
);
}
);
width = 1200;
},
{
associatedMasterId = "90828D4A-10F7-4870-818F-40FC947ECC22";
layerId = "1C26540B-B0F6-4529-A57D-5048D97E67D2";
name = "19 Sep 24, 21:01";
shapes = (
{
closed = 1;
nodes = (
(596,633,l),
(604,633,l),
(808,253,l),
(1062,432,l),
(782,733,l),
(784,742,l),
(1174,821,l),
(1065,1117,l),
(717,944,l),
(709,949,l),
(756,1361,l),
(445,1361,l),
(492,950,l),
(483,945,l),
(135,1117,l),
(26,822,l),
(417,743,l),
(418,734,l),
(138,432,l),
(393,253,l)
);
}
);
width = 1200;
},
{
associatedMasterId = m006;
layerId = "89001EF3-A849-4507-8604-0AF89E92ACE0";
name = "19 Sep 24, 21:01";
shapes = (
{
closed = 1;
nodes = (
(598,680,l),
(602,680,l),
(856,277,l),
(1027,397,l),
(754,753,l),
(756,758,l),
(1154,877,l),
(1083,1072,l),
(685,904,l),
(682,907,l),
(705,1352,l),
(496,1352,l),
(519,908,l),
(515,905,l),
(117,1073,l),
(46,877,l),
(446,759,l),
(447,753,l),
(174,397,l),
(345,277,l)
);
}
);
width = 1200;
}
);
unicode = 42;
}
{
color = 9;
glyphname = plus;
kernLeft = hyphen_left;
kernRight = hyphen_right;
layers = (
{
layerId = m006;
shapes = (
{
closed = 1;
nodes = (
(627,164,l),
(789,1086,l),
(609,1086,l),
(447,164,l)
);
},
{
closed = 1;
nodes = (
(1063,541,l),
(1093,711,l),
(173,711,l),
(143,541,l)
);
}
);
width = 1200;
},
{
background = {
shapes = (
{
closed = 1;
nodes = (
(689,159,l),
(861,1135,l),
(555,1135,l),
(383,159,l)
);
},
{
closed = 1;
nodes = (
(1095,502,l),
(1147,792,l),
(149,792,l),
(97,502,l)
);
}
);
};
layerId = "90828D4A-10F7-4870-818F-40FC947ECC22";
shapes = (
{
closed = 1;
nodes = (
(689,159,l),
(861,1135,l),
(555,1135,l),
(383,159,l)
);
},
{
closed = 1;
nodes = (
(1094,502,l),
(1146,792,l),
(149,792,l),
(97,502,l)
);
}
);
width = 1200;
},
{
background = {
shapes = (
{
closed = 1;
nodes = (
(608,173,l),
(768,1077,l),
(630,1077,l),
(470,173,l)
);
},
{
closed = 1;
nodes = (
(1055,560,l),
(1077,690,l),
(183,690,l),
(161,560,l)
);
}
);
};
layerId = "87470510-D880-4621-BF85-70AEEA552FBA";
shapes = (
{
closed = 1;
nodes = (
(608,173,l),
(768,1077,l),
(630,1077,l),
(470,173,l)
);
},
{
closed = 1;
nodes = (
(1054,560,l),
(1076,690,l),
(183,690,l),
(161,560,l)
);
}
);
width = 1200;
},
{
background = {
shapes = (
{
closed = 1;
nodes = (
(704,147,l),
(880,1143,l),
(538,1143,l),
(362,147,l)
);
},
{
closed = 1;
nodes = (
(1099,485,l),
(1155,805,l),
(143,805,l),
(87,485,l)
);
}
);
};
layerId = "00586AEE-0022-45ED-9612-7F804652F2C7";
shapes = (
{
closed = 1;
nodes = (
(704,147,l),
(880,1143,l),
(538,1143,l),
(362,147,l)
);
},
{
closed = 1;
nodes = (
(1099,485,l),
(1155,805,l),
(143,805,l),
(87,485,l)
);
}
);
width = 1200;
},
{
background = {
shapes = (
{
closed = 1;
nodes = (
(615,173,l),
(775,1077,l),
(637,1077,l),
(477,173,l)
);
},
{
closed = 1;
nodes = (
(1062,560,l),
(1084,690,l),
(190,690,l),
(168,560,l)
);
}
);
};
layerId = m005;
shapes = (
{
closed = 1;
nodes = (
(615,173,l),
(775,1077,l),
(637,1077,l),
(477,173,l)
);
},
{
closed = 1;
nodes = (
(1061,560,l),
(1083,690,l),
(190,690,l),
(168,560,l)
);
}
);
width = 1214;
},
{
layerId = m007;
shapes = (
{
closed = 1;
nodes = (
(628,164,l),
(790,1086,l),
(610,1086,l),
(448,164,l)
);
},
{
closed = 1;
nodes = (
(1064,541,l),
(1094,711,l),
(174,711,l),
(144,541,l)
);
}
);
width = 1201;
},
{
background = {
shapes = (
{
closed = 1;
nodes = (
(668,159,l),
(840,1135,l),
(534,1135,l),
(362,159,l)
);
},
{
closed = 1;
nodes = (
(1074,502,l),
(1126,792,l),
(128,792,l),
(76,502,l)
);
}
);
};
layerId = m008;
shapes = (
{
closed = 1;
nodes = (
(668,159,l),
(840,1135,l),
(534,1135,l),
(362,159,l)
);
},
{
closed = 1;
nodes = (
(1073,502,l),
(1125,792,l),
(128,792,l),
(76,502,l)
);
}
);
width = 1157;
},
{
background = {
shapes = (
{
closed = 1;
nodes = (
(670,147,l),
(846,1143,l),
(504,1143,l),
(328,147,l)
);
},
{
closed = 1;
nodes = (
(1065,485,l),
(1121,805,l),
(109,805,l),
(53,485,l)
);
}
);
};
layerId = m009;
shapes = (
{
closed = 1;
nodes = (
(670,147,l),
(846,1143,l),
(504,1143,l),
(328,147,l)
);
},
{
closed = 1;
nodes = (
(1065,485,l),
(1121,805,l),
(109,805,l),
(53,485,l)
);
}
);
width = 1132;
}
);
unicode = 43;
}
{
color = 4;
glyphname = comma;
kernLeft = comma_left;
kernRight = period_right;
layers = (
{
layerId = m006;
shapes = (
{
closed = 1;
nodes = (
(549,-225,o),
(709,-37,o),
(709,129,cs),
(709,235,o),
(643,303,o),
(545,303,cs),
(453,303,o),
(383,236,o),
(383,148,cs),
(383,59,o),
(450,0,o),
(548,-6,c),
(548,30,l),
(480,-79,o),
(380,-161,o),
(261,-231,c),
(334,-349,l)
);
}
);
width = 1200;
},
{
layerId = "90828D4A-10F7-4870-818F-40FC947ECC22";
shapes = (
{
closed = 1;
nodes = (
(580,-242,o),
(752,-44,o),
(752,166,cs),
(752,297,o),
(668,386,o),
(546,386,cs),
(429,386,o),
(345,304,o),
(345,191,cs),
(345,88,o),
(422,16,o),
(537,8,c),
(543,71,l),
(457,-47,o),
(356,-127,o),
(224,-200,c),
(333,-375,l)
);
}
);
width = 1200;
},
{
layerId = "87470510-D880-4621-BF85-70AEEA552FBA";
shapes = (
{
closed = 1;
nodes = (
(539,-220,o),
(695,-35,o),
(695,116,cs),
(695,214,o),
(634,275,o),
(544,275,cs),
(461,275,o),
(396,213,o),
(396,133,cs),
(396,49,o),
(459,-6,o),
(551,-11,c),
(550,16,l),
(487,-90,o),
(388,-173,o),
(273,-241,c),
(334,-340,l)
);
}
);
width = 1200;
},
{
layerId = "00586AEE-0022-45ED-9612-7F804652F2C7";
shapes = (
{
closed = 1;
nodes = (
(591,-248,o),
(767,-46,o),
(767,178,cs),
(767,318,o),
(677,414,o),
(547,414,cs),
(422,414,o),
(333,327,o),
(333,205,cs),
(333,97,o),
(413,21,o),
(534,12,c),
(542,85,l),
(450,-37,o),
(349,-116,o),
(213,-190,c),
(334,-384,l)
);
}
);
width = 1200;
},
{
layerId = m005;
shapes = (
{
closed = 1;
nodes = (
(201,-220,o),
(357,-35,o),
(357,116,cs),
(357,214,o),
(296,275,o),
(206,275,cs),
(123,275,o),
(58,213,o),
(58,133,cs),
(58,49,o),
(121,-6,o),
(213,-11,c),
(212,16,l),
(149,-90,o),
(50,-173,o),
(-65,-241,c),
(-4,-340,l)
);
}
);
width = 482;
},
{
layerId = m007;
shapes = (
{
closed = 1;
nodes = (
(221,-225,o),
(381,-37,o),
(381,129,cs),
(381,235,o),
(315,303,o),
(217,303,cs),
(125,303,o),
(55,236,o),
(55,148,cs),
(55,59,o),
(122,0,o),
(220,-6,c),
(220,30,l),
(152,-79,o),
(52,-161,o),
(-67,-231,c),
(6,-349,l)
);
}
);
width = 501;
},
{
layerId = m008;
shapes = (
{
closed = 1;
nodes = (
(282,-242,o),
(454,-44,o),
(454,166,cs),
(454,297,o),
(370,386,o),
(248,386,cs),
(131,386,o),
(47,304,o),
(47,191,cs),
(47,88,o),
(124,16,o),
(239,8,c),
(245,71,l),
(159,-47,o),
(58,-127,o),
(-74,-200,c),
(35,-375,l)
);
}
);
width = 557;
},
{
layerId = m009;
shapes = (
{
closed = 1;
nodes = (
(302,-248,o),
(478,-46,o),
(478,178,cs),
(478,318,o),
(388,414,o),
(258,414,cs),
(133,414,o),
(44,327,o),
(44,205,cs),
(44,97,o),
(124,21,o),
(245,12,c),
(253,85,l),
(161,-37,o),
(60,-116,o),
(-76,-190,c),
(45,-384,l)
);
}
);
width = 576;
},
{
associatedMasterId = m009;
layerId = "71AA0566-2185-4683-8A12-57529C092042";
name = "1 Apr 26 at 14:15";
shapes = (
{
closed = 1;
nodes = (
(302,-248,o),
(478,-46,o),
(478,178,cs),
(478,318,o),
(388,414,o),
(258,414,cs),
(133,414,o),
(44,327,o),
(44,205,cs),
(44,97,o),
(124,21,o),
(245,12,c),
(253,85,l),
(161,-37,o),
(60,-116,o),
(-76,-190,c),
(45,-384,l)
);
}
);
width = 636;
}
);
unicode = 44;
}
{
color = 9;
glyphname = hyphen;
kernLeft = hyphen_left;
kernRight = hyphen_right;
layers = (
{
layerId = m006;
shapes = (
{
closed = 1;
nodes = (
(1047,533,l),
(1079,719,l),
(189,719,l),
(157,533,l)
);
}
);
width = 1200;
},
{
layerId = "90828D4A-10F7-4870-818F-40FC947ECC22";
shapes = (
{
closed = 1;
nodes = (
(1066,493,l),
(1120,799,l),
(176,799,l),
(122,493,l)
);
}
);
width = 1200;
},
{
layerId = "87470510-D880-4621-BF85-70AEEA552FBA";
shapes = (
{
closed = 1;
nodes = (
(1041,553,l),
(1067,699,l),
(195,699,l),
(169,553,l)
);
}
);
width = 1200;
},
{
layerId = "00586AEE-0022-45ED-9612-7F804652F2C7";
shapes = (
{
closed = 1;
nodes = (
(1077,475,l),
(1137,815,l),
(165,815,l),
(105,475,l)
);
}
);
width = 1200;
},
{
layerId = m005;
shapes = (
{
closed = 1;
nodes = (
(1037,553,l),
(1063,699,l),
(191,699,l),
(165,553,l)
);
}
);
width = 1192;
},
{
layerId = m007;
shapes = (
{
closed = 1;
nodes = (
(1031,533,l),
(1063,719,l),
(173,719,l),
(141,533,l)
);
}
);
width = 1169;
},
{
layerId = m008;
shapes = (
{
closed = 1;
nodes = (
(1018,493,l),
(1072,799,l),
(128,799,l),
(74,493,l)
);
}
);
width = 1104;
},
{
layerId = m009;
shapes = (
{
closed = 1;
nodes = (
(1023,475,l),
(1083,815,l),
(111,815,l),
(51,475,l)
);
}
);
width = 1092;
}
);
unicode = 45;
}
{
glyphname = period;
kernLeft = period_left;
kernRight = period_right;
layers = (
{
layerId = m006;
shapes = (
{
closed = 1;
nodes = (
(655,-30,o),
(726,41,o),
(726,134,cs),
(726,224,o),
(654,296,o),
(562,296,cs),
(471,296,o),
(398,224,o),
(398,134,cs),
(398,41,o),
(469,-30,o),
(562,-30,cs)
);
}
);
width = 1200;
},
{
layerId = "90828D4A-10F7-4870-818F-40FC947ECC22";
shapes = (
{
closed = 1;
nodes = (
(686,-30,o),
(775,59,o),
(775,175,cs),
(775,289,o),
(685,379,o),
(569,379,cs),
(454,379,o),
(363,288,o),
(363,175,cs),
(363,60,o),
(453,-30,o),
(569,-30,cs)
);
}
);
width = 1200;
},
{
layerId = "87470510-D880-4621-BF85-70AEEA552FBA";
shapes = (
{
closed = 1;
nodes = (
(644,-30,o),
(709,35,o),
(709,120,cs),
(709,202,o),
(644,268,o),
(559,268,cs),
(476,268,o),
(409,202,o),
(409,120,cs),
(409,35,o),
(474,-30,o),
(559,-30,cs)
);
}
);
width = 1200;
},
{
layerId = "00586AEE-0022-45ED-9612-7F804652F2C7";
shapes = (
{
closed = 1;
nodes = (
(696,-30,o),
(791,65,o),
(791,188,cs),
(791,310,o),
(695,406,o),
(571,406,cs),
(448,406,o),
(351,309,o),
(351,188,cs),
(351,66,o),
(448,-30,o),
(571,-30,cs)
);
}
);
width = 1200;
},
{
layerId = m005;
shapes = (
{
closed = 1;
nodes = (
(286,-30,o),
(351,35,o),
(351,120,cs),
(351,202,o),
(286,268,o),
(201,268,cs),
(118,268,o),
(51,202,o),
(51,120,cs),
(51,35,o),
(116,-30,o),
(201,-30,cs)
);
}
);
width = 474;
},
{
layerId = m007;
shapes = (
{
closed = 1;
nodes = (
(307,-30,o),
(378,41,o),
(378,134,cs),
(378,224,o),
(306,296,o),
(214,296,cs),
(123,296,o),
(50,224,o),
(50,134,cs),
(50,41,o),
(121,-30,o),
(214,-30,cs)
);
}
);
width = 495;
},
{
layerId = m008;
shapes = (
{
closed = 1;
nodes = (
(369,-30,o),
(458,59,o),
(458,175,cs),
(458,289,o),
(368,379,o),
(252,379,cs),
(137,379,o),
(46,288,o),
(46,175,cs),
(46,60,o),
(136,-30,o),
(252,-30,cs)
);
}
);
width = 557;
},
{
layerId = m009;
shapes = (
{
closed = 1;
nodes = (
(389,-30,o),
(484,65,o),
(484,188,cs),
(484,310,o),
(388,406,o),
(264,406,cs),
(141,406,o),
(44,309,o),
(44,188,cs),
(44,66,o),
(141,-30,o),
(264,-30,cs)
);
}
);
width = 577;
}
);
unicode = 46;
}
{
color = 9;
glyphname = slash;
kernLeft = slash_left;
kernRight = slash_right;
layers = (
{
layerId = m006;
shapes = (
{
closed = 1;
nodes = (
(160,-176,l),
(1238,1460,l),
(1040,1460,l),
(-38,-176,l)
);
}
);
width = 1200;
},
{
layerId = "90828D4A-10F7-4870-818F-40FC947ECC22";
shapes = (
{
closed = 1;
nodes = (
(268,-176,l),
(1249,1460,l),
(932,1460,l),
(-49,-176,l)
);
}
);
width = 1200;
},
{
layerId = "87470510-D880-4621-BF85-70AEEA552FBA";
shapes = (
{
closed = 1;
nodes = (
(126,-176,l),
(1236,1460,l),
(1074,1460,l),
(-36,-176,l)
);
}
);
width = 1200;
},
{
layerId = "00586AEE-0022-45ED-9612-7F804652F2C7";
shapes = (
{
closed = 1;
nodes = (
(302,-176,l),
(1251,1460,l),
(898,1460,l),
(-51,-176,l)
);
}
);
width = 1200;
},
{
layerId = m005;
shapes = (
{
closed = 1;
nodes = (
(109,-176,l),
(1219,1460,l),
(1057,1460,l),
(-53,-176,l)
);
}
);
width = 1124;
},
{
layerId = m007;
shapes = (
{
closed = 1;
nodes = (
(135,-176,l),
(1213,1460,l),
(1015,1460,l),
(-63,-176,l)
);
}
);
width = 1110;
},
{
layerId = m008;
shapes = (
{
closed = 1;
nodes = (
(223,-176,l),
(1204,1460,l),
(887,1460,l),
(-94,-176,l)
);
}
);
width = 1077;
},
{
layerId = m009;
shapes = (
{
closed = 1;
nodes = (
(249,-176,l),
(1198,1460,l),
(845,1460,l),
(-104,-176,l)
);
}
);
width = 1063;
}
);
unicode = 47;
}
{
glyphname = zero;
kernLeft = zero_left;
kernRight = zero_right;
layers = (
{
layerId = m006;
shapes = (
{
closed = 1;
nodes = (
(1023,-31,o),
(1149,577,o),
(1149,942,cs),
(1149,1254,o),
(999,1463,o),
(723,1463,cs),
(245,1463,o),
(119,855,o),
(119,491,cs),
(119,178,o),
(270,-31,o),
(545,-31,cs)
);
},
{
closed = 1;
nodes = (
(366,139,o),
(297,284,o),
(297,498,cs),
(297,751,o),
(369,1293,o),
(719,1293,cs),
(902,1293,o),
(971,1148,o),
(971,934,cs),
(971,682,o),
(899,139,o),
(549,139,cs)
);
},
{
closed = 1;
nodes = (
(1121,861,l),
(1076,1016,l),
(149,572,l),
(194,416,l)
);
}
);
width = 1200;
},
{
layerId = "90828D4A-10F7-4870-818F-40FC947ECC22";
shapes = (
{
closed = 1;
nodes = (
(1042,-34,o),
(1173,593,o),
(1173,940,cs),
(1173,1266,o),
(1006,1466,o),
(725,1466,cs),
(223,1466,o),
(94,839,o),
(94,493,cs),
(94,166,o),
(259,-34,o),
(541,-34,cs)
);
},
{
closed = 1;
nodes = (
(435,240,o),
(386,335,o),
(386,504,cs),
(386,689,o),
(438,1192,o),
(709,1192,cs),
(832,1192,o),
(881,1098,o),
(881,928,cs),
(881,743,o),
(830,240,o),
(557,240,cs)
);
},
{
closed = 1;
nodes = (
(1134,821,l),
(1051,1045,l),
(135,612,l),
(218,387,l)
);
}
);
width = 1200;
},
{
layerId = "87470510-D880-4621-BF85-70AEEA552FBA";
shapes = (
{
closed = 1;
nodes = (
(1014,-30,o),
(1141,572,o),
(1141,942,cs),
(1141,1250,o),
(999,1462,o),
(726,1462,cs),
(254,1462,o),
(127,860,o),
(127,490,cs),
(127,182,o),
(269,-30,o),
(542,-30,cs)
);
},
{
closed = 1;
nodes = (
(347,108,o),
(273,269,o),
(273,496,cs),
(273,770,o),
(350,1324,o),
(722,1324,cs),
(921,1324,o),
(995,1163,o),
(995,936,cs),
(995,662,o),
(918,108,o),
(546,108,cs)
);
},
{
closed = 1;
nodes = (
(1117,874,l),
(1084,1006,l),
(153,558,l),
(186,426,l)
);
}
);
width = 1200;
},
{
background = {
shapes = (
{
closed = 1;
nodes = (
(1138,817,l),
(1070,1065,l),
(130,615,l),
(198,367,l)
);
},
{
closed = 1;
nodes = (
(837,-35,o),
(1080,226,o),
(1162,696,cs),
(1170,736,ls),
(1253,1207,o),
(1101,1467,o),
(767,1467,cs),
(434,1467,o),
(189,1207,o),
(106,736,cs),
(98,696,ls),
(16,226,o),
(170,-35,o),
(503,-35,cs)
);
},
{
closed = 1;
nodes = (
(413,275,o),
(377,406,o),
(425,679,cs),
(439,755,ls),
(487,1026,o),
(573,1157,o),
(723,1157,cs),
(855,1157,o),
(891,1028,o),
(843,755,cs),
(829,679,ls),
(782,407,o),
(695,275,o),
(545,275,cs)
);
}
);
};
layerId = "00586AEE-0022-45ED-9612-7F804652F2C7";
shapes = (
{
closed = 1;
nodes = (
(1042,-35,o),
(1184,598,o),
(1184,939,cs),
(1184,1270,o),
(1021,1467,o),
(730,1467,cs),
(224,1467,o),
(83,834,o),
(83,493,cs),
(83,162,o),
(246,-35,o),
(536,-35,cs)
);
},
{
closed = 1;
nodes = (
(456,275,o),
(413,352,o),
(413,506,cs),
(413,668,o),
(458,1157,o),
(706,1157,cs),
(811,1157,o),
(854,1080,o),
(854,926,cs),
(854,764,o),
(809,275,o),
(560,275,cs)
);
},
{
closed = 1;
nodes = (
(1138,807,l),
(1042,1055,l),
(130,625,l),
(226,377,l)
);
}
);
width = 1200;
},
{
associatedMasterId = "87470510-D880-4621-BF85-70AEEA552FBA";
background = {
shapes = (
{
closed = 1;
nodes = (
(1116,884,l),
(1098,1018,l),
(152,548,l),
(170,414,l)
);
},
{
closed = 1;
nodes = (
(815,-30,o),
(1043,233,o),
(1121,675,cs),
(1136,760,ls),
(1213,1199,o),
(1079,1462,o),
(766,1462,cs),
(453,1462,o),
(225,1199,o),
(148,760,cs),
(133,675,ls),
(55,234,o),
(189,-30,o),
(502,-30,cs)
);
},
{
closed = 1;
nodes = (
(298,106,o),
(206,283,o),
(275,678,cs),
(289,756,ls),
(355,1128,o),
(513,1326,o),
(739,1326,cs),
(969,1326,o),
(1061,1150,o),
(991,756,cs),
(977,678,ls),
(912,305,o),
(753,106,o),
(529,106,cs)
);
}
);
};
layerId = "D272393B-5136-4489-BEE1-69503D3FF3CC";
name = "1 Nov 24, 20:05";
shapes = (
{
closed = 1;
nodes = (
(830,-30,o),
(1047,231,o),
(1119,664,cs),
(1125,700,ls),
(1139,785,o),
(1147,868,o),
(1147,942,cs),
(1147,1250,o),
(1003,1462,o),
(727,1462,cs),
(439,1462,o),
(222,1203,o),
(150,770,cs),
(144,734,ls),
(130,649,o),
(122,564,o),
(122,490,cs),
(122,182,o),
(265,-30,o),
(541,-30,cs)
);
},
{
closed = 1;
nodes = (
(340,106,o),
(264,268,o),
(264,496,cs),
(264,562,o),
(271,636,o),
(285,716,cs),
(293,762,ls),
(355,1121,o),
(509,1326,o),
(723,1326,cs),
(929,1326,o),
(1005,1164,o),
(1005,936,cs),
(1005,870,o),
(998,797,o),
(984,718,cs),
(976,672,ls),
(914,313,o),
(760,106,o),
(545,106,cs)
);
},
{
closed = 1;
nodes = (
(1116,874,l),
(1083,1008,l),
(152,558,l),
(185,424,l)
);
}
);
width = 1200;
},
{
associatedMasterId = m006;
background = {
shapes = (
{
closed = 1;
nodes = (
(1067,836,l),
(1012,990,l),
(133,596,l),
(188,442,l)
);
},
{
closed = 1;
nodes = (
(914,-32,o),
(1102,234,o),
(1102,679,cs),
(1102,755,ls),
(1102,1198,o),
(914,1464,o),
(600,1464,cs),
(286,1464,o),
(98,1198,o),
(98,755,cs),
(98,679,ls),
(98,235,o),
(286,-32,o),
(600,-32,cs)
);
},
{
closed = 1;
nodes = (
(397,142,o),
(290,309,o),
(290,678,cs),
(290,756,ls),
(290,1106,o),
(397,1290,o),
(600,1290,cs),
(803,1290,o),
(910,1124,o),
(910,756,cs),
(910,678,ls),
(910,327,o),
(803,142,o),
(600,142,cs)
);
}
);
};
layerId = "AF3DDB47-F4DB-4042-8448-712A9BF2ABEE";
name = "1 Nov 24, 20:05";
shapes = (
{
closed = 1;
nodes = (
(834,-31,o),
(1058,232,o),
(1127,667,cs),
(1133,705,ls),
(1146,788,o),
(1155,869,o),
(1155,942,cs),
(1155,1254,o),
(1007,1463,o),
(729,1463,cs),
(434,1463,o),
(221,1200,o),
(141,767,cs),
(134,729,ls),
(119,646,o),
(114,564,o),
(114,491,cs),
(114,178,o),
(261,-31,o),
(539,-31,cs)
);
},
{
closed = 1;
nodes = (
(363,139,o),
(293,284,o),
(293,498,cs),
(293,561,o),
(298,632,o),
(312,708,cs),
(321,756,ls),
(385,1098,o),
(521,1293,o),
(720,1293,cs),
(906,1293,o),
(976,1149,o),
(976,935,cs),
(976,872,o),
(970,802,o),
(956,726,cs),
(947,678,ls),
(883,335,o),
(748,139,o),
(548,139,cs)
);
},
{
closed = 1;
nodes = (
(1121,861,l),
(1075,1018,l),
(148,572,l),
(193,415,l)
);
}
);
width = 1200;
},
{
associatedMasterId = "90828D4A-10F7-4870-818F-40FC947ECC22";
background = {
shapes = (
{
closed = 1;
nodes = (
(1081,807,l),
(983,1026,l),
(129,625,l),
(227,406,l)
);
},
{
closed = 1;
nodes = (
(929,-34,o),
(1124,228,o),
(1124,692,cs),
(1124,741,ls),
(1124,1205,o),
(929,1466,o),
(601,1466,cs),
(273,1466,o),
(76,1205,o),
(76,741,cs),
(76,692,ls),
(76,228,o),
(273,-34,o),
(601,-34,cs)
);
},
{
closed = 1;
nodes = (
(453,250,o),
(383,392,o),
(383,679,cs),
(383,755,ls),
(383,1041,o),
(453,1182,o),
(601,1182,cs),
(749,1182,o),
(817,1041,o),
(817,755,cs),
(817,679,ls),
(817,392,o),
(749,250,o),
(601,250,cs)
);
}
);
};
layerId = "9AD0C90F-EEC1-4371-8A62-F594A9A00401";
name = "1 Nov 24, 20:05";
shapes = (
{
closed = 1;
nodes = (
(846,-34,o),
(1071,239,o),
(1150,675,cs),
(1158,719,ls),
(1172,796,o),
(1178,871,o),
(1178,941,cs),
(1178,1267,o),
(1020,1466,o),
(734,1466,cs),
(422,1466,o),
(196,1194,o),
(117,758,cs),
(109,714,ls),
(95,638,o),
(89,563,o),
(89,493,cs),
(89,166,o),
(248,-34,o),
(533,-34,cs)
);
},
{
closed = 1;
nodes = (
(431,240,o),
(379,334,o),
(379,504,cs),
(379,558,o),
(385,619,o),
(397,684,cs),
(407,737,ls),
(462,1030,o),
(558,1192,o),
(710,1192,cs),
(837,1192,o),
(888,1100,o),
(888,930,cs),
(888,876,o),
(882,816,o),
(870,749,cs),
(860,695,ls),
(805,400,o),
(710,240,o),
(558,240,cs)
);
},
{
closed = 1;
nodes = (
(1134,821,l),
(1050,1046,l),
(135,612,l),
(218,387,l)
);
}
);
width = 1200;
},
{
associatedMasterId = "00586AEE-0022-45ED-9612-7F804652F2C7";
background = {
shapes = (
{
closed = 1;
nodes = (
(1138,817,l),
(1070,1065,l),
(130,615,l),
(198,367,l)
);
},
{
closed = 1;
nodes = (
(837,-35,o),
(1080,226,o),
(1162,696,cs),
(1170,736,ls),
(1253,1207,o),
(1101,1467,o),
(767,1467,cs),
(434,1467,o),
(189,1207,o),
(106,736,cs),
(98,696,ls),
(16,226,o),
(170,-35,o),
(503,-35,cs)
);
},
{
closed = 1;
nodes = (
(413,275,o),
(377,406,o),
(425,679,cs),
(439,755,ls),
(487,1026,o),
(573,1157,o),
(723,1157,cs),
(855,1157,o),
(891,1028,o),
(843,755,cs),
(829,679,ls),
(782,407,o),
(695,275,o),
(545,275,cs)
);
}
);
};
layerId = "FBA9FD55-7A27-4965-8B95-10FAF130D8D8";
name = "1 Nov 24, 20:05";
shapes = (
{
closed = 1;
nodes = (
(850,-35,o),
(1082,239,o),
(1158,677,cs),
(1166,723,ls),
(1179,799,o),
(1186,872,o),
(1186,941,cs),
(1186,1271,o),
(1024,1467,o),
(736,1467,cs),
(418,1467,o),
(184,1193,o),
(108,755,cs),
(100,709,ls),
(87,635,o),
(80,562,o),
(80,493,cs),
(80,162,o),
(243,-35,o),
(531,-35,cs)
);
},
{
closed = 1;
nodes = (
(453,275,o),
(408,352,o),
(408,506,cs),
(408,557,o),
(414,615,o),
(425,676,cs),
(435,731,ls),
(485,1007,o),
(570,1157,o),
(706,1157,cs),
(814,1157,o),
(858,1082,o),
(858,928,cs),
(858,877,o),
(853,820,o),
(841,756,cs),
(831,701,ls),
(780,423,o),
(697,275,o),
(561,275,cs)
);
},
{
closed = 1;
nodes = (
(1138,807,l),
(1042,1055,l),
(130,625,l),
(226,377,l)
);
}
);
width = 1200;
}
);
unicode = 48;
}
{
glyphname = one;
kernLeft = one_left;
kernRight = H_right;
layers = (
{
layerId = m006;
shapes = (
{
closed = 1;
nodes = (
(692,80,l),
(930,1432,l),
(795,1432,l),
(267,1192,l),
(340,1029,l),
(698,1195,l),
(502,80,l)
);
},
{
closed = 1;
nodes = (
(1014,0,l),
(1045,180,l),
(145,180,l),
(114,0,l)
);
}
);
width = 1200;
},
{
layerId = "90828D4A-10F7-4870-818F-40FC947ECC22";
shapes = (
{
closed = 1;
nodes = (
(757,110,l),
(990,1432,l),
(773,1432,l),
(219,1193,l),
(328,928,l),
(620,1060,l),
(453,110,l)
);
},
{
closed = 1;
nodes = (
(1065,0,l),
(1114,282,l),
(111,282,l),
(62,0,l)
);
}
);
width = 1200;
},
{
background = {
shapes = (
{
closed = 1;
nodes = (
(670,70,l),
(910,1432,l),
(809,1432,l),
(279,1169,l),
(328,1043,l),
(724,1240,l),
(518,70,l)
);
},
{
closed = 1;
nodes = (
(997,0,l),
(1022,146,l),
(156,146,l),
(131,0,l)
);
}
);
};
layerId = "87470510-D880-4621-BF85-70AEEA552FBA";
shapes = (
{
closed = 1;
nodes = (
(670,70,l),
(910,1432,l),
(802,1432,l),
(283,1191,l),
(344,1063,l),
(724,1240,l),
(518,70,l)
);
},
{
closed = 1;
nodes = (
(997,0,l),
(1022,146,l),
(156,146,l),
(131,0,l)
);
}
);
width = 1200;
},
{
background = {
shapes = (
{
closed = 1;
nodes = (
(779,120,l),
(1010,1432,l),
(767,1432,l),
(200,1180,l),
(293,888,l),
(596,1024,l),
(437,120,l)
);
},
{
closed = 1;
nodes = (
(1082,0,l),
(1137,316,l),
(99,316,l),
(44,0,l)
);
}
);
};
layerId = "00586AEE-0022-45ED-9612-7F804652F2C7";
shapes = (
{
closed = 1;
nodes = (
(779,120,l),
(1010,1432,l),
(765,1432,l),
(202,1193,l),
(322,894,l),
(594,1015,l),
(436,120,l)
);
},
{
closed = 1;
nodes = (
(1082,0,l),
(1137,316,l),
(99,316,l),
(44,0,l)
);
}
);
width = 1200;
},
{
associatedMasterId = "87470510-D880-4621-BF85-70AEEA552FBA";
background = {
shapes = (
{
closed = 1;
nodes = (
(784,0,l),
(1036,1432,l),
(934,1432,l),
(295,1063,l),
(359,935,l),
(847,1221,l),
(632,0,l)
);
}
);
};
layerId = "CD1ECB7B-216A-41FF-A636-BF70BC1ABFA7";
name = "1 Nov 24, 19:45";
shapes = (
{
closed = 1;
nodes = (
(784,0,l),
(1036,1432,l),
(934,1432,l),
(301,1093,l),
(372,961,l),
(846,1218,l),
(632,0,l)
);
}
);
width = 1200;
},
{
associatedMasterId = m006;
layerId = "D1C7C545-D55A-437F-AE4D-89DB2650BF6D";
name = "1 Nov 24, 19:45";
shapes = (
{
closed = 1;
nodes = (
(804,0,l),
(1056,1432,l),
(921,1432,l),
(280,1092,l),
(367,927,l),
(817,1169,l),
(611,0,l)
);
}
);
width = 1200;
},
{
associatedMasterId = "90828D4A-10F7-4870-818F-40FC947ECC22";
layerId = "016125F0-E149-4BA3-88E1-A09B3715E63A";
name = "1 Nov 24, 19:45";
shapes = (
{
closed = 1;
nodes = (
(871,0,l),
(1123,1432,l),
(890,1432,l),
(223,1087,l),
(360,820,l),
(737,1023,l),
(556,0,l)
);
}
);
width = 1200;
},
{
associatedMasterId = "00586AEE-0022-45ED-9612-7F804652F2C7";
background = {
shapes = (
{
closed = 1;
nodes = (
(893,0,l),
(1145,1432,l),
(879,1432,l),
(200,1058,l),
(335,771,l),
(711,987,l),
(537,0,l)
);
}
);
};
layerId = "AA5C325C-2BB6-4DFF-8DA5-85EA095B7847";
name = "1 Nov 24, 19:45";
shapes = (
{
closed = 1;
nodes = (
(893,0,l),
(1145,1432,l),
(879,1432,l),
(204,1085,l),
(356,790,l),
(709,974,l),
(537,0,l)
);
}
);
width = 1200;
}
);
unicode = 49;
}
{
glyphname = two;
kernLeft = two_left;
kernRight = two_right;
layers = (
{
layerId = m006;
shapes = (
{
closed = 1;
nodes = (
(943,0,l),
(975,177,l),
(347,177,l),
(347,184,l),
(785,587,ls),
(1017,801,o),
(1107,946,o),
(1107,1107,cs),
(1107,1315,o),
(965,1464,o),
(735,1464,cs),
(529,1464,o),
(359,1351,o),
(259,1141,c),
(430,1068,l),
(497,1208,o),
(597,1282,o),
(723,1282,cs),
(851,1282,o),
(913,1204,o),
(913,1099,cs),
(913,978,o),
(853,886,o),
(666,711,cs),
(88,172,l),
(58,0,l)
);
}
);
width = 1200;
},
{
layerId = "90828D4A-10F7-4870-818F-40FC947ECC22";
shapes = (
{
closed = 1;
nodes = (
(988,0,l),
(1040,287,l),
(504,287,l),
(504,297,l),
(815,582,ls),
(1046,793,o),
(1137,916,o),
(1137,1090,cs),
(1137,1308,o),
(981,1466,o),
(734,1466,cs),
(502,1466,o),
(328,1352,o),
(212,1115,c),
(484,991,l),
(543,1113,o),
(609,1164,o),
(694,1164,cs),
(771,1164,o),
(811,1116,o),
(811,1046,cs),
(811,964,o),
(766,896,o),
(631,770,cs),
(63,242,l),
(20,0,l)
);
}
);
width = 1200;
},
{
background = {
shapes = (
{
closed = 1;
nodes = (
(928,0,l),
(953,140,l),
(275,140,l),
(276,146,l),
(787,625,ls),
(997,822,o),
(1073,931,o),
(1098,1070,cs),
(1100,1083,ls),
(1140,1307,o),
(1007,1462,o),
(778,1462,cs),
(585,1462,o),
(418,1364,o),
(278,1170,c),
(395,1097,l),
(499,1246,o),
(617,1318,o),
(755,1318,cs),
(903,1318,o),
(975,1235,o),
(950,1094,cs),
(948,1083,ls),
(928,967,o),
(866,876,o),
(698,718,cs),
(96,149,l),
(70,0,l)
);
}
);
};
layerId = "87470510-D880-4621-BF85-70AEEA552FBA";
shapes = (
{
closed = 1;
nodes = (
(928,0,l),
(953,140,l),
(288,140,l),
(288,146,l),
(768,589,ls),
(1003,806,o),
(1097,955,o),
(1097,1113,cs),
(1097,1315,o),
(959,1462,o),
(735,1462,cs),
(538,1462,o),
(369,1349,o),
(274,1150,c),
(411,1093,l),
(480,1238,o),
(593,1318,o),
(733,1318,cs),
(876,1318,o),
(945,1232,o),
(945,1117,cs),
(945,982,o),
(882,882,o),
(677,691,cs),
(96,149,l),
(70,0,l)
);
}
);
width = 1200;
},
{
background = {
shapes = (
{
closed = 1;
nodes = (
(1003,0,l),
(1060,324,l),
(532,324,l),
(534,334,l),
(830,599,ls),
(1058,804,o),
(1144,911,o),
(1164,1071,cs),
(1165,1079,ls),
(1195,1317,o),
(1059,1467,o),
(788,1467,cs),
(522,1467,o),
(314,1341,o),
(194,1104,c),
(507,985,l),
(554,1077,o),
(616,1125,o),
(691,1125,cs),
(763,1125,o),
(794,1080,o),
(783,1012,cs),
(782,1006,ls),
(770,936,o),
(734,886,o),
(628,789,cs),
(54,265,l),
(8,0,l)
);
}
);
};
layerId = "00586AEE-0022-45ED-9612-7F804652F2C7";
shapes = (
{
closed = 1;
nodes = (
(1002,0,l),
(1060,324,l),
(558,324,l),
(558,334,l),
(827,580,ls),
(1057,790,o),
(1147,910,o),
(1147,1082,cs),
(1147,1307,o),
(986,1467,o),
(734,1467,cs),
(491,1467,o),
(315,1353,o),
(194,1106,c),
(500,965,l),
(557,1081,o),
(611,1125,o),
(684,1125,cs),
(745,1125,o),
(777,1087,o),
(777,1028,cs),
(777,959,o),
(737,899,o),
(619,790,cs),
(54,265,l),
(7,0,l)
);
}
);
width = 1200;
},
{
associatedMasterId = "87470510-D880-4621-BF85-70AEEA552FBA";
background = {
shapes = (
{
closed = 1;
nodes = (
(928,0,l),
(953,140,l),
(275,140,l),
(276,146,l),
(787,625,ls),
(997,822,o),
(1073,931,o),
(1098,1070,cs),
(1100,1083,ls),
(1140,1307,o),
(1007,1462,o),
(778,1462,cs),
(585,1462,o),
(418,1364,o),
(278,1170,c),
(395,1097,l),
(499,1246,o),
(617,1318,o),
(755,1318,cs),
(903,1318,o),
(975,1235,o),
(950,1094,cs),
(948,1083,ls),
(928,967,o),
(866,876,o),
(698,718,cs),
(96,149,l),
(70,0,l)
);
}
);
};
layerId = "5A7A6975-BE9A-4295-83A5-CFBE56DFA650";
name = "1 Nov 24, 20:25";
shapes = (
{
closed = 1;
nodes = (
(928,0,l),
(953,140,l),
(288,140,l),
(288,146,l),
(768,589,ls),
(969,774,o),
(1064,896,o),
(1088,1026,cs),
(1090,1037,ls),
(1095,1062,o),
(1097,1084,o),
(1097,1106,cs),
(1097,1312,o),
(959,1462,o),
(735,1462,cs),
(538,1462,o),
(369,1349,o),
(274,1150,c),
(411,1093,l),
(480,1238,o),
(593,1318,o),
(733,1318,cs),
(874,1318,o),
(945,1230,o),
(945,1112,cs),
(945,1092,o),
(943,1071,o),
(939,1049,cs),
(937,1038,ls),
(919,937,o),
(855,857,o),
(677,691,cs),
(96,149,l),
(70,0,l)
);
}
);
width = 1200;
},
{
associatedMasterId = m006;
layerId = "7E093DCF-CFDC-43EA-8CED-9E1695269A31";
name = "1 Nov 24, 20:25";
shapes = (
{
closed = 1;
nodes = (
(943,0,l),
(975,177,l),
(347,177,l),
(347,184,l),
(781,584,ls),
(990,776,o),
(1075,894,o),
(1098,1020,cs),
(1100,1031,ls),
(1105,1055,o),
(1107,1078,o),
(1107,1102,cs),
(1107,1318,o),
(957,1463,o),
(735,1463,cs),
(526,1463,o),
(359,1348,o),
(258,1137,c),
(428,1064,l),
(496,1206,o),
(597,1280,o),
(723,1280,cs),
(840,1280,o),
(912,1210,o),
(912,1095,cs),
(912,1077,o),
(910,1059,o),
(906,1039,cs),
(904,1028,ls),
(888,939,o),
(834,868,o),
(666,711,cs),
(88,172,l),
(58,0,l)
);
}
);
width = 1200;
},
{
associatedMasterId = "90828D4A-10F7-4870-818F-40FC947ECC22";
layerId = "DA1FCD80-DFBB-404E-96D2-A49350321A79";
name = "1 Nov 24, 20:25";
shapes = (
{
closed = 1;
nodes = (
(988,0,l),
(1040,287,l),
(505,287,l),
(505,297,l),
(816,582,ls),
(1024,773,o),
(1108,886,o),
(1129,1002,cs),
(1131,1013,ls),
(1136,1038,o),
(1138,1062,o),
(1138,1089,cs),
(1138,1312,o),
(973,1466,o),
(735,1466,cs),
(496,1466,o),
(328,1349,o),
(209,1099,c),
(481,975,l),
(543,1108,o),
(607,1164,o),
(695,1164,cs),
(770,1164,o),
(812,1120,o),
(812,1044,cs),
(812,1031,o),
(811,1020,o),
(808,1008,cs),
(806,999,ls),
(792,934,o),
(753,883,o),
(632,770,cs),
(64,242,l),
(21,0,l)
);
}
);
visible = 1;
width = 1200;
},
{
associatedMasterId = "00586AEE-0022-45ED-9612-7F804652F2C7";
background = {
shapes = (
{
closed = 1;
nodes = (
(1003,0,l),
(1060,324,l),
(532,324,l),
(534,334,l),
(830,599,ls),
(1058,804,o),
(1144,911,o),
(1164,1071,cs),
(1165,1079,ls),
(1195,1317,o),
(1059,1467,o),
(788,1467,cs),
(522,1467,o),
(314,1341,o),
(194,1104,c),
(507,985,l),
(554,1077,o),
(616,1125,o),
(691,1125,cs),
(763,1125,o),
(794,1080,o),
(783,1012,cs),
(782,1006,ls),
(770,936,o),
(734,886,o),
(628,789,cs),
(54,265,l),
(8,0,l)
);
}
);
};
layerId = "E5148F7D-1CF7-466A-B119-74AADBCDF4A5";
name = "1 Nov 24, 20:25";
shapes = (
{
closed = 1;
nodes = (
(1002,0,l),
(1060,324,l),
(558,324,l),
(558,334,l),
(827,580,ls),
(1037,772,o),
(1116,878,o),
(1138,996,cs),
(1140,1007,ls),
(1145,1033,o),
(1147,1057,o),
(1147,1084,cs),
(1147,1309,o),
(977,1467,o),
(734,1467,cs),
(484,1467,o),
(316,1349,o),
(191,1086,c),
(497,945,l),
(559,1076,o),
(610,1125,o),
(684,1125,cs),
(744,1125,o),
(777,1091,o),
(777,1027,cs),
(777,1017,o),
(776,1008,o),
(774,998,cs),
(772,989,ls),
(760,933,o),
(725,888,o),
(619,790,cs),
(54,265,l),
(7,0,l)
);
}
);
width = 1200;
}
);
unicode = 50;
}
{
glyphname = three;
kernLeft = three_left;
kernRight = three_right;
layers = (
{
layerId = m006;
shapes = (
{
closed = 1;
nodes = (
(839,-31,o),
(1040,154,o),
(1040,408,cs),
(1040,564,o),
(962,680,o),
(807,725,c),
(808,733,l),
(1002,773,o),
(1120,905,o),
(1120,1095,cs),
(1120,1313,o),
(974,1463,o),
(729,1463,cs),
(504,1463,o),
(326,1335,o),
(252,1135,c),
(426,1074,l),
(472,1205,o),
(579,1288,o),
(718,1288,cs),
(854,1288,o),
(933,1212,o),
(933,1081,cs),
(933,924,o),
(819,825,o),
(632,825,cs),
(475,825,l),
(443,649,l),
(596,649,ls),
(762,649,o),
(853,561,o),
(853,416,cs),
(853,251,o),
(738,145,o),
(561,145,cs),
(392,145,o),
(280,239,o),
(264,390,c),
(84,361,l),
(111,128,o),
(302,-31,o),
(563,-31,cs)
);
}
);
width = 1200;
},
{
layerId = "90828D4A-10F7-4870-818F-40FC947ECC22";
shapes = (
{
closed = 1;
nodes = (
(876,-34,o),
(1086,147,o),
(1086,392,cs),
(1086,561,o),
(1003,672,o),
(842,712,c),
(843,720,l),
(1046,764,o),
(1168,898,o),
(1168,1084,cs),
(1168,1314,o),
(1013,1466,o),
(736,1466,cs),
(481,1466,o),
(289,1333,o),
(211,1122,c),
(490,1027,l),
(525,1122,o),
(605,1178,o),
(706,1178,cs),
(802,1178,o),
(857,1130,o),
(857,1046,cs),
(857,933,o),
(779,869,o),
(638,869,cs),
(455,869,l),
(405,587,l),
(595,587,ls),
(715,587,o),
(775,535,o),
(775,438,cs),
(775,327,o),
(695,255,o),
(571,255,cs),
(440,255,o),
(357,327,o),
(337,457,c),
(51,399,l),
(85,138,o),
(297,-34,o),
(591,-34,cs)
);
}
);
width = 1200;
},
{
background = {
shapes = (
{
closed = 1;
nodes = (
(770,-30,o),
(984,140,o),
(1025,372,cs),
(1029,393,ls),
(1060,571,o),
(978,708,o),
(815,745,c),
(816,751,l),
(980,800,o),
(1079,910,o),
(1108,1073,cs),
(1110,1083,ls),
(1149,1308,o),
(1016,1462,o),
(779,1462,cs),
(564,1462,o),
(376,1345,o),
(267,1143,c),
(395,1098,l),
(474,1244,o),
(600,1324,o),
(754,1324,cs),
(908,1324,o),
(990,1232,o),
(965,1088,cs),
(961,1068,ls),
(933,908,o),
(800,810,o),
(613,810,cs),
(499,810,l),
(474,670,l),
(604,670,ls),
(811,670,o),
(914,569,o),
(884,397,cs),
(879,369,ls),
(851,213,o),
(714,108,o),
(538,108,cs),
(364,108,o),
(252,204,o),
(237,368,c),
(92,330,l),
(111,107,o),
(271,-30,o),
(517,-30,cs)
);
}
);
};
layerId = "87470510-D880-4621-BF85-70AEEA552FBA";
shapes = (
{
closed = 1;
nodes = (
(827,-30,o),
(1025,156,o),
(1025,413,cs),
(1025,565,o),
(948,682,o),
(795,729,c),
(796,737,l),
(987,776,o),
(1104,907,o),
(1104,1098,cs),
(1104,1313,o),
(961,1462,o),
(726,1462,cs),
(512,1462,o),
(338,1335,o),
(265,1139,c),
(404,1089,l),
(454,1233,o),
(570,1324,o),
(722,1324,cs),
(871,1324,o),
(958,1239,o),
(958,1093,cs),
(958,921,o),
(832,810,o),
(630,810,cs),
(481,810,l),
(456,670,l),
(596,670,ls),
(778,670,o),
(879,569,o),
(879,408,cs),
(879,226,o),
(752,108,o),
(558,108,cs),
(376,108,o),
(254,209,o),
(239,368,c),
(95,348,l),
(119,125,o),
(304,-30,o),
(554,-30,cs)
);
}
);
width = 1200;
},
{
background = {
shapes = (
{
closed = 1;
nodes = (
(838,-35,o),
(1062,130,o),
(1105,373,cs),
(1106,383,ls),
(1137,555,o),
(1058,693,o),
(862,733,c),
(863,741,l),
(1039,791,o),
(1157,920,o),
(1186,1083,cs),
(1187,1093,ls),
(1227,1315,o),
(1066,1467,o),
(784,1467,cs),
(520,1467,o),
(297,1334,o),
(196,1118,c),
(495,1013,l),
(531,1092,o),
(608,1141,o),
(697,1141,cs),
(793,1141,o),
(835,1093,o),
(823,1023,cs),
(820,1007,ls),
(806,927,o),
(739,884,o),
(631,884,cs),
(467,884,l),
(411,566,l),
(611,566,ls),
(734,566,o),
(780,519,o),
(766,440,cs),
(763,422,ls),
(748,336,o),
(677,291,o),
(578,291,cs),
(449,291,o),
(377,354,o),
(361,480,c),
(33,374,l),
(61,109,o),
(240,-35,o),
(551,-35,cs)
);
}
);
};
layerId = "00586AEE-0022-45ED-9612-7F804652F2C7";
shapes = (
{
closed = 1;
nodes = (
(888,-35,o),
(1101,144,o),
(1101,386,cs),
(1101,560,o),
(1017,669,o),
(854,707,c),
(855,715,l),
(1061,761,o),
(1184,896,o),
(1184,1080,cs),
(1184,1314,o),
(1026,1467,o),
(738,1467,cs),
(473,1467,o),
(277,1332,o),
(197,1118,c),
(511,1011,l),
(542,1094,o),
(613,1141,o),
(702,1141,cs),
(785,1141,o),
(832,1102,o),
(832,1034,cs),
(832,936,o),
(765,884,o),
(640,884,cs),
(448,884,l),
(392,566,l),
(594,566,ls),
(699,566,o),
(749,526,o),
(749,445,cs),
(749,352,o),
(681,291,o),
(574,291,cs),
(456,291,o),
(383,356,o),
(361,479,c),
(40,411,l),
(76,141,o),
(295,-35,o),
(600,-35,cs)
);
}
);
width = 1200;
},
{
associatedMasterId = "90828D4A-10F7-4870-818F-40FC947ECC22";
layerId = "03343F7A-01E2-4800-9EB9-D50CED21F23B";
name = "16 Oct 24, 11:14";
shapes = (
{
closed = 1;
nodes = (
(876,-34,o),
(1087,151,o),
(1087,400,cs),
(1087,564,o),
(1002,672,o),
(837,710,c),
(838,718,l),
(1052,772,o),
(1168,906,o),
(1168,1101,cs),
(1168,1321,o),
(1019,1466,o),
(753,1466,cs),
(497,1466,o),
(292,1333,o),
(211,1122,c),
(490,1027,l),
(525,1122,o),
(605,1178,o),
(706,1178,cs),
(803,1178,o),
(859,1130,o),
(859,1046,cs),
(859,933,o),
(780,869,o),
(638,869,cs),
(455,869,l),
(405,587,l),
(596,587,ls),
(718,587,o),
(778,538,o),
(778,447,cs),
(778,329,o),
(697,254,o),
(571,254,cs),
(440,254,o),
(357,326,o),
(337,457,c),
(51,399,l),
(85,138,o),
(297,-34,o),
(591,-34,cs)
);
}
);
width = 1200;
},
{
associatedMasterId = m006;
layerId = "975E944A-4E2A-4F36-A878-C1685454DD07";
name = "16 Oct 24, 11:14";
shapes = (
{
closed = 1;
nodes = (
(840,-32,o),
(1041,154,o),
(1041,410,cs),
(1041,565,o),
(962,680,o),
(806,724,c),
(807,732,l),
(1003,775,o),
(1120,907,o),
(1120,1099,cs),
(1120,1316,o),
(976,1464,o),
(733,1464,cs),
(508,1464,o),
(327,1336,o),
(252,1135,c),
(426,1074,l),
(472,1205,o),
(579,1288,o),
(718,1288,cs),
(853,1288,o),
(932,1212,o),
(932,1081,cs),
(932,924,o),
(818,825,o),
(632,825,cs),
(475,825,l),
(443,649,l),
(596,649,ls),
(763,649,o),
(854,561,o),
(854,418,cs),
(854,251,o),
(738,144,o),
(561,144,cs),
(392,144,o),
(280,238,o),
(264,390,c),
(84,361,l),
(111,127,o),
(302,-32,o),
(563,-32,cs)
);
}
);
width = 1200;
}
);
unicode = 51;
}
{
color = 5;
glyphname = four;
kernLeft = four_left;
kernRight = four_right;
layers = (
{
layerId = m006;
shapes = (
{
closed = 1;
nodes = (
(816,0,l),
(1068,1432,l),
(872,1432,l),
(72,510,l),
(46,358,l),
(1093,358,l),
(1123,528,l),
(838,528,l),
(791,524,l),
(295,524,l),
(296,529,l),
(834,1148,l),
(920,1148,l),
(859,1257,l),
(720,466,l),
(706,421,l),
(632,0,l)
);
}
);
width = 1200;
},
{
layerId = "90828D4A-10F7-4870-818F-40FC947ECC22";
shapes = (
{
closed = 1;
nodes = (
(870,0,l),
(1122,1432,l),
(812,1432,l),
(50,549,l),
(7,305,l),
(1114,305,l),
(1162,574,l),
(859,574,l),
(785,559,l),
(366,559,l),
(366,567,l),
(762,1027,l),
(815,1027,l),
(782,1098,l),
(675,487,l),
(648,437,l),
(571,0,l)
);
}
);
width = 1200;
},
{
background = {
shapes = (
{
closed = 1;
nodes = (
(790,0,l),
(1042,1432,l),
(884,1432,l),
(82,497,l),
(61,376,l),
(1078,376,l),
(1102,512,l),
(833,512,l),
(795,512,l),
(260,512,l),
(261,516,l),
(855,1208,l),
(949,1208,l),
(877,1310,l),
(727,459,l),
(718,422,l),
(644,0,l)
);
}
);
};
layerId = "87470510-D880-4621-BF85-70AEEA552FBA";
shapes = (
{
closed = 1;
nodes = (
(798,0,l),
(1050,1432,l),
(892,1432,l),
(80,497,l),
(59,376,l),
(1086,376,l),
(1110,512,l),
(831,512,l),
(793,512,l),
(268,512,l),
(269,516,l),
(861,1198,l),
(957,1198,l),
(885,1310,l),
(735,459,l),
(725,416,l),
(652,0,l)
);
}
);
width = 1200;
},
{
background = {
shapes = (
{
closed = 1;
nodes = (
(875,0,l),
(1127,1432,l),
(779,1432,l),
(43,562,l),
(-6,287,l),
(1112,287,l),
(1166,589,l),
(867,589,l),
(784,571,l),
(369,571,l),
(371,580,l),
(726,999,l),
(766,999,l),
(743,1045,l),
(646,494,l),
(615,442,l),
(537,0,l)
);
}
);
};
layerId = "00586AEE-0022-45ED-9612-7F804652F2C7";
shapes = (
{
closed = 1;
nodes = (
(887,0,l),
(1139,1432,l),
(791,1432,l),
(41,562,l),
(-8,287,l),
(1119,287,l),
(1173,589,l),
(865,589,l),
(782,571,l),
(383,571,l),
(383,580,l),
(737,991,l),
(779,991,l),
(755,1045,l),
(658,494,l),
(627,442,l),
(549,0,l)
);
}
);
width = 1200;
},
{
background = {
shapes = (
{
closed = 1;
nodes = (
(796,0,l),
(1048,1432,l),
(890,1432,l),
(88,497,l),
(67,376,l),
(1084,376,l),
(1108,512,l),
(839,512,l),
(801,512,l),
(266,512,l),
(267,516,l),
(861,1208,l),
(955,1208,l),
(883,1310,l),
(733,459,l),
(724,422,l),
(650,0,l)
);
}
);
};
layerId = m005;
shapes = (
{
closed = 1;
nodes = (
(804,0,l),
(1056,1432,l),
(898,1432,l),
(86,497,l),
(65,376,l),
(1092,376,l),
(1116,512,l),
(837,512,l),
(799,512,l),
(274,512,l),
(275,516,l),
(867,1198,l),
(963,1198,l),
(891,1310,l),
(741,459,l),
(731,416,l),
(658,0,l)
);
}
);
width = 1188;
},
{
layerId = m007;
shapes = (
{
closed = 1;
nodes = (
(816,0,l),
(1068,1432,l),
(872,1432,l),
(72,510,l),
(46,358,l),
(1093,358,l),
(1123,528,l),
(838,528,l),
(791,524,l),
(295,524,l),
(296,529,l),
(834,1148,l),
(920,1148,l),
(859,1257,l),
(720,466,l),
(706,421,l),
(632,0,l)
);
}
);
width = 1200;
},
{
layerId = m008;
shapes = (
{
closed = 1;
nodes = (
(870,0,l),
(1122,1432,l),
(812,1432,l),
(50,549,l),
(7,305,l),
(1114,305,l),
(1162,574,l),
(859,574,l),
(785,559,l),
(366,559,l),
(366,567,l),
(762,1027,l),
(815,1027,l),
(782,1098,l),
(675,487,l),
(648,437,l),
(571,0,l)
);
}
);
width = 1200;
},
{
background = {
shapes = (
{
closed = 1;
nodes = (
(875,0,l),
(1127,1432,l),
(779,1432,l),
(43,562,l),
(-6,287,l),
(1112,287,l),
(1166,589,l),
(867,589,l),
(784,571,l),
(369,571,l),
(371,580,l),
(726,999,l),
(766,999,l),
(743,1045,l),
(646,494,l),
(615,442,l),
(537,0,l)
);
}
);
};
layerId = m009;
shapes = (
{
closed = 1;
nodes = (
(887,0,l),
(1139,1432,l),
(791,1432,l),
(41,562,l),
(-8,287,l),
(1119,287,l),
(1173,589,l),
(865,589,l),
(782,571,l),
(383,571,l),
(383,580,l),
(737,991,l),
(779,991,l),
(755,1045,l),
(658,494,l),
(627,442,l),
(549,0,l)
);
}
);
width = 1200;
}
);
unicode = 52;
}
{
color = 4;
glyphname = five;
kernLeft = five_left;
kernRight = five_right;
layers = (
{
layerId = m006;
shapes = (
{
closed = 1;
nodes = (
(849,-31,o),
(1067,199,o),
(1067,503,cs),
(1067,753,o),
(926,913,o),
(704,913,cs),
(586,913,o),
(484,877,o),
(390,805,c),
(386,807,l),
(541,1255,l),
(1124,1255,l),
(1156,1432,l),
(418,1432,l),
(182,703,l),
(365,620,l),
(448,699,o),
(545,739,o),
(652,739,cs),
(798,739,o),
(879,649,o),
(879,493,cs),
(879,292,o),
(740,145,o),
(549,145,cs),
(385,145,o),
(284,236,o),
(264,395,c),
(84,364,l),
(116,122,o),
(294,-31,o),
(546,-31,cs)
);
}
);
width = 1200;
},
{
layerId = "90828D4A-10F7-4870-818F-40FC947ECC22";
shapes = (
{
closed = 1;
nodes = (
(883,-34,o),
(1106,196,o),
(1106,514,cs),
(1106,776,o),
(974,938,o),
(752,938,cs),
(642,938,o),
(545,906,o),
(456,840,c),
(449,844,l),
(557,1155,l),
(1134,1155,l),
(1183,1432,l),
(379,1432,l),
(143,690,l),
(389,592,l),
(448,652,o),
(520,684,o),
(603,684,cs),
(725,684,o),
(796,608,o),
(796,487,cs),
(796,350,o),
(704,255,o),
(571,255,cs),
(445,255,o),
(361,328,o),
(336,456,c),
(48,390,l),
(97,126,o),
(294,-34,o),
(571,-34,cs)
);
}
);
width = 1200;
},
{
associatedMasterId = m006;
layerId = "632EFB59-C29E-4FED-A850-CDE9E31C7C50";
name = "4 Jun 24, 01:01";
shapes = (
{
closed = 1;
nodes = (
(895,-32,o),
(1080,159,o),
(1080,451,cs),
(1080,471,ls),
(1080,743,o),
(912,931,o),
(668,931,cs),
(547,931,o),
(435,887,o),
(353,807,c),
(348,809,l),
(406,1254,l),
(1002,1254,l),
(1002,1432,l),
(257,1432,l),
(162,687,l),
(356,627,l),
(427,715,o),
(515,757,o),
(628,757,cs),
(789,757,o),
(892,648,o),
(892,476,cs),
(892,446,ls),
(892,260,o),
(782,144,o),
(606,144,cs),
(444,144,o),
(330,233,o),
(284,395,c),
(112,342,l),
(179,108,o),
(365,-32,o),
(610,-32,cs)
);
}
);
width = 1200;
},
{
background = {
shapes = (
{
closed = 1;
nodes = (
(788,-30,o),
(1002,152,o),
(1052,434,cs),
(1056,457,ls),
(1103,722,o),
(966,905,o),
(717,905,cs),
(589,905,o),
(466,857,o),
(369,773,c),
(365,774,l),
(530,1288,l),
(1128,1288,l),
(1153,1432,l),
(431,1432,l),
(194,669,l),
(355,617,l),
(452,710,o),
(554,757,o),
(673,757,cs),
(851,757,o),
(943,644,o),
(911,463,cs),
(905,430,ls),
(871,235,o),
(724,108,o),
(528,108,cs),
(356,108,o),
(256,201,o),
(238,375,c),
(93,337,l),
(119,106,o),
(271,-30,o),
(506,-30,cs)
);
}
);
};
layerId = "87470510-D880-4621-BF85-70AEEA552FBA";
shapes = (
{
closed = 1;
nodes = (
(839,-30,o),
(1054,198,o),
(1054,495,cs),
(1054,743,o),
(911,905,o),
(688,905,cs),
(567,905,o),
(464,867,o),
(368,793,c),
(365,795,l),
(536,1288,l),
(1121,1288,l),
(1147,1432,l),
(431,1432,l),
(195,707,l),
(357,629,l),
(448,713,o),
(543,757,o),
(656,757,cs),
(819,757,o),
(908,660,o),
(908,490,cs),
(908,270,o),
(753,108,o),
(542,108,cs),
(365,108,o),
(258,205,o),
(240,375,c),
(96,355,l),
(122,120,o),
(294,-30,o),
(538,-30,cs)
);
}
);
width = 1200;
},
{
background = {
shapes = (
{
closed = 1;
nodes = (
(815,-35,o),
(1070,171,o),
(1123,474,cs),
(1125,481,ls),
(1174,759,o),
(1042,946,o),
(797,946,cs),
(676,946,o),
(569,906,o),
(466,822,c),
(457,826,l),
(552,1122,l),
(1147,1122,l),
(1201,1432,l),
(364,1432,l),
(134,668,l),
(410,577,l),
(465,633,o),
(543,666,o),
(620,666,cs),
(731,666,o),
(792,593,o),
(773,483,cs),
(770,466,ls),
(751,360,o),
(666,291,o),
(552,291,cs),
(440,291,o),
(367,360,o),
(358,476,c),
(29,361,l),
(51,119,o),
(232,-35,o),
(494,-35,cs)
);
}
);
};
layerId = "00586AEE-0022-45ED-9612-7F804652F2C7";
shapes = (
{
closed = 1;
nodes = (
(894,-35,o),
(1121,199,o),
(1121,526,cs),
(1121,786,o),
(988,946,o),
(766,946,cs),
(659,946,o),
(564,915,o),
(477,852,c),
(469,856,l),
(561,1122,l),
(1136,1122,l),
(1191,1432,l),
(364,1432,l),
(128,685,l),
(395,582,l),
(446,637,o),
(513,666,o),
(588,666,cs),
(699,666,o),
(769,599,o),
(769,493,cs),
(769,372,o),
(692,291,o),
(576,291,cs),
(464,291,o),
(385,358,o),
(359,476,c),
(35,398,l),
(89,127,o),
(292,-35,o),
(576,-35,cs)
);
}
);
width = 1200;
},
{
background = {
shapes = (
{
closed = 1;
nodes = (
(812,-30,o),
(1026,152,o),
(1076,434,cs),
(1080,457,ls),
(1127,722,o),
(990,905,o),
(741,905,cs),
(613,905,o),
(490,857,o),
(393,773,c),
(389,774,l),
(554,1288,l),
(1152,1288,l),
(1177,1432,l),
(455,1432,l),
(218,669,l),
(379,617,l),
(476,710,o),
(578,757,o),
(697,757,cs),
(875,757,o),
(967,644,o),
(935,463,cs),
(929,430,ls),
(895,235,o),
(748,108,o),
(552,108,cs),
(380,108,o),
(280,201,o),
(262,375,c),
(117,337,l),
(143,106,o),
(295,-30,o),
(530,-30,cs)
);
}
);
};
layerId = m005;
shapes = (
{
closed = 1;
nodes = (
(863,-30,o),
(1078,198,o),
(1078,495,cs),
(1078,743,o),
(935,905,o),
(712,905,cs),
(591,905,o),
(488,867,o),
(392,793,c),
(389,795,l),
(560,1288,l),
(1145,1288,l),
(1171,1432,l),
(455,1432,l),
(219,707,l),
(381,629,l),
(472,713,o),
(567,757,o),
(680,757,cs),
(843,757,o),
(932,660,o),
(932,490,cs),
(932,270,o),
(777,108,o),
(566,108,cs),
(389,108,o),
(282,205,o),
(264,375,c),
(120,355,l),
(146,120,o),
(318,-30,o),
(562,-30,cs)
);
}
);
width = 1212;
},
{
layerId = m007;
shapes = (
{
closed = 1;
nodes = (
(849,-31,o),
(1067,199,o),
(1067,503,cs),
(1067,753,o),
(926,913,o),
(704,913,cs),
(586,913,o),
(484,877,o),
(390,805,c),
(386,807,l),
(541,1255,l),
(1124,1255,l),
(1156,1432,l),
(418,1432,l),
(182,703,l),
(365,620,l),
(448,699,o),
(545,739,o),
(652,739,cs),
(798,739,o),
(879,649,o),
(879,493,cs),
(879,292,o),
(740,145,o),
(549,145,cs),
(385,145,o),
(284,236,o),
(264,395,c),
(84,364,l),
(116,122,o),
(294,-31,o),
(546,-31,cs)
);
}
);
width = 1200;
},
{
associatedMasterId = m007;
layerId = "09897D23-2F36-4C1D-8E53-A9014100823C";
name = "4 Jun 24, 01:01";
shapes = (
{
closed = 1;
nodes = (
(895,-32,o),
(1080,159,o),
(1080,451,cs),
(1080,471,ls),
(1080,743,o),
(912,931,o),
(668,931,cs),
(547,931,o),
(435,887,o),
(353,807,c),
(348,809,l),
(406,1254,l),
(1002,1254,l),
(1002,1432,l),
(257,1432,l),
(162,687,l),
(356,627,l),
(427,715,o),
(515,757,o),
(628,757,cs),
(789,757,o),
(892,648,o),
(892,476,cs),
(892,446,ls),
(892,260,o),
(782,144,o),
(606,144,cs),
(444,144,o),
(330,233,o),
(284,395,c),
(112,342,l),
(179,108,o),
(365,-32,o),
(610,-32,cs)
);
}
);
width = 1200;
},
{
layerId = m008;
shapes = (
{
closed = 1;
nodes = (
(883,-34,o),
(1106,196,o),
(1106,514,cs),
(1106,776,o),
(974,938,o),
(752,938,cs),
(642,938,o),
(545,906,o),
(456,840,c),
(449,844,l),
(557,1155,l),
(1134,1155,l),
(1183,1432,l),
(379,1432,l),
(143,690,l),
(389,592,l),
(448,652,o),
(520,684,o),
(603,684,cs),
(725,684,o),
(796,608,o),
(796,487,cs),
(796,350,o),
(704,255,o),
(571,255,cs),
(445,255,o),
(361,328,o),
(336,456,c),
(48,390,l),
(97,126,o),
(294,-34,o),
(571,-34,cs)
);
}
);
width = 1200;
},
{
layerId = m009;
shapes = (
{
closed = 1;
nodes = (
(876,-35,o),
(1103,199,o),
(1103,526,cs),
(1103,786,o),
(970,946,o),
(748,946,cs),
(641,946,o),
(546,915,o),
(459,852,c),
(451,856,l),
(543,1122,l),
(1118,1122,l),
(1173,1432,l),
(346,1432,l),
(110,685,l),
(377,582,l),
(428,637,o),
(495,666,o),
(570,666,cs),
(681,666,o),
(751,599,o),
(751,493,cs),
(751,372,o),
(674,291,o),
(558,291,cs),
(446,291,o),
(367,358,o),
(341,476,c),
(17,398,l),
(71,127,o),
(274,-35,o),
(558,-35,cs)
);
}
);
width = 1184;
}
);
unicode = 53;
}
{
color = 5;
glyphname = six;
kernLeft = six_left;
kernRight = six_right;
layers = (
{
layerId = m006;
shapes = (
{
closed = 1;
nodes = (
(856,-31,o),
(1061,185,o),
(1061,490,cs),
(1061,736,o),
(905,913,o),
(688,913,cs),
(617,913,o),
(552,897,o),
(486,862,c),
(481,868,l),
(565,925,o),
(619,968,o),
(677,1025,cs),
(1002,1349,l),
(868,1476,l),
(426,1015,ls),
(198,778,o),
(115,619,o),
(115,421,cs),
(115,159,o),
(306,-31,o),
(568,-31,cs)
);
},
{
closed = 1;
nodes = (
(409,147,o),
(303,255,o),
(303,428,cs),
(303,629,o),
(426,762,o),
(613,762,cs),
(777,762,o),
(873,659,o),
(873,482,cs),
(873,279,o),
(756,147,o),
(577,147,cs)
);
}
);
width = 1200;
},
{
layerId = "90828D4A-10F7-4870-818F-40FC947ECC22";
shapes = (
{
closed = 1;
nodes = (
(884,-34,o),
(1104,192,o),
(1104,508,cs),
(1104,757,o),
(950,927,o),
(725,927,cs),
(674,927,o),
(626,918,o),
(581,900,c),
(578,907,l),
(655,948,o),
(710,987,o),
(772,1044,cs),
(1027,1281,l),
(809,1490,l),
(419,1089,ls),
(169,832,o),
(80,663,o),
(80,446,cs),
(80,166,o),
(286,-34,o),
(576,-34,cs)
);
},
{
closed = 1;
nodes = (
(466,256,o),
(390,335,o),
(390,459,cs),
(390,606,o),
(474,699,o),
(607,699,cs),
(725,699,o),
(794,623,o),
(794,495,cs),
(794,347,o),
(715,256,o),
(586,256,cs)
);
}
);
width = 1200;
},
{
background = {
shapes = (
{
closed = 1;
nodes = (
(772,-30,o),
(1001,165,o),
(1049,435,cs),
(1053,458,ls),
(1099,719,o),
(952,916,o),
(712,916,cs),
(617,916,o),
(525,886,o),
(443,829,c),
(439,835,l),
(506,889,o),
(563,941,o),
(636,1017,cs),
(993,1383,l),
(887,1471,l),
(423,969,ls),
(242,774,o),
(154,626,o),
(126,467,cs),
(122,443,ls),
(73,166,o),
(231,-30,o),
(502,-30,cs)
);
},
{
closed = 1;
nodes = (
(338,110,o),
(234,239,o),
(268,429,cs),
(273,462,ls),
(307,652,o),
(459,782,o),
(647,782,cs),
(835,782,o),
(939,653,o),
(905,462,cs),
(900,429,ls),
(866,239,o),
(715,110,o),
(526,110,cs)
);
}
);
};
layerId = "87470510-D880-4621-BF85-70AEEA552FBA";
shapes = (
{
closed = 1;
nodes = (
(850,-30,o),
(1048,186,o),
(1048,490,cs),
(1048,728,o),
(893,906,o),
(668,906,cs),
(588,906,o),
(523,888,o),
(454,849,c),
(449,855,l),
(529,913,o),
(585,958,o),
(645,1018,cs),
(993,1371,l),
(887,1471,l),
(400,960,ls),
(196,746,o),
(127,602,o),
(127,408,cs),
(127,149,o),
(319,-30,o),
(567,-30,cs)
);
},
{
closed = 1;
nodes = (
(394,110,o),
(275,225,o),
(275,414,cs),
(275,634,o),
(416,782,o),
(619,782,cs),
(798,782,o),
(900,667,o),
(900,484,cs),
(900,258,o),
(770,110,o),
(571,110,cs)
);
}
);
width = 1200;
},
{
background = {
shapes = (
{
closed = 1;
nodes = (
(812,-32,o),
(1069,180,o),
(1122,481,cs),
(1123,488,ls),
(1170,755,o),
(1052,944,o),
(804,944,cs),
(736,944,o),
(676,932,o),
(621,910,c),
(619,918,l),
(683,956,o),
(733,995,o),
(789,1047,cs),
(1044,1289,l),
(797,1495,l),
(430,1104,ls),
(196,855,o),
(98,684,o),
(64,493,cs),
(63,487,ls),
(9,184,o),
(189,-32,o),
(499,-32,cs)
);
},
{
closed = 1;
nodes = (
(442,294,o),
(392,368,o),
(411,479,cs),
(414,496,ls),
(434,607,o),
(510,680,o),
(627,680,cs),
(744,680,o),
(794,606,o),
(774,496,cs),
(771,479,ls),
(752,368,o),
(676,294,o),
(559,294,cs)
);
}
);
};
layerId = "00586AEE-0022-45ED-9612-7F804652F2C7";
shapes = (
{
closed = 1;
nodes = (
(893,-35,o),
(1118,194,o),
(1118,515,cs),
(1118,764,o),
(965,932,o),
(737,932,cs),
(692,932,o),
(650,925,o),
(613,912,c),
(610,920,l),
(686,957,o),
(741,994,o),
(803,1050,cs),
(1035,1258,l),
(789,1495,l),
(416,1113,ls),
(158,849,o),
(68,678,o),
(68,453,cs),
(68,167,o),
(280,-35,o),
(579,-35,cs)
);
},
{
closed = 1;
nodes = (
(486,294,o),
(414,364,o),
(414,469,cs),
(414,602,o),
(488,680,o),
(604,680,cs),
(710,680,o),
(772,611,o),
(772,499,cs),
(772,366,o),
(701,294,o),
(589,294,cs)
);
}
);
width = 1200;
},
{
background = {
shapes = (
{
closed = 1;
nodes = (
(766,-30,o),
(995,165,o),
(1043,435,cs),
(1047,458,ls),
(1093,719,o),
(946,916,o),
(706,916,cs),
(611,916,o),
(519,886,o),
(437,829,c),
(433,835,l),
(500,889,o),
(557,941,o),
(630,1017,cs),
(987,1383,l),
(881,1471,l),
(417,969,ls),
(236,774,o),
(148,626,o),
(120,467,cs),
(116,443,ls),
(67,166,o),
(225,-30,o),
(496,-30,cs)
);
},
{
closed = 1;
nodes = (
(332,110,o),
(228,239,o),
(262,429,cs),
(267,462,ls),
(301,652,o),
(453,782,o),
(641,782,cs),
(829,782,o),
(933,653,o),
(899,462,cs),
(894,429,ls),
(860,239,o),
(709,110,o),
(520,110,cs)
);
}
);
};
layerId = m005;
shapes = (
{
closed = 1;
nodes = (
(850,-30,o),
(1052,186,o),
(1052,490,cs),
(1052,728,o),
(893,906,o),
(662,906,cs),
(582,906,o),
(517,888,o),
(448,849,c),
(443,855,l),
(523,913,o),
(579,958,o),
(639,1018,cs),
(987,1371,l),
(881,1471,l),
(394,960,ls),
(190,746,o),
(121,602,o),
(121,408,cs),
(121,149,o),
(313,-30,o),
(561,-30,cs)
);
},
{
closed = 1;
nodes = (
(388,110,o),
(269,225,o),
(269,414,cs),
(269,634,o),
(410,782,o),
(613,782,cs),
(798,782,o),
(904,667,o),
(904,484,cs),
(904,258,o),
(770,110,o),
(565,110,cs)
);
}
);
width = 1168;
},
{
layerId = m007;
shapes = (
{
closed = 1;
nodes = (
(856,-31,o),
(1061,185,o),
(1061,490,cs),
(1061,736,o),
(905,913,o),
(688,913,cs),
(617,913,o),
(552,897,o),
(486,862,c),
(481,868,l),
(565,925,o),
(619,968,o),
(677,1025,cs),
(1002,1349,l),
(868,1476,l),
(426,1015,ls),
(198,778,o),
(115,619,o),
(115,421,cs),
(115,159,o),
(306,-31,o),
(568,-31,cs)
);
},
{
closed = 1;
nodes = (
(409,147,o),
(303,255,o),
(303,428,cs),
(303,629,o),
(426,762,o),
(613,762,cs),
(777,762,o),
(873,659,o),
(873,482,cs),
(873,279,o),
(756,147,o),
(577,147,cs)
);
}
);
width = 1200;
},
{
layerId = m008;
shapes = (
{
closed = 1;
nodes = (
(884,-34,o),
(1104,192,o),
(1104,508,cs),
(1104,757,o),
(950,927,o),
(725,927,cs),
(674,927,o),
(626,918,o),
(581,900,c),
(578,907,l),
(655,948,o),
(710,987,o),
(772,1044,cs),
(1027,1281,l),
(809,1490,l),
(419,1089,ls),
(169,832,o),
(80,663,o),
(80,446,cs),
(80,166,o),
(286,-34,o),
(576,-34,cs)
);
},
{
closed = 1;
nodes = (
(466,256,o),
(390,335,o),
(390,459,cs),
(390,606,o),
(474,699,o),
(607,699,cs),
(725,699,o),
(794,623,o),
(794,495,cs),
(794,347,o),
(715,256,o),
(586,256,cs)
);
}
);
width = 1200;
},
{
layerId = m009;
shapes = (
{
closed = 1;
nodes = (
(923,-35,o),
(1149,194,o),
(1149,515,cs),
(1149,764,o),
(1000,932,o),
(779,932,cs),
(729,932,o),
(683,925,o),
(642,912,c),
(639,920,l),
(715,957,o),
(770,994,o),
(832,1050,cs),
(1064,1258,l),
(818,1495,l),
(445,1113,ls),
(186,848,o),
(95,678,o),
(95,453,cs),
(95,167,o),
(308,-35,o),
(608,-35,cs)
);
},
{
closed = 1;
nodes = (
(514,294,o),
(441,364,o),
(441,469,cs),
(441,602,o),
(516,680,o),
(633,680,cs),
(740,680,o),
(803,611,o),
(803,499,cs),
(803,366,o),
(731,294,o),
(618,294,cs)
);
}
);
width = 1228;
}
);
unicode = 54;
}
{
glyphname = seven;
kernLeft = seven_left;
kernRight = seven_right;
layers = (
{
layerId = m006;
shapes = (
{
closed = 1;
nodes = (
(1196,1273,l),
(1224,1432,l),
(296,1432,l),
(265,1252,l),
(960,1252,l),
(960,1247,l),
(172,73,l),
(329,-32,l)
);
}
);
width = 1200;
},
{
layerId = "90828D4A-10F7-4870-818F-40FC947ECC22";
shapes = (
{
closed = 1;
nodes = (
(1211,1190,l),
(1253,1432,l),
(266,1432,l),
(216,1143,l),
(817,1143,l),
(817,1135,l),
(150,135,l),
(403,-34,l)
);
}
);
width = 1200;
},
{
background = {
shapes = (
{
closed = 1;
nodes = (
(1191,1301,l),
(1214,1432,l),
(306,1432,l),
(281,1288,l),
(1018,1288,l),
(1017,1284,l),
(179,32,l),
(304,-31,l)
);
}
);
};
layerId = "87470510-D880-4621-BF85-70AEEA552FBA";
shapes = (
{
closed = 1;
nodes = (
(1191,1301,l),
(1214,1432,l),
(306,1432,l),
(281,1288,l),
(1010,1288,l),
(1010,1284,l),
(179,52,l),
(304,-31,l)
);
}
);
width = 1200;
},
{
background = {
shapes = (
{
closed = 1;
nodes = (
(1216,1162,l),
(1263,1432,l),
(256,1432,l),
(199,1106,l),
(796,1106,l),
(794,1097,l),
(134,112,l),
(423,-35,l)
);
}
);
};
layerId = "00586AEE-0022-45ED-9612-7F804652F2C7";
shapes = (
{
closed = 1;
nodes = (
(1216,1162,l),
(1263,1432,l),
(256,1432,l),
(199,1106,l),
(769,1106,l),
(769,1097,l),
(142,156,l),
(427,-35,l)
);
}
);
width = 1200;
}
);
unicode = 55;
}
{
color = 4;
glyphname = eight;
kernLeft = eight_left;
kernRight = eight_right;
layers = (
{
layerId = m006;
shapes = (
{
closed = 1;
nodes = (
(838,-31,o),
(1036,150,o),
(1036,395,cs),
(1036,544,o),
(963,665,o),
(833,733,c),
(834,742,l),
(997,806,o),
(1095,936,o),
(1095,1093,cs),
(1095,1310,o),
(934,1463,o),
(701,1463,cs),
(456,1463,o),
(273,1293,o),
(273,1074,cs),
(273,957,o),
(330,855,o),
(434,791,c),
(433,782,l),
(246,725,o),
(116,574,o),
(116,381,cs),
(116,143,o),
(310,-31,o),
(568,-31,cs)
);
},
{
closed = 1;
nodes = (
(411,140,o),
(301,243,o),
(301,390,cs),
(301,557,o),
(418,672,o),
(585,672,cs),
(743,672,o),
(852,567,o),
(852,414,cs),
(852,253,o),
(736,140,o),
(569,140,cs)
);
},
{
closed = 1;
nodes = (
(542,843,o),
(455,928,o),
(455,1057,cs),
(455,1196,o),
(554,1293,o),
(695,1293,cs),
(826,1293,o),
(913,1208,o),
(913,1079,cs),
(913,939,o),
(816,843,o),
(674,843,cs)
);
}
);
width = 1200;
},
{
layerId = "90828D4A-10F7-4870-818F-40FC947ECC22";
shapes = (
{
closed = 1;
nodes = (
(870,-34,o),
(1075,147,o),
(1075,394,cs),
(1075,545,o),
(1002,658,o),
(870,728,c),
(872,740,l),
(1035,802,o),
(1136,931,o),
(1136,1090,cs),
(1136,1315,o),
(968,1466,o),
(695,1466,cs),
(417,1466,o),
(226,1303,o),
(226,1076,cs),
(226,962,o),
(283,861,o),
(388,795,c),
(387,783,l),
(199,721,o),
(78,576,o),
(78,392,cs),
(78,139,o),
(287,-34,o),
(579,-34,cs)
);
},
{
closed = 1;
nodes = (
(457,237,o),
(379,310,o),
(379,413,cs),
(379,545,o),
(465,635,o),
(589,635,cs),
(703,635,o),
(776,566,o),
(776,457,cs),
(776,325,o),
(692,237,o),
(566,237,cs)
);
},
{
closed = 1;
nodes = (
(576,875,o),
(516,934,o),
(516,1026,cs),
(516,1129,o),
(588,1200,o),
(693,1200,cs),
(786,1200,o),
(846,1141,o),
(846,1049,cs),
(846,948,o),
(773,875,o),
(669,875,cs)
);
}
);
width = 1200;
},
{
background = {
shapes = (
{
closed = 1;
nodes = (
(759,-30,o),
(985,144,o),
(1026,377,cs),
(1029,394,ls),
(1058,556,o),
(986,697,o),
(846,761,c),
(847,765,l),
(980,825,o),
(1075,942,o),
(1099,1078,cs),
(1101,1090,ls),
(1139,1305,o),
(997,1462,o),
(766,1462,cs),
(535,1462,o),
(337,1305,o),
(299,1090,cs),
(297,1078,ls),
(273,943,o),
(325,826,o),
(439,765,c),
(438,761,l),
(276,697,o),
(154,556,o),
(125,394,cs),
(122,377,ls),
(81,144,o),
(245,-30,o),
(502,-30,cs)
);
},
{
closed = 1;
nodes = (
(348,108,o),
(241,223,o),
(269,384,cs),
(274,408,ls),
(302,569,o),
(449,684,o),
(628,684,cs),
(807,684,o),
(914,569,o),
(886,408,cs),
(881,384,ls),
(853,223,o),
(706,108,o),
(527,108,cs)
);
},
{
closed = 1;
nodes = (
(502,832,o),
(416,927,o),
(441,1067,cs),
(445,1089,ls),
(470,1230,o),
(589,1324,o),
(741,1324,cs),
(894,1324,o),
(980,1230,o),
(955,1089,cs),
(951,1067,ls),
(926,927,o),
(806,832,o),
(654,832,cs)
);
}
);
};
layerId = "87470510-D880-4621-BF85-70AEEA552FBA";
shapes = (
{
closed = 1;
nodes = (
(827,-30,o),
(1023,151,o),
(1023,395,cs),
(1023,543,o),
(950,667,o),
(820,735,c),
(821,743,l),
(984,807,o),
(1081,937,o),
(1081,1094,cs),
(1081,1308,o),
(923,1462,o),
(703,1462,cs),
(469,1462,o),
(289,1290,o),
(289,1073,cs),
(289,955,o),
(346,853,o),
(449,789,c),
(448,781,l),
(262,726,o),
(129,573,o),
(129,377,cs),
(129,144,o),
(317,-30,o),
(564,-30,cs)
);
},
{
closed = 1;
nodes = (
(396,108,o),
(275,220,o),
(275,382,cs),
(275,561,o),
(402,684,o),
(583,684,cs),
(756,684,o),
(877,567,o),
(877,400,cs),
(877,229,o),
(750,108,o),
(570,108,cs)
);
},
{
closed = 1;
nodes = (
(531,832,o),
(435,926,o),
(435,1067,cs),
(435,1218,o),
(542,1324,o),
(695,1324,cs),
(839,1324,o),
(935,1230,o),
(935,1089,cs),
(935,936,o),
(830,832,o),
(675,832,cs)
);
}
);
width = 1200;
},
{
background = {
shapes = (
{
closed = 1;
nodes = (
(809,-35,o),
(1050,136,o),
(1094,386,cs),
(1094,389,ls),
(1123,550,o),
(1051,696,o),
(911,756,c),
(913,765,l),
(1049,827,o),
(1150,946,o),
(1172,1076,cs),
(1173,1078,ls),
(1214,1311,o),
(1051,1467,o),
(766,1467,cs),
(481,1467,o),
(264,1311,o),
(223,1078,cs),
(222,1076,ls),
(200,946,o),
(258,825,o),
(373,765,c),
(371,756,l),
(208,696,o),
(87,552,o),
(58,389,cs),
(58,386,ls),
(14,136,o),
(195,-35,o),
(502,-35,cs)
);
},
{
closed = 1;
nodes = (
(448,269,o),
(393,335,o),
(411,439,cs),
(414,453,ls),
(432,557,o),
(511,623,o),
(618,623,cs),
(725,623,o),
(780,557,o),
(762,453,cs),
(759,439,ls),
(741,335,o),
(662,269,o),
(555,269,cs)
);
},
{
closed = 1;
nodes = (
(578,886,o),
(532,939,o),
(547,1021,cs),
(549,1033,ls),
(563,1115,o),
(628,1169,o),
(714,1169,cs),
(800,1169,o),
(845,1115,o),
(831,1033,cs),
(829,1021,ls),
(814,938,o),
(750,886,o),
(664,886,cs)
);
}
);
};
layerId = "00586AEE-0022-45ED-9612-7F804652F2C7";
shapes = (
{
closed = 1;
nodes = (
(881,-35,o),
(1088,146,o),
(1088,393,cs),
(1088,545,o),
(1015,656,o),
(882,726,c),
(884,739,l),
(1048,800,o),
(1149,929,o),
(1149,1089,cs),
(1149,1317,o),
(979,1467,o),
(693,1467,cs),
(404,1467,o),
(210,1306,o),
(210,1077,cs),
(210,963,o),
(267,863,o),
(373,796,c),
(371,783,l),
(183,720,o),
(65,577,o),
(65,395,cs),
(65,138,o),
(279,-35,o),
(582,-35,cs)
);
},
{
closed = 1;
nodes = (
(472,269,o),
(405,332,o),
(405,420,cs),
(405,541,o),
(480,623,o),
(590,623,cs),
(690,623,o),
(750,565,o),
(750,471,cs),
(750,349,o),
(677,269,o),
(565,269,cs)
);
},
{
closed = 1;
nodes = (
(587,886,o),
(536,936,o),
(536,1016,cs),
(536,1106,o),
(599,1169,o),
(692,1169,cs),
(772,1169,o),
(823,1119,o),
(823,1039,cs),
(823,951,o),
(759,886,o),
(667,886,cs)
);
}
);
width = 1200;
},
{
background = {
shapes = (
{
closed = 1;
nodes = (
(727,-30,o),
(953,144,o),
(994,377,cs),
(997,394,ls),
(1026,556,o),
(954,697,o),
(814,761,c),
(815,765,l),
(948,825,o),
(1043,942,o),
(1067,1078,cs),
(1069,1090,ls),
(1107,1305,o),
(965,1462,o),
(734,1462,cs),
(503,1462,o),
(305,1305,o),
(267,1090,cs),
(265,1078,ls),
(241,943,o),
(293,826,o),
(407,765,c),
(406,761,l),
(244,697,o),
(122,556,o),
(93,394,cs),
(90,377,ls),
(49,144,o),
(213,-30,o),
(470,-30,cs)
);
},
{
closed = 1;
nodes = (
(316,108,o),
(209,223,o),
(237,384,cs),
(242,408,ls),
(270,569,o),
(417,684,o),
(596,684,cs),
(775,684,o),
(882,569,o),
(854,408,cs),
(849,384,ls),
(821,223,o),
(674,108,o),
(495,108,cs)
);
},
{
closed = 1;
nodes = (
(470,832,o),
(384,927,o),
(409,1067,cs),
(413,1089,ls),
(438,1230,o),
(557,1324,o),
(709,1324,cs),
(862,1324,o),
(948,1230,o),
(923,1089,cs),
(919,1067,ls),
(894,927,o),
(774,832,o),
(622,832,cs)
);
}
);
};
layerId = m005;
shapes = (
{
closed = 1;
nodes = (
(799,-30,o),
(997,151,o),
(997,395,cs),
(997,543,o),
(922,667,o),
(788,735,c),
(789,743,l),
(955,807,o),
(1053,937,o),
(1053,1094,cs),
(1053,1308,o),
(893,1462,o),
(671,1462,cs),
(433,1462,o),
(253,1292,o),
(253,1077,cs),
(253,957,o),
(311,852,o),
(417,789,c),
(416,781,l),
(222,726,o),
(91,572,o),
(91,375,cs),
(91,141,o),
(281,-30,o),
(532,-30,cs)
);
},
{
closed = 1;
nodes = (
(360,108,o),
(237,217,o),
(237,380,cs),
(237,560,o),
(366,684,o),
(551,684,cs),
(728,684,o),
(851,567,o),
(851,400,cs),
(851,229,o),
(722,108,o),
(538,108,cs)
);
},
{
closed = 1;
nodes = (
(497,832,o),
(399,926,o),
(399,1067,cs),
(399,1218,o),
(508,1324,o),
(663,1324,cs),
(809,1324,o),
(907,1230,o),
(907,1089,cs),
(907,936,o),
(800,832,o),
(643,832,cs)
);
}
);
width = 1136;
},
{
layerId = m007;
shapes = (
{
closed = 1;
nodes = (
(804,-31,o),
(1002,150,o),
(1002,395,cs),
(1002,544,o),
(929,665,o),
(799,733,c),
(800,742,l),
(963,806,o),
(1061,936,o),
(1061,1093,cs),
(1061,1310,o),
(900,1463,o),
(667,1463,cs),
(422,1463,o),
(239,1293,o),
(239,1074,cs),
(239,957,o),
(296,855,o),
(400,791,c),
(399,782,l),
(212,725,o),
(82,574,o),
(82,381,cs),
(82,143,o),
(276,-31,o),
(534,-31,cs)
);
},
{
closed = 1;
nodes = (
(377,140,o),
(267,243,o),
(267,390,cs),
(267,557,o),
(384,672,o),
(551,672,cs),
(709,672,o),
(818,567,o),
(818,414,cs),
(818,253,o),
(702,140,o),
(535,140,cs)
);
},
{
closed = 1;
nodes = (
(508,843,o),
(421,928,o),
(421,1057,cs),
(421,1196,o),
(520,1293,o),
(661,1293,cs),
(792,1293,o),
(879,1208,o),
(879,1079,cs),
(879,939,o),
(782,843,o),
(640,843,cs)
);
}
);
width = 1132;
},
{
layerId = m008;
shapes = (
{
closed = 1;
nodes = (
(845,-34,o),
(1050,147,o),
(1050,394,cs),
(1050,545,o),
(977,658,o),
(845,728,c),
(847,740,l),
(1010,802,o),
(1111,931,o),
(1111,1090,cs),
(1111,1315,o),
(943,1466,o),
(670,1466,cs),
(392,1466,o),
(201,1303,o),
(201,1076,cs),
(201,962,o),
(258,861,o),
(363,795,c),
(362,783,l),
(174,721,o),
(53,576,o),
(53,392,cs),
(53,139,o),
(262,-34,o),
(554,-34,cs)
);
},
{
closed = 1;
nodes = (
(432,237,o),
(354,310,o),
(354,413,cs),
(354,545,o),
(440,635,o),
(564,635,cs),
(678,635,o),
(751,566,o),
(751,457,cs),
(751,325,o),
(667,237,o),
(541,237,cs)
);
},
{
closed = 1;
nodes = (
(551,875,o),
(491,934,o),
(491,1026,cs),
(491,1129,o),
(563,1200,o),
(668,1200,cs),
(761,1200,o),
(821,1141,o),
(821,1049,cs),
(821,948,o),
(748,875,o),
(644,875,cs)
);
}
);
width = 1150;
},
{
layerId = m009;
shapes = (
{
closed = 1;
nodes = (
(865,-35,o),
(1074,146,o),
(1074,393,cs),
(1074,545,o),
(1000,656,o),
(864,726,c),
(866,739,l),
(1032,800,o),
(1135,929,o),
(1135,1089,cs),
(1135,1317,o),
(964,1467,o),
(675,1467,cs),
(384,1467,o),
(188,1306,o),
(188,1077,cs),
(188,963,o),
(246,863,o),
(355,796,c),
(353,783,l),
(163,720,o),
(43,577,o),
(43,395,cs),
(43,138,o),
(259,-35,o),
(564,-35,cs)
);
},
{
closed = 1;
nodes = (
(452,269,o),
(383,332,o),
(383,420,cs),
(383,541,o),
(460,623,o),
(572,623,cs),
(675,623,o),
(736,565,o),
(736,471,cs),
(736,349,o),
(661,269,o),
(547,269,cs)
);
},
{
closed = 1;
nodes = (
(567,886,o),
(514,936,o),
(514,1016,cs),
(514,1106,o),
(579,1169,o),
(674,1169,cs),
(756,1169,o),
(809,1119,o),
(809,1039,cs),
(809,951,o),
(743,886,o),
(649,886,cs)
);
}
);
width = 1164;
}
);
unicode = 56;
}
{
color = 9;
glyphname = colon;
kernLeft = colon_left;
kernRight = colon_right;
layers = (
{
background = {
shapes = (
{
ref = period;
},
{
closed = 1;
nodes = (
(734,747,o),
(820,819,o),
(836,914,cs),
(853,1009,o),
(792,1079,o),
(697,1079,cs),
(602,1079,o),
(517,1009,o),
(500,914,cs),
(484,819,o),
(544,747,o),
(639,747,cs)
);
},
{
closed = 1;
nodes = (
(598,-32,o),
(683,40,o),
(700,135,cs),
(717,230,o),
(656,300,o),
(561,300,cs),
(466,300,o),
(381,230,o),
(364,135,cs),
(347,40,o),
(408,-32,o),
(503,-32,cs)
);
}
);
};
layerId = m006;
shapes = (
{
closed = 1;
nodes = (
(624,-30,o),
(695,41,o),
(695,134,cs),
(695,224,o),
(624,296,o),
(531,296,cs),
(440,296,o),
(367,224,o),
(367,134,cs),
(367,41,o),
(438,-30,o),
(531,-30,cs)
);
},
{
closed = 1;
nodes = (
(762,752,o),
(833,823,o),
(833,916,cs),
(833,1006,o),
(762,1078,o),
(669,1078,cs),
(578,1078,o),
(505,1006,o),
(505,916,cs),
(505,824,o),
(576,752,o),
(669,752,cs)
);
}
);
width = 1200;
},
{
background = {
shapes = (
{
ref = period;
},
{
closed = 1;
nodes = (
(739,670,o),
(847,760,o),
(868,878,cs),
(888,996,o),
(812,1086,o),
(694,1086,cs),
(576,1086,o),
(468,996,o),
(448,878,cs),
(427,760,o),
(503,670,o),
(621,670,cs)
);
},
{
closed = 1;
nodes = (
(616,-34,o),
(724,56,o),
(744,174,cs),
(765,292,o),
(689,382,o),
(571,382,cs),
(453,382,o),
(345,292,o),
(324,174,cs),
(304,56,o),
(380,-34,o),
(498,-34,cs)
);
}
);
};
layerId = "90828D4A-10F7-4870-818F-40FC947ECC22";
shapes = (
{
closed = 1;
nodes = (
(656,-30,o),
(745,59,o),
(745,175,cs),
(745,289,o),
(655,379,o),
(539,379,cs),
(424,379,o),
(333,288,o),
(333,175,cs),
(333,60,o),
(423,-30,o),
(539,-30,cs)
);
},
{
closed = 1;
nodes = (
(779,678,o),
(868,767,o),
(868,882,cs),
(868,996,o),
(779,1086,o),
(662,1086,cs),
(547,1086,o),
(456,996,o),
(456,882,cs),
(456,768,o),
(547,678,o),
(662,678,cs)
);
}
);
width = 1200;
},
{
background = {
shapes = (
{
closed = 1;
nodes = (
(730,777,o),
(806,842,o),
(821,927,cs),
(836,1009,o),
(782,1075,o),
(696,1075,cs),
(614,1075,o),
(536,1009,o),
(521,927,cs),
(506,842,o),
(560,777,o),
(644,777,cs)
);
},
{
closed = 1;
nodes = (
(588,-30,o),
(664,35,o),
(679,120,cs),
(693,202,o),
(640,268,o),
(554,268,cs),
(472,268,o),
(393,202,o),
(379,120,cs),
(364,35,o),
(418,-30,o),
(502,-30,cs)
);
}
);
};
layerId = "87470510-D880-4621-BF85-70AEEA552FBA";
shapes = (
{
closed = 1;
nodes = (
(613,-30,o),
(678,35,o),
(678,120,cs),
(678,202,o),
(613,268,o),
(528,268,cs),
(445,268,o),
(378,202,o),
(378,120,cs),
(378,35,o),
(443,-30,o),
(528,-30,cs)
);
},
{
closed = 1;
nodes = (
(756,777,o),
(821,842,o),
(821,927,cs),
(821,1009,o),
(756,1075,o),
(671,1075,cs),
(588,1075,o),
(521,1009,o),
(521,927,cs),
(521,842,o),
(586,777,o),
(671,777,cs)
);
}
);
width = 1200;
},
{
background = {
shapes = (
{
closed = 1;
nodes = (
(748,653,o),
(860,748,o),
(881,871,cs),
(903,992,o),
(825,1089,o),
(700,1089,cs),
(577,1089,o),
(463,992,o),
(441,871,cs),
(420,748,o),
(501,653,o),
(623,653,cs)
);
},
{
closed = 1;
nodes = (
(627,-30,o),
(739,65,o),
(761,188,cs),
(782,309,o),
(704,406,o),
(579,406,cs),
(456,406,o),
(342,309,o),
(321,188,cs),
(299,65,o),
(380,-30,o),
(502,-30,cs)
);
}
);
};
layerId = "00586AEE-0022-45ED-9612-7F804652F2C7";
shapes = (
{
closed = 1;
nodes = (
(666,-30,o),
(761,65,o),
(761,188,cs),
(761,310,o),
(665,406,o),
(541,406,cs),
(418,406,o),
(321,309,o),
(321,188,cs),
(321,66,o),
(418,-30,o),
(541,-30,cs)
);
},
{
closed = 1;
nodes = (
(785,653,o),
(880,748,o),
(880,871,cs),
(880,993,o),
(784,1089,o),
(660,1089,cs),
(537,1089,o),
(440,992,o),
(440,871,cs),
(440,749,o),
(537,653,o),
(660,653,cs)
);
}
);
width = 1200;
},
{
background = {
shapes = (
{
closed = 1;
nodes = (
(443,777,o),
(519,842,o),
(534,927,cs),
(549,1009,o),
(495,1075,o),
(409,1075,cs),
(327,1075,o),
(249,1009,o),
(234,927,cs),
(219,842,o),
(273,777,o),
(357,777,cs)
);
},
{
closed = 1;
nodes = (
(301,-30,o),
(377,35,o),
(392,120,cs),
(406,202,o),
(353,268,o),
(267,268,cs),
(185,268,o),
(106,202,o),
(92,120,cs),
(77,35,o),
(131,-30,o),
(215,-30,cs)
);
}
);
};
layerId = m005;
shapes = (
{
closed = 1;
nodes = (
(326,-30,o),
(391,35,o),
(391,120,cs),
(391,202,o),
(326,268,o),
(241,268,cs),
(158,268,o),
(91,202,o),
(91,120,cs),
(91,35,o),
(156,-30,o),
(241,-30,cs)
);
},
{
closed = 1;
nodes = (
(469,777,o),
(534,842,o),
(534,927,cs),
(534,1009,o),
(469,1075,o),
(384,1075,cs),
(301,1075,o),
(234,1009,o),
(234,927,cs),
(234,842,o),
(299,777,o),
(384,777,cs)
);
}
);
width = 625;
},
{
layerId = m007;
shapes = (
{
closed = 1;
nodes = (
(337,-30,o),
(408,41,o),
(408,134,cs),
(408,224,o),
(337,296,o),
(244,296,cs),
(153,296,o),
(80,224,o),
(80,134,cs),
(80,41,o),
(151,-30,o),
(244,-30,cs)
);
},
{
closed = 1;
nodes = (
(475,752,o),
(546,823,o),
(546,916,cs),
(546,1006,o),
(475,1078,o),
(382,1078,cs),
(291,1078,o),
(218,1006,o),
(218,916,cs),
(218,824,o),
(289,752,o),
(382,752,cs)
);
}
);
width = 626;
},
{
layerId = m008;
shapes = (
{
closed = 1;
nodes = (
(370,-30,o),
(459,59,o),
(459,175,cs),
(459,289,o),
(369,379,o),
(253,379,cs),
(138,379,o),
(47,288,o),
(47,175,cs),
(47,60,o),
(137,-30,o),
(253,-30,cs)
);
},
{
closed = 1;
nodes = (
(493,678,o),
(582,767,o),
(582,882,cs),
(582,996,o),
(493,1086,o),
(376,1086,cs),
(261,1086,o),
(170,996,o),
(170,882,cs),
(170,768,o),
(261,678,o),
(376,678,cs)
);
}
);
width = 629;
},
{
background = {
shapes = (
{
closed = 1;
nodes = (
(462,653,o),
(574,748,o),
(595,871,cs),
(617,992,o),
(539,1089,o),
(414,1089,cs),
(291,1089,o),
(177,992,o),
(155,871,cs),
(134,748,o),
(215,653,o),
(337,653,cs)
);
},
{
closed = 1;
nodes = (
(341,-30,o),
(453,65,o),
(475,188,cs),
(496,309,o),
(418,406,o),
(293,406,cs),
(170,406,o),
(56,309,o),
(35,188,cs),
(13,65,o),
(94,-30,o),
(216,-30,cs)
);
}
);
};
layerId = m009;
shapes = (
{
closed = 1;
nodes = (
(380,-30,o),
(475,65,o),
(475,188,cs),
(475,310,o),
(379,406,o),
(255,406,cs),
(132,406,o),
(35,309,o),
(35,188,cs),
(35,66,o),
(132,-30,o),
(255,-30,cs)
);
},
{
closed = 1;
nodes = (
(499,653,o),
(594,748,o),
(594,871,cs),
(594,993,o),
(498,1089,o),
(374,1089,cs),
(251,1089,o),
(154,992,o),
(154,871,cs),
(154,749,o),
(251,653,o),
(374,653,cs)
);
}
);
width = 628;
}
);
unicode = 58;
}
{
glyphname = less;
layers = (
{
background = {
shapes = (
{
closed = 1;
nodes = (
(983,259,l),
(365,622,l),
(367,630,l),
(1113,992,l),
(1147,1188,l),
(183,710,l),
(153,542,l),
(949,63,l)
);
}
);
};
guides = (
{
pos = (972,85);
}
);
layerId = m006;
shapes = (
{
closed = 1;
nodes = (
(982,255,l),
(364,627,l),
(366,635,l),
(1108,973,l),
(1147,1188,l),
(187,730,l),
(157,562,l),
(949,63,l)
);
}
);
width = 1200;
},
{
background = {
shapes = (
{
closed = 1;
nodes = (
(1026,335,l),
(463,640,l),
(465,652,l),
(1136,957,l),
(1188,1255,l),
(142,762,l),
(102,530,l),
(974,37,l)
);
}
);
};
guides = (
{
pos = (994,50);
}
);
layerId = "90828D4A-10F7-4870-818F-40FC947ECC22";
shapes = (
{
closed = 1;
nodes = (
(1023,332,l),
(457,624,l),
(459,636,l),
(1130,925,l),
(1188,1255,l),
(142,761,l),
(101,529,l),
(971,37,l)
);
}
);
width = 1200;
},
{
background = {
shapes = (
{
closed = 1;
nodes = (
(981,247,l),
(333,622,l),
(335,630,l),
(1115,1006,l),
(1144,1173,l),
(181,700,l),
(155,553,l),
(952,80,l)
);
}
);
};
guides = (
{
pos = (964,97);
}
);
layerId = "87470510-D880-4621-BF85-70AEEA552FBA";
shapes = (
{
closed = 1;
nodes = (
(979,237,l),
(336,629,l),
(338,637,l),
(1112,996,l),
(1144,1173,l),
(185,720,l),
(159,573,l),
(952,80,l)
);
}
);
width = 1200;
},
{
background = {
shapes = (
{
closed = 1;
nodes = (
(1050,357,l),
(504,641,l),
(506,649,l),
(1152,933,l),
(1213,1281,l),
(133,771,l),
(89,518,l),
(989,9,l)
);
}
);
};
layerId = "00586AEE-0022-45ED-9612-7F804652F2C7";
shapes = (
{
closed = 1;
nodes = (
(1047,340,l),
(494,618,l),
(496,626,l),
(1148,916,l),
(1213,1281,l),
(133,771,l),
(89,518,l),
(989,9,l)
);
}
);
width = 1200;
},
{
associatedMasterId = "87470510-D880-4621-BF85-70AEEA552FBA";
background = {
shapes = (
{
closed = 1;
nodes = (
(963,247,l),
(315,622,l),
(317,630,l),
(1097,1006,l),
(1126,1173,l),
(163,700,l),
(137,553,l),
(934,80,l)
);
}
);
};
guides = (
{
pos = (964,97);
}
);
layerId = "2E3E4EC2-1D65-419B-8D79-35069CCD7F29";
name = "1 Nov 24, 21:14";
shapes = (
{
closed = 1;
nodes = (
(1012,252,l),
(330,645,l),
(332,653,l),
(1132,1011,l),
(1162,1190,l),
(178,737,l),
(152,590,l),
(982,97,l)
);
}
);
width = 1200;
},
{
associatedMasterId = m006;
guides = (
{
pos = (972,85);
}
);
layerId = "A34C5A49-C51E-4A29-931D-4B742E632286";
name = "1 Nov 24, 21:14";
shapes = (
{
closed = 1;
nodes = (
(1025,271,l),
(368,649,l),
(370,657,l),
(1140,995,l),
(1175,1209,l),
(171,753,l),
(141,585,l),
(990,85,l)
);
}
);
width = 1200;
},
{
associatedMasterId = "90828D4A-10F7-4870-818F-40FC947ECC22";
guides = (
{
pos = (994,50);
}
);
layerId = "762D15F1-574C-4977-9BC7-2283254B8EDA";
name = "1 Nov 24, 21:14";
shapes = (
{
closed = 1;
nodes = (
(1065,326,l),
(481,660,l),
(483,668,l),
(1163,946,l),
(1215,1266,l),
(149,802,l),
(108,570,l),
(1013,50,l)
);
}
);
width = 1200;
},
{
associatedMasterId = "00586AEE-0022-45ED-9612-7F804652F2C7";
layerId = "1F1C5E32-F5C1-47A6-8085-693903518969";
name = "1 Nov 24, 21:14";
shapes = (
{
closed = 1;
nodes = (
(1078,344,l),
(519,663,l),
(521,671,l),
(1170,929,l),
(1228,1285,l),
(141,818,l),
(97,565,l),
(1020,38,l)
);
}
);
width = 1200;
}
);
unicode = 60;
}
{
color = 4;
glyphname = equal;
kernLeft = equal_left;
kernRight = equal_right;
layers = (
{
layerId = m006;
shapes = (
{
closed = 1;
nodes = (
(1112,763,l),
(1142,935,l),
(203,935,l),
(173,763,l)
);
},
{
closed = 1;
nodes = (
(1034,317,l),
(1064,489,l),
(125,489,l),
(95,317,l)
);
}
);
width = 1200;
},
{
layerId = "90828D4A-10F7-4870-818F-40FC947ECC22";
shapes = (
{
closed = 1;
nodes = (
(1131,761,l),
(1178,1027,l),
(198,1027,l),
(151,761,l)
);
},
{
closed = 1;
nodes = (
(1044,265,l),
(1091,531,l),
(111,531,l),
(64,265,l)
);
}
);
width = 1200;
},
{
layerId = "87470510-D880-4621-BF85-70AEEA552FBA";
shapes = (
{
closed = 1;
nodes = (
(1107,769,l),
(1132,911,l),
(205,911,l),
(180,769,l)
);
},
{
closed = 1;
nodes = (
(1032,341,l),
(1057,483,l),
(130,483,l),
(105,341,l)
);
}
);
width = 1200;
},
{
background = {
shapes = (
{
closed = 1;
nodes = (
(1125,793,l),
(1181,1107,l),
(224,1107,l),
(168,793,l)
);
},
{
closed = 1;
nodes = (
(1039,305,l),
(1095,619,l),
(138,619,l),
(82,305,l)
);
}
);
};
layerId = "00586AEE-0022-45ED-9612-7F804652F2C7";
shapes = (
{
closed = 1;
nodes = (
(1132,738,l),
(1187,1046,l),
(196,1046,l),
(141,738,l)
);
},
{
closed = 1;
nodes = (
(1045,244,l),
(1100,552,l),
(109,552,l),
(54,244,l)
);
}
);
width = 1200;
},
{
associatedMasterId = "87470510-D880-4621-BF85-70AEEA552FBA";
layerId = "2AEB7972-5A0E-469C-B077-6C26D53ED0D0";
name = "1 Nov 24, 21:30";
shapes = (
{
closed = 1;
nodes = (
(1092,849,l),
(1117,991,l),
(248,991,l),
(223,849,l)
);
},
{
closed = 1;
nodes = (
(1017,421,l),
(1042,563,l),
(173,563,l),
(148,421,l)
);
}
);
width = 1200;
},
{
associatedMasterId = m006;
layerId = "05FD6989-0F7B-4A57-BD69-44B21F4EE89D";
name = "1 Nov 24, 21:30";
shapes = (
{
closed = 1;
nodes = (
(1099,838,l),
(1130,1014,l),
(242,1014,l),
(211,838,l)
);
},
{
closed = 1;
nodes = (
(1022,398,l),
(1053,574,l),
(165,574,l),
(134,398,l)
);
}
);
width = 1200;
},
{
associatedMasterId = "90828D4A-10F7-4870-818F-40FC947ECC22";
layerId = "09E24E08-978C-4F96-9996-BDBACF6649AF";
name = "1 Nov 24, 21:30";
shapes = (
{
closed = 1;
nodes = (
(1118,804,l),
(1167,1084,l),
(228,1084,l),
(179,804,l)
);
},
{
closed = 1;
nodes = (
(1035,328,l),
(1084,608,l),
(145,608,l),
(96,328,l)
);
}
);
width = 1200;
},
{
associatedMasterId = "00586AEE-0022-45ED-9612-7F804652F2C7";
background = {
shapes = (
{
closed = 1;
nodes = (
(1125,793,l),
(1181,1107,l),
(224,1107,l),
(168,793,l)
);
},
{
closed = 1;
nodes = (
(1039,305,l),
(1095,619,l),
(138,619,l),
(82,305,l)
);
}
);
};
layerId = "40459E57-B7A4-49DC-B6D3-ECFEA2730220";
name = "1 Nov 24, 21:30";
shapes = (
{
closed = 1;
nodes = (
(1125,793,l),
(1180,1107,l),
(223,1107,l),
(168,793,l)
);
},
{
closed = 1;
nodes = (
(1040,305,l),
(1095,619,l),
(138,619,l),
(83,305,l)
);
}
);
width = 1200;
},
{
background = {
shapes = (
{
pos = (112,0);
ref = plus;
}
);
};
layerId = m005;
shapes = (
{
closed = 1;
nodes = (
(1146,857,l),
(1171,999,l),
(244,999,l),
(219,857,l)
);
},
{
closed = 1;
nodes = (
(1071,429,l),
(1096,571,l),
(169,571,l),
(144,429,l)
);
}
);
width = 1247;
},
{
layerId = m007;
shapes = (
{
closed = 1;
nodes = (
(1153,848,l),
(1184,1022,l),
(244,1022,l),
(213,848,l)
);
},
{
closed = 1;
nodes = (
(1076,406,l),
(1107,580,l),
(167,580,l),
(136,406,l)
);
}
);
width = 1253;
},
{
layerId = m008;
shapes = (
{
closed = 1;
nodes = (
(1174,818,l),
(1222,1092,l),
(244,1092,l),
(196,818,l)
);
},
{
closed = 1;
nodes = (
(1089,336,l),
(1137,610,l),
(159,610,l),
(111,336,l)
);
}
);
width = 1266;
},
{
layerId = m009;
shapes = (
{
closed = 1;
nodes = (
(1181,809,l),
(1235,1115,l),
(244,1115,l),
(190,809,l)
);
},
{
closed = 1;
nodes = (
(1093,313,l),
(1147,619,l),
(156,619,l),
(102,313,l)
);
}
);
width = 1271;
}
);
unicode = 61;
}
{
glyphname = greater;
layers = (
{
background = {
shapes = (
{
alignment = -1;
angle = 180;
pos = (1243,1294);
ref = less;
}
);
};
guides = (
{
pos = (972,85);
}
);
layerId = m006;
shapes = (
{
angle = 180;
pos = (1236,1251);
ref = less;
}
);
width = 1200;
},
{
background = {
shapes = (
{
alignment = -1;
angle = 180;
pos = (1247,1316);
ref = less;
}
);
};
layerId = "90828D4A-10F7-4870-818F-40FC947ECC22";
shapes = (
{
angle = 180;
pos = (1242,1292);
ref = less;
}
);
width = 1200;
},
{
background = {
shapes = (
{
alignment = -1;
angle = 180;
pos = (1242,1287);
ref = less;
}
);
};
guides = (
{
pos = (964,97);
}
);
layerId = "87470510-D880-4621-BF85-70AEEA552FBA";
shapes = (
{
angle = 180;
pos = (1237,1253);
ref = less;
}
);
width = 1200;
},
{
background = {
shapes = (
{
alignment = -1;
angle = 180;
pos = (1248,1323);
ref = less;
}
);
};
guides = (
{
pos = (114,9);
}
);
layerId = "00586AEE-0022-45ED-9612-7F804652F2C7";
shapes = (
{
angle = 180;
pos = (1242,1290);
ref = less;
}
);
width = 1200;
},
{
associatedMasterId = "87470510-D880-4621-BF85-70AEEA552FBA";
background = {
shapes = (
{
alignment = -1;
angle = 180;
pos = (1242,1287);
ref = less;
}
);
};
guides = (
{
pos = (964,97);
}
);
layerId = "39C5F333-6F47-4CA1-A405-1D3EB37B42F2";
name = "1 Nov 24, 21:31";
shapes = (
{
closed = 1;
nodes = (
(1065,550,l),
(1091,697,l),
(260,1190,l),
(230,1035,l),
(913,642,l),
(911,634,l),
(110,276,l),
(80,97,l)
);
}
);
width = 1200;
},
{
associatedMasterId = m006;
background = {
shapes = (
{
alignment = -1;
angle = 180;
pos = (1243,1294);
ref = less;
}
);
};
guides = (
{
pos = (972,85);
}
);
layerId = "C3C1F7AE-3229-468A-B50A-240D28F0AD60";
name = "1 Nov 24, 21:31";
shapes = (
{
closed = 1;
nodes = (
(1073,541,l),
(1103,709,l),
(253,1209,l),
(218,1023,l),
(876,645,l),
(874,637,l),
(103,299,l),
(68,85,l)
);
}
);
width = 1200;
},
{
associatedMasterId = "90828D4A-10F7-4870-818F-40FC947ECC22";
background = {
shapes = (
{
alignment = -1;
angle = 180;
pos = (1247,1316);
ref = less;
}
);
};
layerId = "3EDCFD56-273C-4011-A82B-6EC5F05D6E1C";
name = "1 Nov 24, 21:31";
shapes = (
{
closed = 1;
nodes = (
(1098,514,l),
(1139,746,l),
(234,1266,l),
(182,990,l),
(766,656,l),
(764,648,l),
(84,370,l),
(32,50,l)
);
}
);
width = 1200;
},
{
associatedMasterId = "00586AEE-0022-45ED-9612-7F804652F2C7";
background = {
shapes = (
{
alignment = -1;
angle = 180;
pos = (1248,1323);
ref = less;
}
);
};
layerId = "91A2BF65-EF5E-4389-BB64-8C728EAD4E85";
name = "1 Nov 24, 21:31";
shapes = (
{
closed = 1;
nodes = (
(1106,505,l),
(1150,758,l),
(228,1285,l),
(170,979,l),
(728,660,l),
(726,652,l),
(78,394,l),
(20,38,l)
);
}
);
width = 1200;
}
);
unicode = 62;
}
{
glyphname = question;
kernLeft = question_left;
kernRight = question_right;
layers = (
{
background = {
shapes = (
{
closed = 1;
nodes = (
(668,475,l),
(668,515,ls),
(668,588,o),
(701,646,o),
(788,727,cs),
(870,803,ls),
(973,899,o),
(1012,978,o),
(1012,1090,cs),
(1012,1094,ls),
(1012,1315,o),
(854,1464,o),
(620,1464,cs),
(389,1464,o),
(204,1328,o),
(134,1107,c),
(304,1048,l),
(354,1201,o),
(468,1288,o),
(618,1288,cs),
(745,1288,o),
(824,1216,o),
(824,1100,cs),
(824,1086,ls),
(824,1019,o),
(794,968,o),
(710,890,cs),
(628,814,ls),
(520,714,o),
(482,641,o),
(482,535,cs),
(482,475,l)
);
}
);
};
layerId = m006;
shapes = (
{
closed = 1;
nodes = (
(660,468,l),
(693,634,l),
(839,706,ls),
(1059,815,o),
(1154,938,o),
(1154,1114,cs),
(1154,1326,o),
(1000,1463,o),
(762,1463,cs),
(531,1463,o),
(337,1339,o),
(235,1124,c),
(399,1046,l),
(472,1199,o),
(603,1288,o),
(758,1288,cs),
(888,1288,o),
(965,1219,o),
(965,1102,cs),
(965,996,o),
(894,916,o),
(741,842,cs),
(522,736,l),
(469,468,l)
);
},
{
closed = 1;
nodes = (
(626,-31,o),
(698,40,o),
(698,132,cs),
(698,223,o),
(627,293,o),
(534,293,cs),
(441,293,o),
(369,223,o),
(369,132,cs),
(369,40,o),
(441,-31,o),
(534,-31,cs)
);
}
);
width = 1200;
},
{
layerId = "90828D4A-10F7-4870-818F-40FC947ECC22";
shapes = (
{
closed = 1;
nodes = (
(716,467,l),
(748,606,l),
(887,673,ls),
(1093,772,o),
(1189,904,o),
(1189,1088,cs),
(1189,1319,o),
(1021,1466,o),
(756,1466,cs),
(506,1466,o),
(300,1338,o),
(193,1113,c),
(462,994,l),
(518,1110,o),
(616,1178,o),
(731,1178,cs),
(825,1178,o),
(879,1131,o),
(879,1052,cs),
(879,967,o),
(821,909,o),
(675,849,cs),
(474,766,l),
(405,467,l)
);
},
{
closed = 1;
nodes = (
(645,-34,o),
(735,56,o),
(735,167,cs),
(735,276,o),
(647,361,o),
(536,361,cs),
(424,361,o),
(336,275,o),
(336,167,cs),
(336,56,o),
(426,-34,o),
(536,-34,cs)
);
}
);
width = 1200;
},
{
background = {
shapes = (
{
closed = 1;
nodes = (
(643,468,l),
(675,648,l),
(840,741,ls),
(1032,849,o),
(1120,953,o),
(1147,1105,cs),
(1147,1109,ls),
(1183,1314,o),
(1060,1462,o),
(813,1462,cs),
(568,1462,o),
(360,1334,o),
(246,1113,c),
(378,1062,l),
(466,1233,o),
(608,1324,o),
(787,1324,cs),
(944,1324,o),
(1024,1248,o),
(1001,1120,cs),
(999,1105,ls),
(982,1012,o),
(910,929,o),
(782,856,cs),
(542,720,l),
(497,468,l)
);
},
{
closed = 1;
nodes = (
(569,-30,o),
(647,34,o),
(662,120,cs),
(677,205,o),
(622,270,o),
(535,270,cs),
(448,270,o),
(371,206,o),
(356,120,cs),
(341,34,o),
(395,-30,o),
(482,-30,cs)
);
}
);
};
layerId = "87470510-D880-4621-BF85-70AEEA552FBA";
shapes = (
{
closed = 1;
nodes = (
(643,468,l),
(674,643,l),
(823,717,ls),
(1049,829,o),
(1143,949,o),
(1143,1123,cs),
(1143,1328,o),
(994,1462,o),
(764,1462,cs),
(539,1462,o),
(349,1339,o),
(249,1127,c),
(378,1063,l),
(456,1229,o),
(598,1324,o),
(767,1324,cs),
(910,1324,o),
(995,1248,o),
(995,1119,cs),
(995,1006,o),
(921,917,o),
(763,839,cs),
(541,729,l),
(495,468,l)
);
},
{
closed = 1;
nodes = (
(620,-30,o),
(686,34,o),
(686,120,cs),
(686,205,o),
(620,270,o),
(533,270,cs),
(446,270,o),
(380,206,o),
(380,120,cs),
(380,34,o),
(446,-30,o),
(533,-30,cs)
);
}
);
width = 1200;
},
{
background = {
shapes = (
{
closed = 1;
nodes = (
(743,467,l),
(767,605,l),
(905,677,ls),
(1081,769,o),
(1173,887,o),
(1201,1043,cs),
(1201,1045,ls),
(1245,1295,o),
(1080,1467,o),
(794,1467,cs),
(531,1467,o),
(297,1322,o),
(174,1082,c),
(481,977,l),
(534,1079,o),
(630,1141,o),
(732,1141,cs),
(815,1141,o),
(861,1100,o),
(849,1033,cs),
(847,1022,ls),
(835,954,o),
(784,908,o),
(648,841,cs),
(439,737,l),
(391,467,l)
);
},
{
closed = 1;
nodes = (
(594,-35,o),
(706,62,o),
(726,178,cs),
(746,293,o),
(669,383,o),
(552,383,cs),
(435,383,o),
(325,293,o),
(305,178,cs),
(285,62,o),
(363,-35,o),
(479,-35,cs)
);
}
);
};
layerId = "00586AEE-0022-45ED-9612-7F804652F2C7";
shapes = (
{
closed = 1;
nodes = (
(743,467,l),
(766,597,l),
(903,662,ls),
(1104,758,o),
(1200,892,o),
(1200,1079,cs),
(1200,1317,o),
(1027,1467,o),
(754,1467,cs),
(497,1467,o),
(288,1337,o),
(179,1109,c),
(483,976,l),
(533,1080,o),
(620,1141,o),
(722,1141,cs),
(803,1141,o),
(850,1102,o),
(850,1035,cs),
(850,957,o),
(796,907,o),
(653,851,cs),
(444,769,l),
(391,467,l)
);
},
{
closed = 1;
nodes = (
(651,-35,o),
(747,61,o),
(747,178,cs),
(747,293,o),
(654,383,o),
(536,383,cs),
(418,383,o),
(325,292,o),
(325,178,cs),
(325,61,o),
(421,-35,o),
(536,-35,cs)
);
}
);
width = 1200;
},
{
associatedMasterId = "87470510-D880-4621-BF85-70AEEA552FBA";
background = {
shapes = (
{
closed = 1;
nodes = (
(643,468,l),
(675,648,l),
(840,741,ls),
(1032,849,o),
(1120,953,o),
(1147,1105,cs),
(1147,1109,ls),
(1183,1314,o),
(1060,1462,o),
(813,1462,cs),
(568,1462,o),
(360,1334,o),
(246,1113,c),
(378,1062,l),
(466,1233,o),
(608,1324,o),
(787,1324,cs),
(944,1324,o),
(1024,1248,o),
(1001,1120,cs),
(999,1105,ls),
(982,1012,o),
(910,929,o),
(782,856,cs),
(542,720,l),
(497,468,l)
);
},
{
closed = 1;
nodes = (
(569,-30,o),
(647,34,o),
(662,120,cs),
(677,205,o),
(622,270,o),
(535,270,cs),
(448,270,o),
(371,206,o),
(356,120,cs),
(341,34,o),
(395,-30,o),
(482,-30,cs)
);
}
);
};
layerId = "2C90A794-B73D-4169-A741-A8E34B7F3949";
name = "16 Oct 24, 12:35";
shapes = (
{
closed = 1;
nodes = (
(739,558,l),
(620,601,o),
(576,638,o),
(576,697,cs),
(576,761,o),
(618,798,o),
(730,821,cs),
(856,847,ls),
(1059,889,o),
(1149,1000,o),
(1149,1154,cs),
(1149,1342,o),
(1020,1462,o),
(776,1462,cs),
(604,1462,o),
(465,1423,o),
(303,1334,c),
(369,1204,l),
(527,1291,o),
(641,1324,o),
(770,1324,cs),
(920,1324,o),
(997,1260,o),
(997,1154,cs),
(997,1064,o),
(942,1002,o),
(811,975,cs),
(685,949,ls),
(501,911,o),
(418,828,o),
(418,703,cs),
(418,579,o),
(508,485,o),
(676,422,c)
);
},
{
closed = 1;
nodes = (
(636,-30,o),
(702,34,o),
(702,120,cs),
(702,205,o),
(636,270,o),
(549,270,cs),
(462,270,o),
(396,206,o),
(396,120,cs),
(396,34,o),
(462,-30,o),
(549,-30,cs)
);
}
);
width = 1200;
},
{
layerId = m005;
shapes = (
{
closed = 1;
nodes = (
(551,468,l),
(582,643,l),
(731,717,ls),
(957,829,o),
(1051,949,o),
(1051,1123,cs),
(1051,1328,o),
(902,1462,o),
(672,1462,cs),
(447,1462,o),
(257,1339,o),
(157,1127,c),
(286,1063,l),
(364,1229,o),
(506,1324,o),
(675,1324,cs),
(818,1324,o),
(903,1248,o),
(903,1119,cs),
(903,1006,o),
(829,917,o),
(671,839,cs),
(449,729,l),
(403,468,l)
);
},
{
closed = 1;
nodes = (
(525,-30,o),
(591,36,o),
(591,119,cs),
(591,202,o),
(525,268,o),
(441,268,cs),
(357,268,o),
(291,202,o),
(291,119,cs),
(291,36,o),
(357,-30,o),
(441,-30,cs)
);
}
);
width = 1062;
},
{
associatedMasterId = m005;
background = {
shapes = (
{
closed = 1;
nodes = (
(643,468,l),
(675,648,l),
(840,741,ls),
(1032,849,o),
(1120,953,o),
(1147,1105,cs),
(1147,1109,ls),
(1183,1314,o),
(1060,1462,o),
(813,1462,cs),
(568,1462,o),
(360,1334,o),
(246,1113,c),
(378,1062,l),
(466,1233,o),
(608,1324,o),
(787,1324,cs),
(944,1324,o),
(1024,1248,o),
(1001,1120,cs),
(999,1105,ls),
(982,1012,o),
(910,929,o),
(782,856,cs),
(542,720,l),
(497,468,l)
);
},
{
closed = 1;
nodes = (
(569,-30,o),
(647,34,o),
(662,120,cs),
(677,205,o),
(622,270,o),
(535,270,cs),
(448,270,o),
(371,206,o),
(356,120,cs),
(341,34,o),
(395,-30,o),
(482,-30,cs)
);
}
);
};
layerId = "AEC32266-B1A7-4D8D-B1EA-893FF77ACD11";
name = "16 Oct 24, 12:35";
shapes = (
{
closed = 1;
nodes = (
(739,558,l),
(620,601,o),
(576,638,o),
(576,697,cs),
(576,761,o),
(618,798,o),
(730,821,cs),
(856,847,ls),
(1059,889,o),
(1149,1000,o),
(1149,1154,cs),
(1149,1342,o),
(1020,1462,o),
(776,1462,cs),
(604,1462,o),
(465,1423,o),
(303,1334,c),
(369,1204,l),
(527,1291,o),
(641,1324,o),
(770,1324,cs),
(920,1324,o),
(997,1260,o),
(997,1154,cs),
(997,1064,o),
(942,1002,o),
(811,975,cs),
(685,949,ls),
(501,911,o),
(418,828,o),
(418,703,cs),
(418,579,o),
(508,485,o),
(676,422,c)
);
},
{
closed = 1;
nodes = (
(636,-30,o),
(702,34,o),
(702,120,cs),
(702,205,o),
(636,270,o),
(549,270,cs),
(462,270,o),
(396,206,o),
(396,120,cs),
(396,34,o),
(462,-30,o),
(549,-30,cs)
);
}
);
width = 1200;
},
{
layerId = m007;
shapes = (
{
closed = 1;
nodes = (
(578,468,l),
(608,634,l),
(754,705,ls),
(974,811,o),
(1070,934,o),
(1070,1111,cs),
(1070,1324,o),
(915,1463,o),
(677,1463,cs),
(446,1463,o),
(252,1339,o),
(150,1124,c),
(314,1046,l),
(386,1199,o),
(518,1288,o),
(674,1288,cs),
(804,1288,o),
(881,1219,o),
(881,1102,cs),
(881,996,o),
(811,915,o),
(656,842,cs),
(437,737,l),
(390,468,l)
);
},
{
closed = 1;
nodes = (
(539,-31,o),
(611,41,o),
(611,131,cs),
(611,220,o),
(540,291,o),
(449,291,cs),
(358,291,o),
(287,220,o),
(287,131,cs),
(287,41,o),
(359,-31,o),
(449,-31,cs)
);
}
);
width = 1077;
},
{
layerId = m008;
shapes = (
{
closed = 1;
nodes = (
(660,467,l),
(685,606,l),
(823,668,ls),
(1028,758,o),
(1126,889,o),
(1126,1074,cs),
(1126,1311,o),
(954,1466,o),
(693,1466,cs),
(442,1466,o),
(237,1337,o),
(130,1113,c),
(399,994,l),
(454,1110,o),
(554,1178,o),
(670,1178,cs),
(762,1178,o),
(816,1131,o),
(816,1052,cs),
(816,967,o),
(757,909,o),
(612,849,cs),
(400,761,l),
(349,467,l)
);
},
{
closed = 1;
nodes = (
(581,-34,o),
(671,56,o),
(671,166,cs),
(671,275,o),
(584,360,o),
(472,360,cs),
(361,360,o),
(274,274,o),
(274,166,cs),
(274,56,o),
(364,-34,o),
(472,-34,cs)
);
}
);
width = 1122;
},
{
layerId = m009;
shapes = (
{
closed = 1;
nodes = (
(687,467,l),
(710,597,l),
(846,655,ls),
(1046,740,o),
(1144,874,o),
(1144,1062,cs),
(1144,1306,o),
(967,1467,o),
(698,1467,cs),
(441,1467,o),
(232,1337,o),
(123,1109,c),
(427,976,l),
(477,1081,o),
(566,1141,o),
(668,1141,cs),
(748,1141,o),
(794,1102,o),
(794,1035,cs),
(794,957,o),
(740,907,o),
(597,851,cs),
(388,769,l),
(335,467,l)
);
},
{
closed = 1;
nodes = (
(595,-35,o),
(691,61,o),
(691,178,cs),
(691,293,o),
(598,383,o),
(480,383,cs),
(362,383,o),
(269,292,o),
(269,178,cs),
(269,61,o),
(365,-35,o),
(480,-35,cs)
);
}
);
width = 1137;
}
);
unicode = 63;
}
{
color = 4;
glyphname = at;
kernLeft = at_left;
kernRight = at_right;
layers = (
{
layerId = m006;
shapes = (
{
closed = 1;
nodes = (
(781,-233,o),
(888,-206,o),
(986,-153,c),
(924,-3,l),
(836,-51,o),
(755,-72,o),
(666,-72,cs),
(391,-72,o),
(250,120,o),
(250,495,cs),
(250,718,o),
(288,926,o),
(361,1097,cs),
(459,1328,o),
(603,1443,o),
(792,1443,cs),
(959,1443,o),
(1048,1350,o),
(1048,1176,cs),
(1048,1134,o),
(1045,1092,o),
(1035,1038,cs),
(1018,942,l),
(1013,942,l),
(981,1045,o),
(905,1099,o),
(795,1099,cs),
(577,1099,o),
(407,875,o),
(407,584,cs),
(407,365,o),
(526,222,o),
(706,222,cs),
(785,222,o),
(850,261,o),
(907,341,c),
(912,341,l),
(893,233,l),
(1058,233,l),
(1198,1030,ls),
(1208,1087,o),
(1214,1139,o),
(1214,1186,cs),
(1214,1447,o),
(1057,1604,o),
(797,1604,cs),
(539,1604,o),
(336,1451,o),
(212,1165,cs),
(126,968,o),
(81,733,o),
(81,491,cs),
(81,30,o),
(293,-233,o),
(664,-233,cs)
);
},
{
closed = 1;
nodes = (
(635,376,o),
(571,459,o),
(571,594,cs),
(571,802,o),
(669,945,o),
(812,945,cs),
(915,945,o),
(977,864,o),
(977,730,cs),
(977,533,o),
(873,376,o),
(740,376,cs)
);
}
);
width = 1200;
},
{
layerId = "90828D4A-10F7-4870-818F-40FC947ECC22";
shapes = (
{
closed = 1;
nodes = (
(789,-233,o),
(896,-207,o),
(1000,-153,c),
(917,59,l),
(830,15,o),
(754,-5,o),
(671,-5,cs),
(432,-5,o),
(303,173,o),
(303,503,cs),
(303,714,o),
(337,898,o),
(407,1065,cs),
(495,1276,o),
(623,1381,o),
(790,1381,cs),
(930,1381,o),
(1010,1300,o),
(1010,1157,cs),
(1010,1118,o),
(1007,1084,o),
(998,1035,cs),
(984,956,l),
(975,956,l),
(946,1061,o),
(880,1112,o),
(773,1112,cs),
(567,1112,o),
(408,878,o),
(408,574,cs),
(408,354,o),
(512,210,o),
(670,210,cs),
(751,210,o),
(812,249,o),
(866,334,c),
(874,334,l),
(854,221,l),
(1075,221,l),
(1217,1026,ls),
(1228,1087,o),
(1233,1139,o),
(1233,1186,cs),
(1233,1452,o),
(1073,1608,o),
(799,1608,cs),
(534,1608,o),
(328,1456,o),
(199,1166,cs),
(113,972,o),
(65,731,o),
(65,491,cs),
(65,49,o),
(300,-233,o),
(669,-233,cs)
);
},
{
closed = 1;
nodes = (
(671,425,o),
(624,488,o),
(624,596,cs),
(624,771,o),
(702,897,o),
(811,897,cs),
(892,897,o),
(939,834,o),
(939,726,cs),
(939,555,o),
(859,425,o),
(753,425,cs)
);
}
);
width = 1200;
},
{
associatedMasterId = m006;
layerId = "6B89881D-236A-499C-BAB5-7FEF6D3CAE29";
name = "9 Jun 24, 22:52";
shapes = (
{
closed = 1;
nodes = (
(856,-233,o),
(987,-192,o),
(1094,-110,c),
(1001,42,l),
(909,-29,o),
(818,-61,o),
(707,-61,cs),
(398,-61,o),
(236,188,o),
(236,664,cs),
(236,712,ls),
(236,1199,o),
(370,1437,o),
(644,1437,cs),
(834,1437,o),
(936,1308,o),
(936,1067,cs),
(936,644,ls),
(936,480,o),
(862,378,o),
(744,378,cs),
(624,378,o),
(552,476,o),
(552,640,cs),
(552,676,ls),
(552,842,o),
(635,944,o),
(770,944,cs),
(840,944,o),
(896,922,o),
(954,870,c),
(954,998,l),
(890,1059,o),
(820,1088,o),
(734,1088,cs),
(524,1088,o),
(382,919,o),
(382,671,cs),
(382,645,ls),
(382,394,o),
(512,222,o),
(701,222,cs),
(801,222,o),
(882,270,o),
(939,363,c),
(944,363,l),
(944,233,l),
(1112,233,l),
(1112,1072,ls),
(1112,1407,o),
(936,1609,o),
(644,1609,cs),
(259,1609,o),
(50,1291,o),
(50,707,cs),
(50,669,ls),
(50,97,o),
(289,-233,o),
(703,-233,cs)
);
}
);
width = 1200;
},
{
associatedMasterId = "90828D4A-10F7-4870-818F-40FC947ECC22";
layerId = "8C172977-B910-461A-B17E-A6DD30E01FAF";
name = "9 Jun 24, 22:58";
shapes = (
{
closed = 1;
nodes = (
(863,-233,o),
(995,-190,o),
(1105,-102,c),
(986,92,l),
(900,22,o),
(812,-11,o),
(708,-11,cs),
(426,-11,o),
(276,224,o),
(276,664,cs),
(276,712,ls),
(276,1156,o),
(401,1387,o),
(643,1387,cs),
(810,1387,o),
(900,1275,o),
(900,1067,cs),
(900,624,ls),
(900,493,o),
(846,418,o),
(752,418,cs),
(657,418,o),
(600,497,o),
(600,630,cs),
(600,666,ls),
(600,813,o),
(673,904,o),
(793,904,cs),
(855,904,o),
(903,882,o),
(954,830,c),
(954,1011,l),
(892,1072,o),
(824,1101,o),
(740,1101,cs),
(533,1101,o),
(390,921,o),
(390,660,cs),
(390,634,ls),
(390,380,o),
(517,210,o),
(707,210,cs),
(789,210,o),
(859,248,o),
(899,314,c),
(907,314,l),
(907,221,l),
(1122,221,l),
(1122,1072,ls),
(1122,1412,o),
(946,1609,o),
(643,1609,cs),
(248,1609,o),
(40,1298,o),
(40,707,cs),
(40,669,ls),
(40,86,o),
(276,-233,o),
(706,-233,cs)
);
}
);
width = 1200;
},
{
background = {
shapes = (
{
closed = 1;
nodes = (
(722,-233,o),
(860,-192,o),
(978,-113,c),
(925,10,l),
(814,-63,o),
(715,-95,o),
(600,-95,cs),
(271,-95,o),
(145,165,o),
(233,664,cs),
(242,712,ls),
(331,1217,o),
(515,1464,o),
(803,1464,cs),
(1009,1464,o),
(1098,1324,o),
(1052,1067,cs),
(1033,957,l),
(1029,957,l),
(995,1049,o),
(924,1095,o),
(815,1095,cs),
(622,1095,o),
(456,921,o),
(412,674,cs),
(408,648,ls),
(363,397,o),
(466,226,o),
(660,226,cs),
(766,226,o),
(849,269,o),
(924,364,c),
(928,364,l),
(906,237,l),
(1052,237,l),
(1199,1072,ls),
(1257,1399,o),
(1115,1602,o),
(830,1602,cs),
(453,1602,o),
(198,1292,o),
(95,707,cs),
(88,669,ls),
(-14,91,o),
(159,-233,o),
(571,-233,cs)
);
},
{
closed = 1;
nodes = (
(582,360,o),
(521,466,o),
(553,643,cs),
(559,679,ls),
(590,854,o),
(689,961,o),
(819,961,cs),
(948,961,o),
(1010,852,o),
(979,679,cs),
(973,643,ls),
(942,470,o),
(841,360,o),
(713,360,cs)
);
}
);
};
layerId = "87470510-D880-4621-BF85-70AEEA552FBA";
shapes = (
{
closed = 1;
nodes = (
(777,-233,o),
(884,-206,o),
(981,-153,c),
(926,-24,l),
(838,-73,o),
(755,-95,o),
(664,-95,cs),
(377,-95,o),
(232,102,o),
(232,492,cs),
(232,719,o),
(271,935,o),
(345,1107,cs),
(447,1345,o),
(596,1464,o),
(792,1464,cs),
(968,1464,o),
(1061,1366,o),
(1061,1182,cs),
(1061,1138,o),
(1057,1095,o),
(1047,1039,cs),
(1029,937,l),
(1025,937,l),
(992,1039,o),
(913,1095,o),
(802,1095,cs),
(580,1095,o),
(407,873,o),
(407,587,cs),
(407,369,o),
(530,226,o),
(718,226,cs),
(796,226,o),
(862,265,o),
(921,345,c),
(925,345,l),
(906,237,l),
(1052,237,l),
(1192,1031,ls),
(1202,1087,o),
(1207,1138,o),
(1207,1186,cs),
(1207,1445,o),
(1051,1602,o),
(796,1602,cs),
(541,1602,o),
(338,1449,o),
(216,1165,cs),
(131,968,o),
(86,734,o),
(86,491,cs),
(86,25,o),
(291,-233,o),
(660,-233,cs)
);
},
{
closed = 1;
nodes = (
(623,360,o),
(553,449,o),
(553,593,cs),
(553,812,o),
(658,961,o),
(812,961,cs),
(923,961,o),
(990,874,o),
(990,731,cs),
(990,525,o),
(877,360,o),
(736,360,cs)
);
}
);
width = 1200;
},
{
background = {
shapes = (
{
closed = 1;
nodes = (
(731,-233,o),
(869,-192,o),
(999,-106,c),
(907,116,l),
(804,48,o),
(713,17,o),
(611,17,cs),
(345,17,o),
(248,230,o),
(323,654,cs),
(335,722,ls),
(411,1154,o),
(561,1360,o),
(800,1360,cs),
(962,1360,o),
(1026,1262,o),
(991,1065,cs),
(976,977,l),
(967,977,l),
(935,1075,o),
(886,1116,o),
(799,1116,cs),
(615,1116,o),
(463,940,o),
(416,673,cs),
(412,647,ls),
(365,382,o),
(453,206,o),
(631,206,cs),
(717,206,o),
(783,248,o),
(856,348,c),
(865,348,l),
(842,217,l),
(1082,217,l),
(1232,1070,ls),
(1293,1414,o),
(1150,1609,o),
(838,1609,cs),
(442,1609,o),
(175,1298,o),
(72,717,cs),
(62,659,ls),
(-39,85,o),
(143,-233,o),
(573,-233,cs)
);
},
{
closed = 1;
nodes = (
(659,441,o),
(622,516,o),
(644,643,cs),
(650,679,ls),
(672,804,o),
(738,881,o),
(822,881,cs),
(904,881,o),
(939,807,o),
(916,679,cs),
(910,643,ls),
(887,513,o),
(828,441,o),
(744,441,cs)
);
}
);
};
layerId = "00586AEE-0022-45ED-9612-7F804652F2C7";
shapes = (
{
closed = 1;
nodes = (
(797,-233,o),
(901,-207,o),
(1004,-153,c),
(914,80,l),
(828,37,o),
(753,17,o),
(673,17,cs),
(446,17,o),
(321,191,o),
(321,506,cs),
(321,712,o),
(353,889,o),
(422,1054,cs),
(507,1258,o),
(629,1360,o),
(789,1360,cs),
(920,1360,o),
(997,1283,o),
(997,1151,cs),
(997,1116,o),
(994,1082,o),
(986,1039,cs),
(972,960,l),
(962,960,l),
(934,1066,o),
(871,1116,o),
(765,1116,cs),
(563,1116,o),
(408,880,o),
(408,571,cs),
(408,350,o),
(507,206,o),
(658,206,cs),
(740,206,o),
(799,245,o),
(852,331,c),
(861,331,l),
(841,217,l),
(1081,217,l),
(1223,1025,ls),
(1234,1088,o),
(1239,1140,o),
(1239,1186,cs),
(1239,1454,o),
(1078,1609,o),
(800,1609,cs),
(529,1609,o),
(326,1460,o),
(195,1166,cs),
(107,969,o),
(59,728,o),
(59,491,cs),
(59,48,o),
(299,-233,o),
(679,-233,cs)
);
},
{
closed = 1;
nodes = (
(683,441,o),
(641,498,o),
(641,597,cs),
(641,760,o),
(713,881,o),
(810,881,cs),
(884,881,o),
(926,824,o),
(926,725,cs),
(926,562,o),
(854,441,o),
(757,441,cs)
);
}
);
width = 1200;
},
{
associatedMasterId = "87470510-D880-4621-BF85-70AEEA552FBA";
layerId = "C2893C5F-53DE-4A1E-A20F-2106CC475901";
name = "10 Oct 24, 23:36";
shapes = (
{
closed = 1;
nodes = (
(853,-233,o),
(984,-193,o),
(1090,-113,c),
(1006,25,l),
(912,-46,o),
(820,-78,o),
(707,-78,cs),
(389,-78,o),
(223,176,o),
(223,664,cs),
(223,712,ls),
(223,1215,o),
(357,1454,o),
(639,1454,cs),
(844,1454,o),
(956,1318,o),
(956,1067,cs),
(956,938,l),
(952,938,l),
(902,1045,o),
(824,1096,o),
(712,1096,cs),
(516,1096,o),
(379,923,o),
(379,674,cs),
(379,648,ls),
(379,397,o),
(514,226,o),
(712,226,cs),
(816,226,o),
(890,273,o),
(952,379,c),
(956,379,l),
(956,237,l),
(1109,237,l),
(1109,1072,ls),
(1109,1405,o),
(931,1609,o),
(641,1609,cs),
(261,1609,o),
(53,1290,o),
(53,707,cs),
(53,669,ls),
(53,101,o),
(293,-233,o),
(702,-233,cs)
);
},
{
closed = 1;
nodes = (
(613,365,o),
(536,469,o),
(536,643,cs),
(536,679,ls),
(536,852,o),
(614,957,o),
(741,957,cs),
(868,957,o),
(948,849,o),
(948,679,cs),
(948,643,ls),
(948,473,o),
(867,365,o),
(741,365,cs)
);
}
);
width = 1200;
},
{
layerId = m005;
shapes = (
{
closed = 1;
nodes = (
(951,-233,o),
(1071,-207,o),
(1180,-153,c),
(1119,-24,l),
(1018,-75,o),
(924,-95,o),
(826,-95,cs),
(500,-95,o),
(315,100,o),
(315,531,cs),
(315,752,o),
(364,954,o),
(439,1113,cs),
(547,1342,o),
(710,1464,o),
(934,1464,cs),
(1134,1464,o),
(1256,1367,o),
(1256,1168,cs),
(1256,1128,o),
(1252,1087,o),
(1244,1041,cs),
(1226,937,l),
(1212,937,l),
(1173,1038,o),
(1083,1095,o),
(958,1095,cs),
(711,1095,o),
(528,879,o),
(528,600,cs),
(528,369,o),
(670,226,o),
(883,226,cs),
(968,226,o),
(1042,263,o),
(1109,345,c),
(1113,345,l),
(1094,237,l),
(1250,237,l),
(1391,1033,ls),
(1400,1084,o),
(1404,1130,o),
(1404,1171,cs),
(1404,1445,o),
(1221,1602,o),
(937,1602,cs),
(651,1602,o),
(426,1447,o),
(296,1160,cs),
(209,968,o),
(167,749,o),
(167,528,cs),
(167,24,o),
(410,-233,o),
(822,-233,cs)
);
},
{
closed = 1;
nodes = (
(767,360,o),
(676,447,o),
(676,607,cs),
(676,818,o),
(795,961,o),
(968,961,cs),
(1100,961,o),
(1185,874,o),
(1185,719,cs),
(1185,519,o),
(1059,360,o),
(896,360,cs)
);
}
);
width = 1481;
},
{
associatedMasterId = m005;
layerId = "E68F0256-2543-4416-9CAA-D44726639E85";
name = "10 Oct 24, 23:36";
shapes = (
{
closed = 1;
nodes = (
(853,-233,o),
(984,-193,o),
(1090,-113,c),
(1006,25,l),
(912,-46,o),
(820,-78,o),
(707,-78,cs),
(389,-78,o),
(223,176,o),
(223,664,cs),
(223,712,ls),
(223,1215,o),
(357,1454,o),
(639,1454,cs),
(844,1454,o),
(956,1318,o),
(956,1067,cs),
(956,938,l),
(952,938,l),
(902,1045,o),
(824,1096,o),
(712,1096,cs),
(516,1096,o),
(379,923,o),
(379,674,cs),
(379,648,ls),
(379,397,o),
(514,226,o),
(712,226,cs),
(816,226,o),
(890,273,o),
(952,379,c),
(956,379,l),
(956,237,l),
(1109,237,l),
(1109,1072,ls),
(1109,1405,o),
(931,1609,o),
(641,1609,cs),
(261,1609,o),
(53,1290,o),
(53,707,cs),
(53,669,ls),
(53,101,o),
(293,-233,o),
(702,-233,cs)
);
},
{
closed = 1;
nodes = (
(613,365,o),
(536,469,o),
(536,643,cs),
(536,679,ls),
(536,852,o),
(614,957,o),
(741,957,cs),
(868,957,o),
(948,849,o),
(948,679,cs),
(948,643,ls),
(948,473,o),
(867,365,o),
(741,365,cs)
);
}
);
width = 1200;
},
{
layerId = m007;
shapes = (
{
closed = 1;
nodes = (
(883,-233,o),
(1005,-207,o),
(1116,-153,c),
(1047,-3,l),
(947,-52,o),
(854,-73,o),
(756,-73,cs),
(437,-73,o),
(254,117,o),
(254,537,cs),
(254,750,o),
(300,944,o),
(375,1102,cs),
(481,1327,o),
(640,1443,o),
(860,1443,cs),
(1053,1443,o),
(1172,1351,o),
(1172,1160,cs),
(1172,1123,o),
(1168,1085,o),
(1160,1040,cs),
(1143,942,l),
(1130,942,l),
(1092,1042,o),
(1004,1099,o),
(878,1099,cs),
(631,1099,o),
(449,881,o),
(449,598,cs),
(449,366,o),
(590,222,o),
(799,222,cs),
(886,222,o),
(959,259,o),
(1025,342,c),
(1030,342,l),
(1011,233,l),
(1189,233,l),
(1330,1031,ls),
(1339,1083,o),
(1344,1129,o),
(1344,1170,cs),
(1344,1447,o),
(1155,1603,o),
(864,1603,cs),
(568,1603,o),
(341,1448,o),
(209,1159,cs),
(123,971,o),
(79,752,o),
(79,530,cs),
(79,28,o),
(333,-233,o),
(753,-233,cs)
);
},
{
closed = 1;
nodes = (
(705,376,o),
(620,457,o),
(620,609,cs),
(620,808,o),
(732,945,o),
(895,945,cs),
(1020,945,o),
(1101,864,o),
(1101,717,cs),
(1101,526,o),
(983,376,o),
(828,376,cs)
);
}
);
width = 1362;
},
{
associatedMasterId = m007;
layerId = "96BC31F4-C636-47DF-A586-E389EE0BA1B1";
name = "9 Jun 24, 22:52";
shapes = (
{
closed = 1;
nodes = (
(856,-233,o),
(987,-192,o),
(1094,-110,c),
(1001,42,l),
(909,-29,o),
(818,-61,o),
(707,-61,cs),
(398,-61,o),
(236,188,o),
(236,664,cs),
(236,712,ls),
(236,1199,o),
(370,1437,o),
(644,1437,cs),
(834,1437,o),
(936,1308,o),
(936,1067,cs),
(936,644,ls),
(936,480,o),
(862,378,o),
(744,378,cs),
(624,378,o),
(552,476,o),
(552,640,cs),
(552,676,ls),
(552,842,o),
(635,944,o),
(770,944,cs),
(840,944,o),
(896,922,o),
(954,870,c),
(954,998,l),
(890,1059,o),
(820,1088,o),
(734,1088,cs),
(524,1088,o),
(382,919,o),
(382,671,cs),
(382,645,ls),
(382,394,o),
(512,222,o),
(701,222,cs),
(801,222,o),
(882,270,o),
(939,363,c),
(944,363,l),
(944,233,l),
(1112,233,l),
(1112,1072,ls),
(1112,1407,o),
(936,1609,o),
(644,1609,cs),
(259,1609,o),
(50,1291,o),
(50,707,cs),
(50,669,ls),
(50,97,o),
(289,-233,o),
(703,-233,cs)
);
}
);
width = 1200;
},
{
background = {
shapes = (
{
closed = 1;
nodes = (
(929,-233,o),
(1053,-207,o),
(1171,-153,c),
(1080,59,l),
(977,14,o),
(887,-5,o),
(790,-5,cs),
(496,-5,o),
(320,170,o),
(320,557,cs),
(320,741,o),
(353,909,o),
(426,1065,cs),
(523,1272,o),
(673,1381,o),
(881,1381,cs),
(1056,1381,o),
(1163,1302,o),
(1163,1135,cs),
(1163,1103,o),
(1160,1073,o),
(1153,1034,cs),
(1139,956,l),
(1130,956,l),
(1092,1061,o),
(1009,1112,o),
(883,1112,cs),
(643,1112,o),
(461,888,o),
(461,593,cs),
(461,355,o),
(600,210,o),
(793,210,cs),
(886,210,o),
(958,248,o),
(1021,334,c),
(1029,334,l),
(1009,221,l),
(1246,221,l),
(1387,1024,ls),
(1397,1081,o),
(1402,1127,o),
(1402,1170,cs),
(1402,1451,o),
(1203,1608,o),
(888,1608,cs),
(574,1608,o),
(343,1450,o),
(205,1166,cs),
(119,989,o),
(69,768,o),
(69,539,cs),
(69,48,o),
(357,-233,o),
(790,-233,cs)
);
},
{
closed = 1;
nodes = (
(764,425,o),
(693,486,o),
(693,615,cs),
(693,780,o),
(785,897,o),
(921,897,cs),
(1024,897,o),
(1094,835,o),
(1094,709,cs),
(1094,547,o),
(999,425,o),
(869,425,cs)
);
}
);
};
layerId = m008;
shapes = (
{
closed = 1;
nodes = (
(926,-233,o),
(1049,-209,o),
(1171,-153,c),
(1080,59,l),
(979,14,o),
(890,-5,o),
(793,-5,cs),
(494,-5,o),
(319,170,o),
(319,555,cs),
(319,743,o),
(355,914,o),
(429,1070,cs),
(527,1277,o),
(678,1381,o),
(886,1381,cs),
(1058,1381,o),
(1166,1302,o),
(1166,1137,cs),
(1166,1107,o),
(1163,1075,o),
(1156,1039,cs),
(1142,956,l),
(1131,956,l),
(1095,1057,o),
(1015,1112,o),
(886,1112,cs),
(639,1112,o),
(461,887,o),
(461,593,cs),
(461,356,o),
(596,210,o),
(795,210,cs),
(888,210,o),
(959,248,o),
(1022,334,c),
(1030,334,l),
(1010,221,l),
(1254,221,l),
(1395,1026,ls),
(1405,1082,o),
(1410,1128,o),
(1410,1168,cs),
(1410,1452,o),
(1205,1608,o),
(893,1608,cs),
(565,1608,o),
(332,1451,o),
(194,1156,cs),
(110,976,o),
(63,760,o),
(63,538,cs),
(63,40,o),
(348,-233,o),
(792,-233,cs)
);
},
{
closed = 1;
nodes = (
(768,425,o),
(698,486,o),
(698,615,cs),
(698,780,o),
(791,897,o),
(924,897,cs),
(1028,897,o),
(1097,835,o),
(1097,710,cs),
(1097,547,o),
(1002,425,o),
(872,425,cs)
);
}
);
width = 1394;
},
{
associatedMasterId = m008;
layerId = "561CD6CC-0E7F-4830-9FF7-39970E463AD2";
name = "9 Jun 24, 22:58";
shapes = (
{
closed = 1;
nodes = (
(863,-233,o),
(995,-190,o),
(1105,-102,c),
(986,92,l),
(900,22,o),
(812,-11,o),
(708,-11,cs),
(426,-11,o),
(276,224,o),
(276,664,cs),
(276,712,ls),
(276,1156,o),
(401,1387,o),
(643,1387,cs),
(810,1387,o),
(900,1275,o),
(900,1067,cs),
(900,624,ls),
(900,493,o),
(846,418,o),
(752,418,cs),
(657,418,o),
(600,497,o),
(600,630,cs),
(600,666,ls),
(600,813,o),
(673,904,o),
(793,904,cs),
(855,904,o),
(903,882,o),
(954,830,c),
(954,1011,l),
(892,1072,o),
(824,1101,o),
(740,1101,cs),
(533,1101,o),
(390,921,o),
(390,660,cs),
(390,634,ls),
(390,380,o),
(517,210,o),
(707,210,cs),
(789,210,o),
(859,248,o),
(899,314,c),
(907,314,l),
(907,221,l),
(1122,221,l),
(1122,1072,ls),
(1122,1412,o),
(946,1609,o),
(643,1609,cs),
(248,1609,o),
(40,1298,o),
(40,707,cs),
(40,669,ls),
(40,86,o),
(276,-233,o),
(706,-233,cs)
);
}
);
width = 1200;
},
{
background = {
shapes = (
{
closed = 1;
nodes = (
(790,-233,o),
(928,-192,o),
(1058,-106,c),
(966,116,l),
(863,48,o),
(772,17,o),
(670,17,cs),
(404,17,o),
(307,230,o),
(382,654,cs),
(394,722,ls),
(470,1154,o),
(620,1360,o),
(859,1360,cs),
(1021,1360,o),
(1085,1262,o),
(1050,1065,cs),
(1035,977,l),
(1026,977,l),
(994,1075,o),
(945,1116,o),
(858,1116,cs),
(674,1116,o),
(522,940,o),
(475,673,cs),
(471,647,ls),
(424,382,o),
(512,206,o),
(690,206,cs),
(776,206,o),
(842,248,o),
(915,348,c),
(924,348,l),
(901,217,l),
(1141,217,l),
(1291,1070,ls),
(1352,1414,o),
(1209,1609,o),
(897,1609,cs),
(501,1609,o),
(234,1298,o),
(131,717,cs),
(121,659,ls),
(20,85,o),
(202,-233,o),
(632,-233,cs)
);
},
{
closed = 1;
nodes = (
(718,441,o),
(681,516,o),
(703,643,cs),
(709,679,ls),
(731,804,o),
(797,881,o),
(881,881,cs),
(963,881,o),
(998,807,o),
(975,679,cs),
(969,643,ls),
(946,513,o),
(887,441,o),
(803,441,cs)
);
}
);
};
layerId = m009;
shapes = (
{
closed = 1;
nodes = (
(999,-233,o),
(1124,-209,o),
(1248,-153,c),
(1150,80,l),
(1050,37,o),
(961,17,o),
(864,17,cs),
(572,17,o),
(400,187,o),
(400,561,cs),
(400,740,o),
(432,903,o),
(506,1059,cs),
(602,1261,o),
(749,1360,o),
(953,1360,cs),
(1118,1360,o),
(1223,1286,o),
(1223,1129,cs),
(1223,1101,o),
(1220,1071,o),
(1214,1038,cs),
(1200,960,l),
(1190,960,l),
(1154,1063,o),
(1077,1116,o),
(948,1116,cs),
(701,1116,o),
(524,889,o),
(524,591,cs),
(524,352,o),
(657,206,o),
(853,206,cs),
(947,206,o),
(1018,244,o),
(1080,331,c),
(1089,331,l),
(1069,217,l),
(1334,217,l),
(1476,1024,ls),
(1486,1081,o),
(1491,1127,o),
(1491,1167,cs),
(1491,1454,o),
(1281,1609,o),
(961,1609,cs),
(623,1609,o),
(388,1452,o),
(248,1155,cs),
(165,979,o),
(116,763,o),
(116,540,cs),
(116,44,o),
(412,-233,o),
(864,-233,cs)
);
},
{
closed = 1;
nodes = (
(848,441,o),
(783,496,o),
(783,617,cs),
(783,770,o),
(869,881,o),
(993,881,cs),
(1089,881,o),
(1154,825,o),
(1154,708,cs),
(1154,554,o),
(1067,441,o),
(945,441,cs)
);
}
);
width = 1489;
}
);
unicode = 64;
}
{
color = 9;
glyphname = A;
kernLeft = A_left;
kernRight = A_right;
layers = (
{
anchors = (
{
name = bottom;
pos = (533,23);
},
{
name = ogonek;
pos = (1050.693,0);
},
{
name = top;
pos = (742,1432);
}
);
layerId = m006;
shapes = (
{
closed = 1;
nodes = (
(164,0,l),
(653,1063,l),
(719,1218,l),
(726,1218,l),
(740,1063,l),
(859,0,l),
(1050,0,l),
(858,1432,l),
(661,1432,l),
(-34,0,l)
);
},
{
closed = 1;
nodes = (
(918,369,l),
(894,536,l),
(308,536,l),
(227,369,l)
);
}
);
width = 1200;
},
{
anchors = (
{
name = bottom;
pos = (541,20);
},
{
name = ogonek;
pos = (1036.869,0);
},
{
name = top;
pos = (750,1432);
}
);
background = {
shapes = (
{
closed = 1;
nodes = (
(135,0,l),
(661,1122,l),
(725,1259,l),
(731,1259,l),
(744,1122,l),
(881,0,l),
(1037,0,l),
(844,1432,l),
(675,1432,l),
(-20,0,l)
);
},
{
closed = 1;
nodes = (
(915,400,l),
(896,542,l),
(312,542,l),
(243,400,l)
);
}
);
};
layerId = "87470510-D880-4621-BF85-70AEEA552FBA";
shapes = (
{
closed = 1;
nodes = (
(138,0,l),
(665,1122,l),
(727,1259,l),
(733,1259,l),
(748,1122,l),
(884,0,l),
(1036,0,l),
(844,1432,l),
(675,1432,l),
(-20,0,l)
);
},
{
closed = 1;
nodes = (
(915,400,l),
(896,542,l),
(312,542,l),
(243,400,l)
);
}
);
width = 1200;
},
{
anchors = (
{
name = bottom;
pos = (539,24);
},
{
name = ogonek;
pos = (1091.252,0);
},
{
name = top;
pos = (748,1432);
}
);
layerId = "90828D4A-10F7-4870-818F-40FC947ECC22";
shapes = (
{
closed = 1;
nodes = (
(240,0,l),
(618,885,l),
(696,1095,l),
(703,1095,l),
(715,885,l),
(782,0,l),
(1092,0,l),
(901,1432,l),
(619,1432,l),
(-76,0,l)
);
},
{
closed = 1;
nodes = (
(926,276,l),
(887,517,l),
(295,517,l),
(177,276,l)
);
}
);
width = 1200;
},
{
anchors = (
{
name = bottom;
pos = (550,26);
},
{
name = ogonek;
pos = (1105.076,0);
},
{
name = top;
pos = (752,1432);
}
);
background = {
shapes = (
{
closed = 1;
nodes = (
(259,0,l),
(600,826,l),
(684,1054,l),
(691,1054,l),
(701,826,l),
(750,0,l),
(1106,0,l),
(915,1432,l),
(605,1432,l),
(-90,0,l)
);
},
{
closed = 1;
nodes = (
(929,245,l),
(884,511,l),
(290,511,l),
(160,245,l)
);
}
);
};
layerId = "00586AEE-0022-45ED-9612-7F804652F2C7";
shapes = (
{
closed = 1;
nodes = (
(265,0,l),
(606,826,l),
(688,1054,l),
(695,1054,l),
(707,826,l),
(756,0,l),
(1106,0,l),
(915,1432,l),
(605,1432,l),
(-90,0,l)
);
},
{
closed = 1;
nodes = (
(929,245,l),
(884,511,l),
(290,511,l),
(160,245,l)
);
}
);
width = 1200;
},
{
anchors = (
{
name = bottom;
pos = (519,20);
},
{
name = ogonek;
pos = (1025,0);
},
{
name = top;
pos = (738,1432);
}
);
background = {
shapes = (
{
closed = 1;
nodes = (
(123,0,l),
(649,1122,l),
(713,1259,l),
(719,1259,l),
(732,1122,l),
(869,0,l),
(1025,0,l),
(832,1432,l),
(663,1432,l),
(-32,0,l)
);
},
{
closed = 1;
nodes = (
(903,400,l),
(884,542,l),
(300,542,l),
(231,400,l)
);
}
);
};
layerId = m005;
shapes = (
{
closed = 1;
nodes = (
(126,0,l),
(653,1122,l),
(715,1259,l),
(721,1259,l),
(736,1122,l),
(872,0,l),
(1024,0,l),
(832,1432,l),
(663,1432,l),
(-32,0,l)
);
},
{
closed = 1;
nodes = (
(903,400,l),
(884,542,l),
(300,542,l),
(231,400,l)
);
}
);
width = 1176;
},
{
anchors = (
{
name = bottom;
pos = (527,21);
},
{
name = ogonek;
pos = (1045,0);
},
{
name = top;
pos = (742,1432);
}
);
layerId = m007;
shapes = (
{
closed = 1;
nodes = (
(153,0,l),
(646,1063,l),
(712,1218,l),
(718,1218,l),
(733,1063,l),
(852,0,l),
(1044,0,l),
(850,1432,l),
(653,1432,l),
(-44,0,l)
);
},
{
closed = 1;
nodes = (
(910,372,l),
(886,536,l),
(300,536,l),
(218,372,l)
);
}
);
width = 1184;
},
{
anchors = (
{
name = bottom;
pos = (550,25);
},
{
name = ogonek;
pos = (1103,0);
},
{
name = top;
pos = (755,1432);
}
);
layerId = m008;
shapes = (
{
closed = 1;
nodes = (
(235,0,l),
(624,885,l),
(702,1095,l),
(709,1095,l),
(722,885,l),
(793,0,l),
(1103,0,l),
(904,1432,l),
(622,1432,l),
(-81,0,l)
);
},
{
closed = 1;
nodes = (
(930,286,l),
(890,517,l),
(298,517,l),
(180,286,l)
);
}
);
width = 1208;
},
{
anchors = (
{
name = bottom;
pos = (557,26);
},
{
name = ogonek;
pos = (1122,0);
},
{
name = top;
pos = (759,1432);
}
);
layerId = m009;
shapes = (
{
closed = 1;
nodes = (
(262,0,l),
(617,826,l),
(699,1054,l),
(706,1054,l),
(718,826,l),
(773,0,l),
(1123,0,l),
(922,1432,l),
(612,1432,l),
(-93,0,l)
);
},
{
closed = 1;
nodes = (
(936,257,l),
(891,511,l),
(297,511,l),
(167,257,l)
);
}
);
width = 1216;
}
);
unicode = 65;
}
{
glyphname = B;
layers = (
{
background = {
shapes = (
{
closed = 1;
nodes = (
(561,0,ls),
(814,0,o),
(1008,151,o),
(1049,379,cs),
(1054,407,ls),
(1084,581,o),
(1008,710,o),
(850,745,c),
(851,752,l),
(992,801,o),
(1086,912,o),
(1112,1061,cs),
(1117,1089,ls),
(1153,1296,o),
(1027,1432,o),
(778,1432,cs),
(332,1432,l),
(80,0,l)
);
},
{
closed = 1;
nodes = (
(485,1268,l),
(732,1268,ls),
(881,1268,o),
(947,1193,o),
(923,1054,cs),
(919,1034,ls),
(895,896,o),
(800,820,o),
(653,820,cs),
(347,820,l),
(320,666,l),
(649,666,ls),
(820,666,o),
(896,580,o),
(869,427,cs),
(865,403,ls),
(838,250,o),
(732,164,o),
(572,164,cs),
(291,164,l)
);
}
);
};
layerId = m006;
shapes = (
{
closed = 1;
nodes = (
(548,0,ls),
(856,0,o),
(1049,163,o),
(1049,425,cs),
(1049,568,o),
(978,675,o),
(845,732,c),
(845,739,l),
(1019,795,o),
(1111,916,o),
(1111,1086,cs),
(1111,1308,o),
(968,1432,o),
(714,1432,cs),
(332,1432,l),
(80,0,l)
);
},
{
closed = 1;
nodes = (
(485,1268,l),
(694,1268,ls),
(850,1268,o),
(923,1204,o),
(923,1066,cs),
(923,910,o),
(818,820,o),
(638,820,cs),
(347,820,l),
(320,666,l),
(621,666,ls),
(780,666,o),
(861,591,o),
(861,444,cs),
(861,271,o),
(743,164,o),
(553,164,cs),
(291,164,l)
);
}
);
width = 1200;
},
{
background = {
shapes = (
{
closed = 1;
nodes = (
(583,0,ls),
(858,0,o),
(1057,145,o),
(1098,374,cs),
(1102,397,ls),
(1133,572,o),
(1055,699,o),
(892,743,c),
(893,752,l),
(1042,805,o),
(1136,915,o),
(1162,1063,cs),
(1166,1084,ls),
(1203,1297,o),
(1067,1432,o),
(815,1432,cs),
(290,1432,l),
(38,0,l)
);
},
{
closed = 1;
nodes = (
(549,1184,l),
(708,1184,ls),
(819,1184,o),
(870,1128,o),
(852,1026,cs),
(849,1012,ls),
(831,910,o),
(760,854,o),
(649,854,cs),
(423,854,l),
(380,608,l),
(641,608,ls),
(765,608,o),
(824,546,o),
(805,437,cs),
(802,419,ls),
(782,309,o),
(704,248,o),
(584,248,cs),
(383,248,l)
);
}
);
};
layerId = "90828D4A-10F7-4870-818F-40FC947ECC22";
shapes = (
{
closed = 1;
nodes = (
(596,0,ls),
(898,0,o),
(1096,160,o),
(1096,403,cs),
(1096,555,o),
(1026,661,o),
(888,717,c),
(888,727,l),
(1067,793,o),
(1155,912,o),
(1155,1087,cs),
(1155,1308,o),
(1005,1432,o),
(736,1432,cs),
(290,1432,l),
(38,0,l)
);
},
{
closed = 1;
nodes = (
(548,1184,l),
(692,1184,ls),
(798,1184,o),
(851,1136,o),
(851,1039,cs),
(851,918,o),
(781,854,o),
(649,854,cs),
(421,854,l),
(383,608,l),
(608,608,ls),
(731,608,o),
(792,555,o),
(792,448,cs),
(792,322,o),
(711,248,o),
(574,248,cs),
(383,248,l)
);
}
);
width = 1200;
},
{
background = {
shapes = (
{
closed = 1;
nodes = (
(589,0,ls),
(874,0,o),
(1073,145,o),
(1113,372,cs),
(1117,393,ls),
(1147,563,o),
(1075,694,o),
(905,742,c),
(906,752,l),
(1056,806,o),
(1152,915,o),
(1178,1064,cs),
(1182,1082,ls),
(1217,1282,o),
(1096,1432,o),
(826,1432,cs),
(276,1432,l),
(24,0,l)
);
},
{
closed = 1;
nodes = (
(567,1154,l),
(699,1154,ls),
(798,1154,o),
(843,1099,o),
(826,1005,cs),
(824,993,ls),
(807,899,o),
(746,844,o),
(645,844,cs),
(446,844,l),
(404,610,l),
(642,610,ls),
(750,610,o),
(803,552,o),
(785,452,cs),
(783,436,ls),
(765,336,o),
(698,278,o),
(590,278,cs),
(413,278,l)
);
}
);
};
layerId = "00586AEE-0022-45ED-9612-7F804652F2C7";
shapes = (
{
closed = 1;
nodes = (
(635,0,ls),
(920,0,o),
(1111,159,o),
(1111,397,cs),
(1111,551,o),
(1039,655,o),
(902,715,c),
(902,725,l),
(1073,785,o),
(1170,906,o),
(1170,1080,cs),
(1170,1294,o),
(1029,1432,o),
(734,1432,cs),
(276,1432,l),
(24,0,l)
);
},
{
closed = 1;
nodes = (
(567,1154,l),
(696,1154,ls),
(796,1154,o),
(838,1103,o),
(838,1021,cs),
(838,908,o),
(773,844,o),
(661,844,cs),
(446,844,l),
(404,610,l),
(617,610,ls),
(729,610,o),
(779,561,o),
(779,467,cs),
(779,349,o),
(713,278,o),
(588,278,cs),
(413,278,l)
);
}
);
width = 1200;
},
{
background = {
shapes = (
{
closed = 1;
nodes = (
(552,0,ls),
(797,0,o),
(991,152,o),
(1031,380,cs),
(1036,410,ls),
(1067,585,o),
(990,714,o),
(835,746,c),
(836,752,l),
(975,800,o),
(1067,911,o),
(1094,1060,cs),
(1099,1090,ls),
(1136,1299,o),
(1008,1432,o),
(765,1432,cs),
(344,1432,l),
(92,0,l)
);
},
{
closed = 1;
nodes = (
(464,1296,l),
(739,1296,ls),
(901,1296,o),
(973,1216,o),
(947,1066,cs),
(943,1044,ls),
(917,895,o),
(814,814,o),
(654,814,cs),
(321,814,l),
(297,678,l),
(649,678,ls),
(837,678,o),
(919,586,o),
(890,420,cs),
(885,394,ls),
(856,230,o),
(740,136,o),
(566,136,cs),
(260,136,l)
);
}
);
};
layerId = "87470510-D880-4621-BF85-70AEEA552FBA";
name = "Light Italic";
shapes = (
{
closed = 1;
nodes = (
(587,0,ls),
(859,0,o),
(1031,169,o),
(1031,432,cs),
(1031,573,o),
(965,688,o),
(829,736,c),
(829,742,l),
(1001,801,o),
(1095,913,o),
(1095,1111,cs),
(1095,1310,o),
(971,1432,o),
(744,1432,cs),
(344,1432,l),
(92,0,l)
);
},
{
closed = 1;
nodes = (
(464,1296,l),
(734,1296,ls),
(875,1296,o),
(947,1229,o),
(947,1099,cs),
(947,913,o),
(847,814,o),
(661,814,cs),
(321,814,l),
(297,678,l),
(647,678,ls),
(803,678,o),
(887,597,o),
(887,445,cs),
(887,249,o),
(773,136,o),
(577,136,cs),
(260,136,l)
);
}
);
width = 1200;
},
{
associatedMasterId = "87470510-D880-4621-BF85-70AEEA552FBA";
background = {
shapes = (
{
closed = 1;
nodes = (
(552,0,ls),
(797,0,o),
(991,152,o),
(1031,380,cs),
(1036,410,ls),
(1067,585,o),
(990,714,o),
(835,746,c),
(836,752,l),
(975,800,o),
(1067,911,o),
(1094,1060,cs),
(1099,1090,ls),
(1136,1299,o),
(1008,1432,o),
(765,1432,cs),
(344,1432,l),
(92,0,l)
);
},
{
closed = 1;
nodes = (
(464,1296,l),
(739,1296,ls),
(901,1296,o),
(973,1216,o),
(947,1066,cs),
(943,1044,ls),
(917,895,o),
(814,814,o),
(654,814,cs),
(321,814,l),
(297,678,l),
(649,678,ls),
(837,678,o),
(919,586,o),
(890,420,cs),
(885,394,ls),
(856,230,o),
(740,136,o),
(566,136,cs),
(260,136,l)
);
}
);
};
layerId = "A2D4DAF0-D22B-4D9C-89B4-ABDC7D1C1ED6";
name = "20 Oct 24, 09:03";
shapes = (
{
closed = 1;
nodes = (
(583,0,ls),
(822,0,o),
(985,126,o),
(1023,336,cs),
(1028,364,ls),
(1032,388,o),
(1034,414,o),
(1034,451,cs),
(1034,590,o),
(967,692,o),
(831,738,c),
(831,744,l),
(969,796,o),
(1063,887,o),
(1084,1011,cs),
(1089,1041,ls),
(1093,1063,o),
(1095,1090,o),
(1095,1120,cs),
(1095,1309,o),
(957,1432,o),
(744,1432,cs),
(344,1432,l),
(92,0,l)
);
},
{
closed = 1;
nodes = (
(464,1296,l),
(734,1296,ls),
(870,1296,o),
(947,1227,o),
(947,1105,cs),
(947,1080,o),
(945,1055,o),
(941,1034,cs),
(937,1011,ls),
(915,887,o),
(813,814,o),
(661,814,cs),
(321,814,l),
(297,678,l),
(647,678,ls),
(804,678,o),
(890,600,o),
(890,464,cs),
(890,434,o),
(888,410,o),
(884,387,cs),
(879,359,ls),
(854,221,o),
(740,136,o),
(579,136,cs),
(260,136,l)
);
}
);
width = 1200;
},
{
associatedMasterId = m006;
background = {
shapes = (
{
closed = 1;
nodes = (
(561,0,ls),
(814,0,o),
(1008,151,o),
(1049,379,cs),
(1054,407,ls),
(1084,581,o),
(1008,710,o),
(850,745,c),
(851,752,l),
(992,801,o),
(1086,912,o),
(1112,1061,cs),
(1117,1089,ls),
(1153,1296,o),
(1027,1432,o),
(778,1432,cs),
(332,1432,l),
(80,0,l)
);
},
{
closed = 1;
nodes = (
(485,1268,l),
(732,1268,ls),
(881,1268,o),
(947,1193,o),
(923,1054,cs),
(919,1034,ls),
(895,896,o),
(800,820,o),
(653,820,cs),
(347,820,l),
(320,666,l),
(649,666,ls),
(820,666,o),
(896,580,o),
(869,427,cs),
(865,403,ls),
(838,250,o),
(732,164,o),
(572,164,cs),
(291,164,l)
);
}
);
};
layerId = "193DA94A-C453-4C9C-A174-8494073BA1F6";
name = "20 Oct 24, 09:03";
shapes = (
{
closed = 1;
nodes = (
(595,0,ls),
(840,0,o),
(1008,146,o),
(1040,332,cs),
(1044,355,ls),
(1048,378,o),
(1050,401,o),
(1050,432,cs),
(1050,575,o),
(986,679,o),
(848,734,c),
(848,741,l),
(987,784,o),
(1078,880,o),
(1100,1006,cs),
(1105,1035,ls),
(1109,1058,o),
(1111,1079,o),
(1111,1106,cs),
(1111,1305,o),
(981,1432,o),
(748,1432,cs),
(332,1432,l),
(80,0,l)
);
},
{
closed = 1;
nodes = (
(485,1268,l),
(720,1268,ls),
(851,1268,o),
(927,1211,o),
(927,1088,cs),
(927,1065,o),
(925,1042,o),
(922,1025,cs),
(919,1008,ls),
(899,895,o),
(804,820,o),
(663,820,cs),
(347,820,l),
(320,666,l),
(641,666,ls),
(787,666,o),
(866,593,o),
(866,465,cs),
(866,439,o),
(865,417,o),
(861,396,cs),
(857,374,ls),
(834,245,o),
(736,164,o),
(579,164,cs),
(291,164,l)
);
}
);
visible = 1;
width = 1200;
},
{
associatedMasterId = "90828D4A-10F7-4870-818F-40FC947ECC22";
background = {
shapes = (
{
closed = 1;
nodes = (
(583,0,ls),
(858,0,o),
(1057,145,o),
(1098,374,cs),
(1102,397,ls),
(1133,572,o),
(1055,699,o),
(892,743,c),
(893,752,l),
(1042,805,o),
(1136,915,o),
(1162,1063,cs),
(1166,1084,ls),
(1203,1297,o),
(1067,1432,o),
(815,1432,cs),
(290,1432,l),
(38,0,l)
);
},
{
closed = 1;
nodes = (
(549,1184,l),
(708,1184,ls),
(819,1184,o),
(870,1128,o),
(852,1026,cs),
(849,1012,ls),
(831,910,o),
(760,854,o),
(649,854,cs),
(423,854,l),
(380,608,l),
(641,608,ls),
(765,608,o),
(824,546,o),
(805,437,cs),
(802,419,ls),
(782,309,o),
(704,248,o),
(584,248,cs),
(383,248,l)
);
}
);
};
layerId = "BC1C94DC-7BDC-44C1-B7C3-5C2978C26CC0";
name = "20 Oct 24, 09:03";
shapes = (
{
closed = 1;
nodes = (
(625,0,ls),
(883,0,o),
(1054,131,o),
(1089,330,cs),
(1093,353,ls),
(1097,376,o),
(1099,401,o),
(1099,426,cs),
(1099,562,o),
(1030,670,o),
(885,714,c),
(885,723,l),
(1030,780,o),
(1121,880,o),
(1144,1011,cs),
(1147,1028,ls),
(1151,1051,o),
(1154,1079,o),
(1154,1103,cs),
(1154,1308,o),
(1015,1432,o),
(757,1432,cs),
(290,1432,l),
(38,0,l)
);
},
{
closed = 1;
nodes = (
(549,1184,l),
(698,1184,ls),
(799,1184,o),
(852,1136,o),
(852,1043,cs),
(852,1029,o),
(851,1018,o),
(849,1007,cs),
(847,996,ls),
(831,905,o),
(764,854,o),
(656,854,cs),
(421,854,l),
(383,608,l),
(621,608,ls),
(740,608,o),
(798,555,o),
(798,459,cs),
(798,444,o),
(797,429,o),
(795,416,cs),
(793,404,ls),
(777,311,o),
(698,248,o),
(572,248,cs),
(383,248,l)
);
}
);
width = 1200;
},
{
associatedMasterId = "00586AEE-0022-45ED-9612-7F804652F2C7";
background = {
shapes = (
{
closed = 1;
nodes = (
(589,0,ls),
(874,0,o),
(1073,145,o),
(1113,372,cs),
(1117,393,ls),
(1147,563,o),
(1075,694,o),
(905,742,c),
(906,752,l),
(1056,806,o),
(1152,915,o),
(1178,1064,cs),
(1182,1082,ls),
(1217,1282,o),
(1096,1432,o),
(826,1432,cs),
(276,1432,l),
(24,0,l)
);
},
{
closed = 1;
nodes = (
(567,1154,l),
(699,1154,ls),
(798,1154,o),
(843,1099,o),
(826,1005,cs),
(824,993,ls),
(807,899,o),
(746,844,o),
(645,844,cs),
(446,844,l),
(404,610,l),
(642,610,ls),
(750,610,o),
(803,552,o),
(785,452,cs),
(783,436,ls),
(765,336,o),
(698,278,o),
(590,278,cs),
(413,278,l)
);
}
);
};
layerId = "18529A0E-995A-4B00-B3E5-4DACE01CC546";
name = "20 Oct 24, 09:03";
shapes = (
{
closed = 1;
nodes = (
(615,0,ls),
(881,0,o),
(1068,135,o),
(1102,316,cs),
(1106,337,ls),
(1111,363,o),
(1113,389,o),
(1113,411,cs),
(1113,558,o),
(1045,663,o),
(902,715,c),
(902,725,l),
(1043,778,o),
(1140,884,o),
(1160,1006,cs),
(1163,1024,ls),
(1168,1052,o),
(1170,1075,o),
(1170,1098,cs),
(1170,1312,o),
(1021,1432,o),
(756,1432,cs),
(276,1432,l),
(24,0,l)
);
},
{
closed = 1;
nodes = (
(567,1154,l),
(698,1154,ls),
(790,1154,o),
(838,1111,o),
(838,1029,cs),
(838,1015,o),
(837,1002,o),
(835,990,cs),
(833,978,ls),
(820,899,o),
(761,844,o),
(661,844,cs),
(446,844,l),
(404,610,l),
(628,610,ls),
(727,610,o),
(781,560,o),
(781,468,cs),
(781,456,o),
(780,444,o),
(778,433,cs),
(776,421,ls),
(761,331,o),
(697,278,o),
(600,278,cs),
(413,278,l)
);
}
);
width = 1200;
}
);
unicode = 66;
}
{
glyphname = C;
layers = (
{
anchors = (
{
name = bottom;
pos = (573,0);
},
{
name = top;
pos = (773,1432);
}
);
background = {
shapes = (
{
closed = 1;
nodes = (
(787,-32,o),
(973,91,o),
(1087,321,c),
(926,385,l),
(845,223,o),
(734,144,o),
(589,144,cs),
(356,144,o),
(258,343,o),
(320,692,cs),
(328,740,ls),
(390,1092,o),
(552,1288,o),
(778,1288,cs),
(922,1288,o),
(996,1215,o),
(1024,1046,c),
(1208,1112,l),
(1173,1341,o),
(1034,1464,o),
(813,1464,cs),
(473,1464,o),
(217,1189,o),
(137,735,cs),
(131,697,ls),
(52,249,o),
(216,-32,o),
(555,-32,cs)
);
}
);
};
layerId = m006;
shapes = (
{
closed = 1;
nodes = (
(826,-32,o),
(983,80,o),
(1085,307,c),
(921,387,l),
(850,219,o),
(758,144,o),
(620,144,cs),
(423,144,o),
(319,286,o),
(319,557,cs),
(319,981,o),
(507,1288,o),
(771,1288,cs),
(909,1288,o),
(988,1213,o),
(1025,1050,c),
(1205,1092,l),
(1150,1336,o),
(1006,1464,o),
(780,1464,cs),
(394,1464,o),
(129,1091,o),
(129,556,cs),
(129,195,o),
(315,-32,o),
(612,-32,cs)
);
}
);
width = 1200;
},
{
anchors = (
{
name = bottom;
pos = (573,0);
},
{
name = top;
pos = (765,1432);
}
);
background = {
shapes = (
{
closed = 1;
nodes = (
(807,-34,o),
(1012,114,o),
(1118,369,c),
(849,453,l),
(794,324,o),
(712,256,o),
(608,256,cs),
(442,256,o),
(371,417,o),
(419,689,cs),
(429,743,ls),
(477,1019,o),
(597,1176,o),
(758,1176,cs),
(864,1176,o),
(915,1117,o),
(925,986,c),
(1224,1071,l),
(1207,1325,o),
(1060,1466,o),
(813,1466,cs),
(465,1466,o),
(192,1182,o),
(114,738,cs),
(106,694,ls),
(29,255,o),
(209,-34,o),
(559,-34,cs)
);
}
);
};
layerId = "90828D4A-10F7-4870-818F-40FC947ECC22";
name = "Bold 12";
shapes = (
{
closed = 1;
nodes = (
(850,-34,o),
(1018,93,o),
(1113,345,c),
(841,454,l),
(795,317,o),
(727,256,o),
(627,256,cs),
(491,256,o),
(419,366,o),
(419,574,cs),
(419,921,o),
(557,1176,o),
(750,1176,cs),
(851,1176,o),
(905,1118,o),
(923,998,c),
(1217,1047,l),
(1181,1313,o),
(1023,1466,o),
(764,1466,cs),
(369,1466,o),
(105,1096,o),
(105,566,cs),
(105,199,o),
(300,-34,o),
(609,-34,cs)
);
}
);
width = 1200;
},
{
anchors = (
{
name = bottom;
pos = (572,0);
},
{
name = top;
pos = (775,1432);
}
);
background = {
shapes = (
{
closed = 1;
nodes = (
(780,-30,o),
(960,84,o),
(1078,305,c),
(951,362,l),
(863,192,o),
(742,110,o),
(583,110,cs),
(328,110,o),
(220,321,o),
(286,693,cs),
(294,739,ls),
(360,1113,o),
(536,1322,o),
(784,1322,cs),
(940,1322,o),
(1022,1244,o),
(1057,1066,c),
(1202,1126,l),
(1161,1345,o),
(1025,1462,o),
(813,1462,cs),
(476,1462,o),
(226,1190,o),
(145,734,cs),
(139,698,ls),
(59,248,o),
(218,-30,o),
(553,-30,cs)
);
}
);
};
layerId = "87470510-D880-4621-BF85-70AEEA552FBA";
shapes = (
{
closed = 1;
nodes = (
(815,-30,o),
(967,75,o),
(1076,294,c),
(948,364,l),
(867,188,o),
(764,110,o),
(612,110,cs),
(397,110,o),
(284,262,o),
(284,551,cs),
(284,999,o),
(487,1322,o),
(769,1322,cs),
(923,1322,o),
(1010,1244,o),
(1057,1067,c),
(1201,1107,l),
(1140,1340,o),
(995,1462,o),
(778,1462,cs),
(402,1462,o),
(136,1085,o),
(136,553,cs),
(136,196,o),
(318,-30,o),
(606,-30,cs)
);
}
);
width = 1200;
},
{
anchors = (
{
name = bottom;
pos = (573,0);
},
{
name = top;
pos = (763,1432);
}
);
background = {
shapes = (
{
closed = 1;
nodes = (
(813,-35,o),
(1023,121,o),
(1127,385,c),
(822,476,l),
(776,360,o),
(704,299,o),
(613,299,cs),
(466,299,o),
(403,445,o),
(446,688,cs),
(456,744,ls),
(499,991,o),
(607,1133,o),
(750,1133,cs),
(843,1133,o),
(885,1081,o),
(890,966,c),
(1227,1057,l),
(1218,1320,o),
(1068,1467,o),
(812,1467,cs),
(461,1467,o),
(183,1180,o),
(105,739,cs),
(97,693,ls),
(20,256,o),
(205,-35,o),
(559,-35,cs)
);
}
);
};
layerId = "00586AEE-0022-45ED-9612-7F804652F2C7";
shapes = (
{
closed = 1;
nodes = (
(858,-35,o),
(1031,97,o),
(1122,357,c),
(814,476,l),
(775,354,o),
(719,299,o),
(631,299,cs),
(511,299,o),
(448,396,o),
(448,579,cs),
(448,897,o),
(576,1133,o),
(748,1133,cs),
(832,1133,o),
(881,1082,o),
(895,981,c),
(1221,1032,l),
(1184,1298,o),
(1024,1467,o),
(760,1467,cs),
(369,1467,o),
(98,1099,o),
(98,569,cs),
(98,199,o),
(296,-35,o),
(609,-35,cs)
);
}
);
width = 1200;
},
{
associatedMasterId = "87470510-D880-4621-BF85-70AEEA552FBA";
background = {
shapes = (
{
closed = 1;
nodes = (
(780,-30,o),
(960,84,o),
(1078,305,c),
(951,362,l),
(863,192,o),
(742,110,o),
(583,110,cs),
(328,110,o),
(220,321,o),
(286,693,cs),
(294,739,ls),
(360,1113,o),
(536,1322,o),
(784,1322,cs),
(940,1322,o),
(1022,1244,o),
(1057,1066,c),
(1202,1126,l),
(1161,1345,o),
(1025,1462,o),
(813,1462,cs),
(476,1462,o),
(226,1190,o),
(145,734,cs),
(139,698,ls),
(59,248,o),
(218,-30,o),
(553,-30,cs)
);
}
);
};
layerId = "6B3A68AF-DEEA-4CE6-B5AC-4A13929515B4";
name = "20 Oct 24, 17:57";
shapes = (
{
closed = 1;
nodes = (
(809,-30,o),
(968,78,o),
(1076,294,c),
(948,364,l),
(865,191,o),
(755,110,o),
(612,110,cs),
(392,110,o),
(276,257,o),
(276,529,cs),
(276,596,o),
(283,667,o),
(295,736,cs),
(303,782,ls),
(363,1125,o),
(537,1322,o),
(767,1322,cs),
(918,1322,o),
(1019,1234,o),
(1057,1067,c),
(1201,1107,l),
(1149,1336,o),
(997,1462,o),
(773,1462,cs),
(466,1462,o),
(229,1209,o),
(156,794,cs),
(149,754,ls),
(135,675,o),
(128,600,o),
(128,531,cs),
(128,193,o),
(310,-30,o),
(606,-30,cs)
);
}
);
width = 1200;
},
{
associatedMasterId = m006;
background = {
shapes = (
{
closed = 1;
nodes = (
(787,-32,o),
(973,91,o),
(1087,321,c),
(926,385,l),
(845,223,o),
(734,144,o),
(589,144,cs),
(356,144,o),
(258,343,o),
(320,692,cs),
(328,740,ls),
(390,1092,o),
(552,1288,o),
(778,1288,cs),
(922,1288,o),
(996,1215,o),
(1024,1046,c),
(1208,1112,l),
(1173,1341,o),
(1034,1464,o),
(813,1464,cs),
(473,1464,o),
(217,1189,o),
(137,735,cs),
(131,697,ls),
(52,249,o),
(216,-32,o),
(555,-32,cs)
);
}
);
};
layerId = "D09DCFD0-FD03-4CF2-BF4E-B7F35936C9D2";
name = "20 Oct 24, 17:57";
shapes = (
{
closed = 1;
nodes = (
(817,-32,o),
(985,88,o),
(1085,307,c),
(921,387,l),
(846,222,o),
(746,144,o),
(614,144,cs),
(416,144,o),
(311,280,o),
(311,533,cs),
(311,598,o),
(317,665,o),
(329,734,cs),
(337,780,ls),
(395,1115,o),
(549,1288,o),
(763,1288,cs),
(908,1288,o),
(993,1206,o),
(1025,1047,c),
(1205,1092,l),
(1159,1333,o),
(1007,1464,o),
(774,1464,cs),
(455,1464,o),
(220,1209,o),
(148,795,cs),
(141,755,ls),
(127,674,o),
(120,601,o),
(120,533,cs),
(120,190,o),
(306,-32,o),
(607,-32,cs)
);
}
);
visible = 1;
width = 1200;
},
{
associatedMasterId = "90828D4A-10F7-4870-818F-40FC947ECC22";
background = {
shapes = (
{
closed = 1;
nodes = (
(807,-34,o),
(1012,114,o),
(1118,369,c),
(849,453,l),
(794,324,o),
(712,256,o),
(608,256,cs),
(442,256,o),
(371,417,o),
(419,689,cs),
(429,743,ls),
(477,1019,o),
(597,1176,o),
(758,1176,cs),
(864,1176,o),
(915,1117,o),
(925,986,c),
(1224,1071,l),
(1207,1325,o),
(1060,1466,o),
(813,1466,cs),
(465,1466,o),
(192,1182,o),
(114,738,cs),
(106,694,ls),
(29,255,o),
(209,-34,o),
(559,-34,cs)
);
}
);
};
layerId = "D26A0B4C-2860-4382-9EBA-34A0D248093D";
name = "20 Oct 24, 17:57";
shapes = (
{
closed = 1;
nodes = (
(841,-34,o),
(1021,102,o),
(1113,345,c),
(838,454,l),
(789,320,o),
(718,256,o),
(619,256,cs),
(485,256,o),
(410,359,o),
(410,544,cs),
(410,603,o),
(415,667,o),
(426,726,cs),
(436,781,ls),
(481,1034,o),
(590,1176,o),
(745,1176,cs),
(850,1176,o),
(905,1109,o),
(924,986,c),
(1222,1047,l),
(1189,1319,o),
(1031,1466,o),
(771,1466,cs),
(444,1466,o),
(196,1211,o),
(125,803,cs),
(117,757,ls),
(103,678,o),
(96,600,o),
(96,539,cs),
(96,189,o),
(295,-34,o),
(609,-34,cs)
);
}
);
width = 1200;
},
{
associatedMasterId = "00586AEE-0022-45ED-9612-7F804652F2C7";
background = {
shapes = (
{
closed = 1;
nodes = (
(813,-35,o),
(1023,121,o),
(1127,385,c),
(822,476,l),
(776,360,o),
(704,299,o),
(613,299,cs),
(466,299,o),
(403,445,o),
(446,688,cs),
(456,744,ls),
(499,991,o),
(607,1133,o),
(750,1133,cs),
(843,1133,o),
(885,1081,o),
(890,966,c),
(1227,1057,l),
(1218,1320,o),
(1068,1467,o),
(812,1467,cs),
(461,1467,o),
(183,1180,o),
(105,739,cs),
(97,693,ls),
(20,256,o),
(205,-35,o),
(559,-35,cs)
);
}
);
};
layerId = "B167F155-F08E-41CD-94B3-0A3AA1478635";
name = "20 Oct 24, 17:57";
shapes = (
{
closed = 1;
nodes = (
(848,-35,o),
(1031,105,o),
(1122,357,c),
(814,476,l),
(770,356,o),
(708,299,o),
(621,299,cs),
(504,299,o),
(438,388,o),
(438,547,cs),
(438,603,o),
(443,661,o),
(454,723,cs),
(464,780,ls),
(504,1006,o),
(604,1133,o),
(743,1133,cs),
(835,1133,o),
(886,1078,o),
(898,966,c),
(1221,1032,l),
(1197,1313,o),
(1039,1467,o),
(774,1467,cs),
(444,1467,o),
(185,1207,o),
(117,805,cs),
(109,758,ls),
(95,671,o),
(88,604,o),
(88,541,cs),
(88,189,o),
(290,-35,o),
(609,-35,cs)
);
}
);
width = 1200;
}
);
unicode = 67;
}
{
glyphname = D;
kernLeft = H_left;
kernRight = O_right;
layers = (
{
anchors = (
{
name = top;
pos = (695,1432);
}
);
background = {
shapes = (
{
closed = 1;
nodes = (
(426,0,ls),
(789,0,o),
(1050,260,o),
(1127,697,cs),
(1133,735,ls),
(1210,1172,o),
(1041,1432,o),
(678,1432,cs),
(300,1432,l),
(48,0,l)
);
},
{
closed = 1;
nodes = (
(454,1258,l),
(642,1258,ls),
(902,1258,o),
(1004,1081,o),
(944,740,cs),
(936,692,ls),
(876,351,o),
(710,174,o),
(450,174,cs),
(262,174,l)
);
}
);
};
layerId = m006;
shapes = (
{
closed = 1;
nodes = (
(452,0,ls),
(871,0,o),
(1128,311,o),
(1128,829,cs),
(1128,1204,o),
(950,1432,o),
(625,1432,cs),
(300,1432,l),
(48,0,l)
);
},
{
closed = 1;
nodes = (
(454,1258,l),
(610,1258,ls),
(839,1258,o),
(938,1126,o),
(938,823,cs),
(938,415,o),
(764,174,o),
(458,174,cs),
(262,174,l)
);
}
);
width = 1200;
},
{
anchors = (
{
name = top;
pos = (702,1432);
}
);
background = {
shapes = (
{
closed = 1;
nodes = (
(442,0,ls),
(801,0,o),
(1074,269,o),
(1149,694,cs),
(1157,738,ls),
(1232,1163,o),
(1053,1432,o),
(694,1432,cs),
(276,1432,l),
(24,0,l)
);
},
{
closed = 1;
nodes = (
(531,1144,l),
(639,1144,ls),
(822,1144,o),
(891,1009,o),
(844,743,cs),
(834,689,ls),
(787,422,o),
(673,288,o),
(489,288,cs),
(381,288,l)
);
}
);
};
layerId = "90828D4A-10F7-4870-818F-40FC947ECC22";
shapes = (
{
closed = 1;
nodes = (
(484,0,ls),
(902,0,o),
(1150,301,o),
(1150,826,cs),
(1150,1214,o),
(957,1432,o),
(609,1432,cs),
(276,1432,l),
(24,0,l)
);
},
{
closed = 1;
nodes = (
(531,1144,l),
(607,1144,ls),
(769,1144,o),
(836,1046,o),
(836,817,cs),
(836,481,o),
(714,288,o),
(500,288,cs),
(381,288,l)
);
}
);
width = 1200;
},
{
anchors = (
{
name = top;
pos = (696,1432);
}
);
background = {
shapes = (
{
closed = 1;
nodes = (
(421,0,ls),
(785,0,o),
(1041,257,o),
(1119,698,cs),
(1125,734,ls),
(1203,1175,o),
(1037,1432,o),
(673,1432,cs),
(308,1432,l),
(56,0,l)
);
},
{
closed = 1;
nodes = (
(428,1294,l),
(642,1294,ls),
(928,1294,o),
(1042,1104,o),
(978,739,cs),
(970,693,ls),
(906,328,o),
(723,138,o),
(438,138,cs),
(224,138,l)
);
}
);
};
layerId = "87470510-D880-4621-BF85-70AEEA552FBA";
shapes = (
{
closed = 1;
nodes = (
(447,0,ls),
(868,0,o),
(1124,323,o),
(1124,856,cs),
(1124,1225,o),
(949,1432,o),
(630,1432,cs),
(308,1432,l),
(56,0,l)
);
},
{
closed = 1;
nodes = (
(428,1294,l),
(611,1294,ls),
(865,1294,o),
(976,1160,o),
(976,852,cs),
(976,404,o),
(783,138,o),
(449,138,cs),
(224,138,l)
);
}
);
width = 1200;
},
{
anchors = (
{
name = top;
pos = (708,1432);
}
);
background = {
shapes = (
{
closed = 1;
nodes = (
(447,0,ls),
(805,0,o),
(1084,272,o),
(1158,693,cs),
(1166,739,ls),
(1240,1160,o),
(1057,1432,o),
(699,1432,cs),
(268,1432,l),
(16,0,l)
);
},
{
closed = 1;
nodes = (
(554,1102,l),
(638,1102,ls),
(798,1102,o),
(859,982,o),
(817,744,cs),
(807,688,ls),
(765,449,o),
(664,330,o),
(502,330,cs),
(418,330,l)
);
}
);
};
layerId = "00586AEE-0022-45ED-9612-7F804652F2C7";
shapes = (
{
closed = 1;
nodes = (
(493,0,ls),
(912,0,o),
(1157,302,o),
(1157,818,cs),
(1157,1216,o),
(963,1432,o),
(606,1432,cs),
(268,1432,l),
(16,0,l)
);
},
{
closed = 1;
nodes = (
(554,1102,l),
(607,1102,ls),
(748,1102,o),
(807,1015,o),
(807,808,cs),
(807,504,o),
(700,330,o),
(513,330,cs),
(418,330,l)
);
}
);
width = 1200;
},
{
associatedMasterId = "87470510-D880-4621-BF85-70AEEA552FBA";
background = {
shapes = (
{
closed = 1;
nodes = (
(421,0,ls),
(785,0,o),
(1041,257,o),
(1119,698,cs),
(1125,734,ls),
(1203,1175,o),
(1037,1432,o),
(673,1432,cs),
(308,1432,l),
(56,0,l)
);
},
{
closed = 1;
nodes = (
(428,1294,l),
(642,1294,ls),
(928,1294,o),
(1042,1104,o),
(978,739,cs),
(970,693,ls),
(906,328,o),
(723,138,o),
(438,138,cs),
(224,138,l)
);
}
);
};
layerId = "8B88F509-97C7-4E50-8AD0-35F74B8C917A";
name = "20 Oct 24, 18:23";
shapes = (
{
closed = 1;
nodes = (
(469,0,ls),
(808,0,o),
(1034,221,o),
(1105,621,cs),
(1111,655,ls),
(1123,723,o),
(1130,792,o),
(1130,856,cs),
(1130,1230,o),
(960,1432,o),
(641,1432,cs),
(308,1432,l),
(56,0,l)
);
},
{
closed = 1;
nodes = (
(428,1294,l),
(621,1294,ls),
(872,1294,o),
(982,1160,o),
(982,852,cs),
(982,792,o),
(976,729,o),
(966,672,cs),
(958,627,ls),
(902,309,o),
(735,138,o),
(482,138,cs),
(224,138,l)
);
}
);
width = 1200;
},
{
associatedMasterId = m006;
background = {
shapes = (
{
closed = 1;
nodes = (
(426,0,ls),
(789,0,o),
(1050,260,o),
(1127,697,cs),
(1133,735,ls),
(1210,1172,o),
(1041,1432,o),
(678,1432,cs),
(300,1432,l),
(48,0,l)
);
},
{
closed = 1;
nodes = (
(454,1258,l),
(642,1258,ls),
(902,1258,o),
(1004,1081,o),
(944,740,cs),
(936,692,ls),
(876,351,o),
(710,174,o),
(450,174,cs),
(262,174,l)
);
}
);
};
layerId = "B6303F64-342F-4839-8224-C80CFCE02ED9";
name = "20 Oct 24, 18:23";
shapes = (
{
closed = 1;
nodes = (
(473,0,ls),
(818,0,o),
(1043,226,o),
(1113,622,cs),
(1119,656,ls),
(1132,730,o),
(1138,799,o),
(1138,858,cs),
(1138,1232,o),
(962,1432,o),
(636,1432,cs),
(300,1432,l),
(48,0,l)
);
},
{
closed = 1;
nodes = (
(454,1258,l),
(618,1258,ls),
(848,1258,o),
(949,1133,o),
(949,851,cs),
(949,797,o),
(944,735,o),
(934,678,cs),
(925,627,ls),
(873,333,o),
(720,174,o),
(489,174,cs),
(262,174,l)
);
}
);
width = 1200;
},
{
associatedMasterId = "90828D4A-10F7-4870-818F-40FC947ECC22";
background = {
shapes = (
{
closed = 1;
nodes = (
(442,0,ls),
(801,0,o),
(1074,269,o),
(1149,694,cs),
(1157,738,ls),
(1232,1163,o),
(1053,1432,o),
(694,1432,cs),
(276,1432,l),
(24,0,l)
);
},
{
closed = 1;
nodes = (
(531,1144,l),
(639,1144,ls),
(822,1144,o),
(891,1009,o),
(844,743,cs),
(834,689,ls),
(787,422,o),
(673,288,o),
(489,288,cs),
(381,288,l)
);
}
);
};
layerId = "0ACC3A6F-E9F1-4DA5-BE4B-484DBC7B5B57";
name = "20 Oct 24, 18:23";
shapes = (
{
closed = 1;
nodes = (
(486,0,ls),
(839,0,o),
(1068,232,o),
(1136,618,cs),
(1143,658,ls),
(1154,721,o),
(1161,795,o),
(1161,864,cs),
(1161,1229,o),
(971,1432,o),
(620,1432,cs),
(276,1432,l),
(24,0,l)
);
},
{
closed = 1;
nodes = (
(531,1144,l),
(608,1144,ls),
(775,1144,o),
(851,1050,o),
(851,846,cs),
(851,801,o),
(846,746,o),
(837,693,cs),
(827,636,ls),
(786,401,o),
(685,288,o),
(509,288,cs),
(381,288,l)
);
}
);
width = 1200;
},
{
associatedMasterId = "00586AEE-0022-45ED-9612-7F804652F2C7";
background = {
shapes = (
{
closed = 1;
nodes = (
(447,0,ls),
(805,0,o),
(1084,272,o),
(1158,693,cs),
(1166,739,ls),
(1240,1160,o),
(1057,1432,o),
(699,1432,cs),
(268,1432,l),
(16,0,l)
);
},
{
closed = 1;
nodes = (
(554,1102,l),
(638,1102,ls),
(798,1102,o),
(859,982,o),
(817,744,cs),
(807,688,ls),
(765,449,o),
(664,330,o),
(502,330,cs),
(418,330,l)
);
}
);
};
layerId = "0F39B5AB-B5F4-4F32-BB22-4924F919649A";
name = "20 Oct 24, 18:23";
shapes = (
{
closed = 1;
nodes = (
(490,0,ls),
(847,0,o),
(1074,219,o),
(1143,612,cs),
(1151,658,ls),
(1162,720,o),
(1168,795,o),
(1168,866,cs),
(1168,1228,o),
(974,1432,o),
(615,1432,cs),
(268,1432,l),
(16,0,l)
);
},
{
closed = 1;
nodes = (
(554,1102,l),
(605,1102,ls),
(750,1102,o),
(818,1020,o),
(818,844,cs),
(818,802,o),
(813,744,o),
(804,695,cs),
(794,638,ls),
(758,431,o),
(672,330,o),
(515,330,cs),
(418,330,l)
);
}
);
width = 1200;
}
);
unicode = 68;
}
